<svg width="80" height="64" viewBox="0 0 80 64" fill="none" xmlns="http://www.w3.org/2000/svg">
<path d="M39.7191 63.9997C39.4311 63.9997 39.1432 63.8557 38.9992 63.7118L0.269546 21.6706C-0.0184065 21.3107 -0.0903925 20.8788 0.125572 20.4468L10.1319 2.59376C10.2759 2.30581 10.6359 2.08984 10.9958 2.08984H16.2509C16.8268 2.08984 17.2588 2.52177 17.2588 3.09768C17.2588 3.67359 16.8268 4.10551 16.2509 4.10551H11.5717L2.21323 20.8068L39.7191 61.4801L76.865 20.8788L66.4267 4.1775H39.5031C38.9272 4.1775 38.4953 3.74557 38.4953 3.16967C38.4953 2.59376 38.9272 2.16183 39.5031 2.16183H66.9306C67.2906 2.16183 67.5785 2.30581 67.7945 2.66575L78.9527 20.5188C79.1686 20.8788 79.1686 21.4547 78.8087 21.7426L40.367 63.7838C40.223 63.9277 39.9351 63.9997 39.7191 63.9997Z" fill="#10171D"/>
<path d="M56.5612 45.5686C56.2732 45.5686 56.0573 45.4966 55.8413 45.2807L15.8159 3.81545C15.4559 3.38352 15.4559 2.73563 15.8159 2.37569C16.1758 1.94376 16.8237 2.01575 17.2556 2.37569L57.2811 43.8409C57.641 44.2728 57.641 44.9207 57.2811 45.2807C57.0651 45.4966 56.8492 45.5686 56.5612 45.5686Z" fill="#10171D"/>
<path d="M32.1622 8.20666C29.9306 8.20666 28.1309 6.33496 28.1309 4.10333C28.1309 1.7997 29.9306 0 32.1622 0C34.3938 0 36.1935 1.87169 36.1935 4.10333C36.1935 6.33496 34.3938 8.20666 32.1622 8.20666ZM32.1622 2.01567C31.0824 2.01567 30.1465 2.95152 30.1465 4.10333C30.1465 5.25514 31.0824 6.19099 32.1622 6.19099C33.242 6.19099 34.1779 5.25514 34.1779 4.10333C34.1779 2.95152 33.314 2.01567 32.1622 2.01567Z" fill="#10171D"/>
</svg>
