<svg width="64" height="72" viewBox="0 0 64 72" fill="none" xmlns="http://www.w3.org/2000/svg">
<path d="M10.5 56.5L7.5 53.5V24.5L31.5 10L55.5 24.5V53.5L52.5 56.5L49 53.5V29L31.5 18L14 29.5V53.5L10.5 56.5Z" fill="#10171D"/>
<path d="M26 37.6923L31.5 34L37 37.6923V62.3077L31.5 66L26 62.3077V37.6923Z" fill="#10171D"/>
<path d="M36.4035 72C35.9082 72 35.5068 71.5987 35.5068 71.1034V38.4973L31.5616 35.8671L27.6164 38.4973V71.1034C27.6164 71.5987 27.2149 72 26.7198 72C26.2247 72 25.8232 71.5987 25.8232 71.1034V38.0174C25.8232 37.7176 25.9729 37.4377 26.2225 37.2714L31.0644 34.0435C31.3656 33.8427 31.7578 33.8427 32.0591 34.0435L36.9009 37.2714C37.1504 37.4377 37.3003 37.7176 37.3003 38.0174V71.1034C37.3001 71.5987 36.8988 72 36.4035 72ZM42.8593 68.7721C42.364 68.7721 41.9626 68.3708 41.9626 67.8755V34.4721L31.5616 27.7857L21.1606 34.4721V67.8755C21.1606 68.3708 20.7591 68.7721 20.264 68.7721C19.7689 68.7721 19.3674 68.3708 19.3674 67.8755V33.9826C19.3674 33.6775 19.5225 33.3933 19.7791 33.2283L31.0767 25.9655C31.3721 25.7756 31.751 25.7758 32.0465 25.9655L43.3442 33.2283C43.6008 33.3933 43.7559 33.6775 43.7559 33.9826V67.8755C43.7559 68.3708 43.3546 68.7721 42.8593 68.7721ZM49.3151 65.5442C48.8198 65.5442 48.4184 65.1429 48.4184 64.6476V29.633L31.5616 18.906L14.7049 29.633V64.6476C14.7049 65.1429 14.3033 65.5442 13.8082 65.5442C13.3131 65.5442 12.9116 65.1429 12.9116 64.6476V29.1407C12.9116 28.8343 13.0683 28.5489 13.3267 28.3843L31.0801 17.0867C31.3741 16.8998 31.749 16.8998 32.043 17.0867L49.7964 28.3843C50.055 28.5489 50.2115 28.8343 50.2115 29.1407V64.6476C50.2117 65.1429 49.8104 65.5442 49.3151 65.5442ZM55.7709 62.3163C55.2756 62.3163 54.8742 61.915 54.8742 61.4197V24.8066L31.5616 10.819L8.24907 24.8066V61.4197C8.24907 61.915 7.84755 62.3163 7.35243 62.3163C6.85731 62.3163 6.45579 61.915 6.45579 61.4197V24.2989C6.45579 23.984 6.62095 23.692 6.8912 23.5299L31.1004 9.00439C31.3843 8.83403 31.7394 8.83403 32.0231 9.00439L56.2323 23.5299C56.5023 23.692 56.6677 23.9838 56.6677 24.2989V61.4197C56.6675 61.915 56.2662 62.3163 55.7709 62.3163ZM62.2267 59.0884C61.7313 59.0884 61.33 58.6871 61.33 58.1918V19.9624L31.5616 1.94481L1.79328 19.9624V58.1918C1.79328 58.6871 1.39176 59.0884 0.896638 59.0884C0.401514 59.0884 0 58.6871 0 58.1918V19.457C0 19.1432 0.164085 18.8523 0.432359 18.6901L31.0974 0.129654C31.3827 -0.0432179 31.7404 -0.0432179 32.0259 0.129654L62.6909 18.6901C62.9594 18.8523 63.1233 19.1432 63.1233 19.457V58.1918C63.1233 58.6871 62.722 59.0884 62.2267 59.0884Z" fill="#18212A"/>
</svg>
