<svg width="49" height="64" viewBox="0 0 49 64" fill="none" xmlns="http://www.w3.org/2000/svg">
<path d="M33.2892 64C33.2236 64 33.1579 64 33.1579 64H30.7285C28.8243 64 27.0514 63.606 25.3442 62.8838C23.637 63.5404 21.8642 63.8687 19.96 63.8687H17.5305C13.5908 63.803 9.84814 62.2271 7.09036 59.2724C4.26692 56.3833 2.75671 52.5093 2.82237 48.5039C2.82237 47.9786 3.21635 47.5846 3.74164 47.5846C4.26693 47.5846 4.66088 48.0443 4.66088 48.5039C4.59522 52.0496 5.97411 55.3984 8.40359 57.9592C10.8331 60.5199 14.1162 61.9645 17.5962 61.9645H20.0257C21.0762 61.9645 22.0611 61.8332 23.0461 61.6362C22.0611 60.9796 21.1419 60.2573 20.2883 59.4037C17.4649 56.5146 15.9547 52.6406 16.0203 48.6352L16.4143 9.43537C16.5456 3.85415 20.551 0.702401 24.5563 0.111448C28.4303 -0.479505 33.1579 1.22769 34.8651 6.4806C35.2591 7.59685 35.3904 8.71309 35.3904 9.82933L34.9965 48.8322C34.9308 54.3478 32.0417 59.0754 27.7737 61.7675C28.7587 62.0302 29.7436 62.1615 30.7941 62.1615H33.2236C33.2892 62.1615 33.2893 62.1615 33.355 62.1615C40.512 62.1615 46.3558 56.252 46.4215 48.9635L46.8155 9.96066C46.8155 9.43537 47.2094 9.0414 47.7347 9.0414C48.26 9.0414 48.654 9.50103 48.654 9.96066L48.2601 48.9635C48.0631 57.2369 41.4312 64 33.2892 64ZM26.0008 1.81864C25.6069 1.81864 25.1472 1.8843 24.7532 1.8843C21.5358 2.4096 18.3184 4.90473 18.1871 9.36971V9.56669L17.7932 48.5696C17.7275 52.1153 19.1064 55.464 21.5359 58.0248C22.6521 59.2067 23.9653 60.126 25.3442 60.7826C29.8749 58.7471 33.0923 54.0851 33.0923 48.7009L33.4862 9.69801C33.4862 8.84441 33.355 7.92516 33.0266 7.0059C31.7791 3.13187 28.6929 1.81864 26.0008 1.81864Z" fill="#10171D"/>
<path d="M3.67702 44.5645C1.64152 44.5645 0 42.8573 0 40.8218C0 38.7206 1.64152 37.0791 3.67702 37.0791C5.71253 37.0791 7.35408 38.7863 7.35408 40.8218C7.35408 42.8573 5.71253 44.5645 3.67702 44.5645ZM3.67702 38.9176C2.6921 38.9176 1.83851 39.7712 1.83851 40.8218C1.83851 41.8724 2.6921 42.726 3.67702 42.726C4.66194 42.726 5.51557 41.8724 5.51557 40.8218C5.51557 39.7712 4.66194 38.9176 3.67702 38.9176Z" fill="#10171D"/>
</svg>
