<svg width="72" height="72" viewBox="0 0 72 72" fill="none" xmlns="http://www.w3.org/2000/svg">
<rect x="9" y="1" width="10" height="44" fill="#10171D"/>
<rect x="1" y="54" width="70" height="8" fill="#10171D"/>
<path d="M70.9443 0H35.7784H27.0976H18.416H9.73444H1.05359C0.472007 0 0 0.471304 0 1.05359V44.9011V53.5833V62.2649V70.9464C0 71.5287 0.472007 72 1.05359 72H70.9457C71.5273 72 71.9993 71.5287 71.9993 70.9464V62.2649V53.5833V44.9018C71.9993 44.8638 71.9923 44.8287 71.9881 44.7922C71.9916 44.7557 71.9993 44.7198 71.9993 44.6826V36.2209V35.9996V1.05359C71.9979 0.471304 71.5259 0 70.9443 0ZM37.0518 43.6276V37.2731H69.8907V43.6276H37.0518ZM9.73303 45.9553H18.4146H27.0961H35.777C35.7784 45.9553 35.7791 45.9546 35.7805 45.9546H69.89V52.529H2.10507V45.9546L9.73303 45.9553ZM2.10578 54.6362H69.8907V61.2106H2.10578V54.6362ZM69.8907 34.9461H36.832V2.10717H69.8907V34.9461ZM34.7241 36.2195V43.8475H28.1504V2.10717H34.7241V36.2195ZM26.0433 43.8475H19.4689V2.10717H26.0433V43.8475ZM17.3617 43.8475H10.7873V2.10717H17.3617V43.8475ZM8.67944 2.10717V43.8475H2.10578V2.10717H8.67944ZM69.8907 69.8921H2.10578V63.3177H69.8907V69.8921Z" fill="#18212A"/>
<path d="M41.748 29.1956C41.748 29.7779 42.2201 30.2492 42.8016 30.2492H63.9197C64.5013 30.2492 64.9733 29.7779 64.9733 29.1956V8.07751C64.9733 7.49523 64.5013 7.02393 63.9197 7.02393H42.8016C42.2201 7.02393 41.748 7.49523 41.748 8.07751C41.748 8.65979 42.2201 9.1311 42.8016 9.1311H62.8661V28.142H42.8016C42.2194 28.142 41.748 28.614 41.748 29.1956Z" fill="#18212A"/>
<path d="M56.8963 16.155C57.4779 16.155 57.9499 15.6837 57.9499 15.1014C57.9499 14.5192 57.4779 14.0479 56.8963 14.0479H49.826C49.2445 14.0479 48.7725 14.5192 48.7725 15.1014V22.1717C48.7725 22.754 49.2445 23.2253 49.826 23.2253H56.8963C57.4779 23.2253 57.9499 22.754 57.9499 22.1717C57.9499 21.5894 57.4779 21.1181 56.8963 21.1181H50.8796V16.155H56.8963Z" fill="#18212A"/>
</svg>
