<svg width="50" height="64" viewBox="0 0 50 64" fill="none" xmlns="http://www.w3.org/2000/svg">
<path d="M48.5535 51.293H0.816039C0.349739 51.293 0 50.9432 0 50.4769V33.3987C0 32.9324 0.349739 32.5827 0.816039 32.5827H12.9981C13.4644 32.5827 13.8141 32.9324 13.8141 33.3987C13.8141 33.865 13.4644 34.2147 12.9981 34.2147H1.63204V49.6026H47.7375V1.63205H1.63204V15.621C1.63204 16.0873 1.28234 16.4371 0.816039 16.4371C0.349739 16.4371 0 16.0873 0 15.621V0.816021C0 0.349721 0.349739 0 0.816039 0H48.5535C49.0198 0 49.3695 0.349721 49.3695 0.816021V50.4769C49.3695 50.9432 49.0198 51.293 48.5535 51.293Z" fill="#10171D"/>
<path d="M24.6441 64.0001C24.1778 64.0001 23.8281 63.6504 23.8281 63.1841V13.3482C23.8281 12.8819 24.1778 12.5322 24.6441 12.5322C25.1104 12.5322 25.4602 12.8819 25.4602 13.3482V63.1841C25.4602 63.6504 25.1104 64.0001 24.6441 64.0001Z" fill="#10171D"/>
<path d="M35.8963 25.4122C34.0311 25.4122 32.5156 23.8385 32.5156 21.915C32.5156 19.9915 34.0311 18.4177 35.8963 18.4177C37.7615 18.4177 39.277 19.9915 39.277 21.915C39.277 23.8385 37.7615 25.4122 35.8963 25.4122ZM35.8963 20.0498C34.9054 20.0498 34.1477 20.8658 34.1477 21.915C34.1477 22.9059 34.9637 23.7802 35.8963 23.7802C36.8872 23.7802 37.6449 22.9641 37.6449 21.915C37.6449 20.8658 36.8872 20.0498 35.8963 20.0498Z" fill="#10171D"/>
</svg>
