<svg width="72" height="72" viewBox="0 0 72 72" fill="none" xmlns="http://www.w3.org/2000/svg">
<path d="M27.5 8.5L24 2.5L29 1H36.5L44 2L50.5 4L48 7.5L43.5 11.5L35.5 12.5L27.5 8.5Z" fill="#10171D"/>
<path d="M49.5 68.5C41.9 33.7 13.6667 30 0.5 32.5L2 26L4 22H9L19.5 23.5L29 27L38 32.5L48 42L55 54L58.5 63.5L49.5 68.5Z" fill="#10171D"/>
<path d="M26.0909 46.7253C20.3726 42.8096 13.6808 40.7397 6.73891 40.7397C4.84986 40.7397 2.94559 40.8974 1.07967 41.2091C0.839811 41.2487 0.626129 41.3826 0.485501 41.5805C0.344872 41.7783 0.288258 42.0243 0.329655 42.2635C0.900692 45.6136 1.95266 48.8639 3.45392 51.9237C3.62255 52.2676 3.986 52.4667 4.36953 52.4296C5.14268 52.348 5.94019 52.3066 6.73952 52.3066C11.8606 52.3066 16.8496 54.0556 20.8614 57.2371C19.9653 60.5605 19.3845 63.9903 19.1422 67.4439C19.1167 67.811 19.3139 68.1574 19.642 68.323C22.7547 69.8925 26.0732 70.9998 29.5049 71.6147C29.5585 71.6245 29.6127 71.6287 29.6662 71.6287C29.8769 71.6287 30.0832 71.5557 30.2476 71.4193C30.4546 71.2482 30.5758 70.995 30.5794 70.7265C30.5849 70.2383 30.5971 69.7567 30.6208 69.2685V69.2679V69.2666C30.8546 64.2698 31.9571 59.4117 33.8979 54.8294C34.0275 54.5226 33.9801 54.1701 33.7743 53.9083C31.5808 51.125 28.9954 48.7075 26.0909 46.7253ZM21.01 66.9618C21.2419 64.1267 21.7076 61.3117 22.3974 58.5661C22.4217 58.5892 22.4473 58.6124 22.4716 58.6355C22.8028 58.9521 23.1237 59.2784 23.4354 59.6138C23.4907 59.6741 23.5455 59.7343 23.6003 59.7952C23.9126 60.1398 24.2164 60.4917 24.5074 60.8545C24.5433 60.8989 24.5768 60.9446 24.6121 60.989C24.9068 61.3622 25.1917 61.7427 25.4626 62.1329C25.4736 62.1488 25.4851 62.1634 25.4961 62.1792C25.7682 62.5737 26.0251 62.9785 26.2723 63.3883C26.3088 63.4485 26.3459 63.5082 26.3819 63.5684C26.615 63.9642 26.8354 64.3672 27.0448 64.7763C27.0832 64.8512 27.1215 64.926 27.1587 65.0015C27.3632 65.4118 27.5562 65.827 27.7352 66.2483C27.7638 66.3165 27.7912 66.3847 27.8192 66.4529C28.0006 66.8912 28.1717 67.3338 28.3251 67.7824C28.3348 67.811 28.3433 67.8397 28.3525 67.8683C28.5022 68.3115 28.6362 68.7601 28.7573 69.2119C28.7677 69.2502 28.7792 69.2886 28.7896 69.3269C28.7853 69.4219 28.7817 69.5169 28.778 69.6112C26.0909 69.0438 23.4853 68.1544 21.01 66.9618ZM29.1883 65.0113C29.1628 64.9546 29.1329 64.9005 29.1068 64.8438C28.9613 64.5285 28.8091 64.2162 28.6502 63.9069C28.6161 63.8406 28.5838 63.773 28.5491 63.7066C28.3592 63.345 28.1589 62.9889 27.9513 62.637C27.8989 62.5481 27.8442 62.4605 27.7906 62.3716C27.6177 62.0867 27.4393 61.806 27.2555 61.5284C27.2007 61.4462 27.1477 61.3634 27.0923 61.2819C26.8634 60.9458 26.6272 60.6152 26.3819 60.2902C26.3277 60.2183 26.2711 60.1483 26.2163 60.0771C26.0111 59.811 25.8005 59.5499 25.585 59.2924C25.515 59.2083 25.4449 59.1243 25.3737 59.0415C25.1071 58.7323 24.8349 58.4279 24.5531 58.132C24.5105 58.0876 24.466 58.045 24.4234 58.0005C24.175 57.743 23.9199 57.4922 23.66 57.2456C23.579 57.1689 23.4974 57.0922 23.4153 57.0161C23.1115 56.7361 22.8028 56.4609 22.4844 56.1961L22.4832 56.1955L22.4814 56.1937L22.4808 56.1931C18.0702 52.5087 12.4797 50.4796 6.73952 50.4796C6.09664 50.4796 5.45438 50.504 4.82307 50.5539C3.6743 48.0987 2.82749 45.5205 2.29906 42.8699C3.77049 42.6678 5.25957 42.5655 6.73952 42.5655C13.3113 42.5655 19.6463 44.5245 25.0602 48.2326C27.667 50.0115 30.0017 52.1593 32.0064 54.6224C30.6385 57.9652 29.6961 61.4438 29.1883 65.0113Z" fill="#18212A"/>
<path d="M71.0585 27.9577C70.9587 27.5224 70.5557 27.2277 70.1125 27.2509C60.8164 27.8219 52.1309 31.2494 44.9314 37.1618C43.0418 35.2624 41.0121 33.5049 38.8759 31.9135C46.7432 25.1092 56.2974 20.8617 66.5882 19.6265C66.892 19.59 67.1574 19.4043 67.295 19.1309C67.4326 18.8576 67.4247 18.5343 67.2731 18.2683C65.1661 14.5663 62.4491 11.2923 59.1982 8.53875C58.9852 8.35855 58.7027 8.2855 58.4287 8.34029C58.1554 8.39508 57.9216 8.57102 57.7944 8.8194C53.8665 16.4925 46.0857 21.2592 37.4891 21.2592C28.1918 21.2592 19.9068 15.6846 16.382 7.05759C16.2767 6.80007 16.0593 6.60405 15.7921 6.52612C15.5254 6.44881 15.2363 6.4969 15.0086 6.65762C9.56548 10.5136 5.30583 15.7875 2.69172 21.9094L2.69111 21.91C1.28848 25.1938 0.384438 28.6596 0.00516747 32.2106C-0.0246628 32.4901 0.0757853 32.7677 0.277292 32.9631C0.478799 33.1585 0.759447 33.251 1.03766 33.2121C2.90662 32.9552 4.82489 32.8249 6.73951 32.8249C15.1444 32.8249 23.271 35.2978 30.2409 39.9756C32.8995 41.7575 35.3474 43.8365 37.5189 46.1572C39.7209 48.4901 41.6416 51.0768 43.2536 53.8419C40.6474 58.2604 39.0384 63.2664 38.6129 68.3619C38.535 69.2172 38.4942 70.1067 38.4875 71.0801C38.4856 71.334 38.5898 71.5769 38.7742 71.7516C38.9441 71.9117 39.1681 72 39.4006 72C39.4207 72 39.4408 71.9994 39.4615 71.9981C39.5967 71.989 39.7288 71.9744 39.8615 71.9592L40.0478 71.9391C43.3589 71.5574 46.5849 70.7252 49.6063 69.4772C49.6471 69.462 49.6884 69.4443 49.7566 69.4145L49.7572 69.4139L49.7585 69.4133C49.7615 69.412 49.7639 69.409 49.767 69.4078C49.7731 69.4054 49.7798 69.4047 49.7859 69.4017C53.0848 68.0228 56.1507 66.1691 58.8987 63.8934L58.8999 63.8922C63.9309 59.7227 67.7333 54.2869 69.8976 48.1723C70.0053 47.8679 69.9444 47.53 69.7381 47.2822C69.5317 47.0345 69.209 46.9151 68.8919 46.9657C64.0892 47.7388 59.558 49.9919 55.9887 53.3481C54.8966 50.8728 53.6127 48.4736 52.1534 46.1889C57.5521 41.718 64.0715 39.155 71.0652 38.7763C71.5279 38.7508 71.8986 38.3837 71.9272 37.9216C71.9613 37.378 71.9778 36.7783 71.9778 36.0867C71.9766 33.346 71.6679 30.6107 71.0585 27.9577ZM15.1559 8.81393C19.1921 17.5213 27.8356 23.085 37.4897 23.085C46.387 23.085 54.4741 18.359 58.867 10.675C61.2431 12.824 63.2947 15.2792 64.9871 17.9974C54.7206 19.4987 45.2084 23.905 37.3558 30.8037C37.1597 30.668 36.9588 30.5413 36.761 30.4086C36.4864 30.2242 36.2125 30.0391 35.9361 29.8601C35.6329 29.6641 35.3267 29.4741 35.0205 29.2842C34.7398 29.1107 34.4604 28.9366 34.1773 28.7686C33.8686 28.5853 33.5563 28.4082 33.2446 28.2316C32.9585 28.0691 32.673 27.9059 32.3844 27.7489C32.0703 27.5778 31.7525 27.4146 31.4353 27.2503C31.1437 27.0993 30.8534 26.9471 30.5593 26.8016C30.2391 26.6433 29.9158 26.4923 29.5932 26.3407C29.2973 26.2013 29.002 26.0607 28.7044 25.9274C28.378 25.7813 28.0487 25.6431 27.72 25.5037C27.4204 25.3764 27.1215 25.2474 26.8202 25.1262C26.4884 24.9929 26.1542 24.8681 25.8199 24.7415C25.5162 24.6264 25.213 24.5083 24.9074 24.3987C24.5701 24.2782 24.2304 24.1662 23.8907 24.0523C23.5839 23.9495 23.2789 23.8435 22.9702 23.7461C22.6251 23.6371 22.2774 23.5379 21.9298 23.4363C21.623 23.3461 21.3174 23.2524 21.0093 23.1684C20.6569 23.0716 20.3013 22.9858 19.9464 22.8963C19.639 22.8189 19.3328 22.7374 19.0241 22.6655C18.6637 22.5815 18.3003 22.5085 17.9374 22.4318C17.6312 22.3672 17.3268 22.2978 17.0194 22.2388C16.6487 22.1675 16.2755 22.1073 15.9029 22.0434C15.6003 21.9916 15.2984 21.9344 14.9946 21.8881C14.6086 21.8291 14.2208 21.7816 13.833 21.7311C13.5402 21.6927 13.248 21.6483 12.954 21.6148C12.5467 21.5679 12.1376 21.5344 11.7285 21.4967C11.4509 21.4711 11.1739 21.4394 10.8951 21.4181C10.4427 21.3834 9.98736 21.3627 9.5326 21.3396C9.29578 21.3274 9.06079 21.3086 8.82337 21.2994C8.13058 21.2732 7.43596 21.2599 6.73951 21.2599C6.15813 21.2599 5.58587 21.2696 5.02336 21.2873C5.00875 21.2879 4.99291 21.2873 4.9783 21.2879C7.32638 16.3823 10.8129 12.1093 15.1559 8.81393ZM31.2588 38.4592C23.9869 33.5786 15.5078 30.9991 6.73951 30.9991C5.14085 30.9991 3.53976 31.0862 1.96362 31.2585C2.35628 28.4764 3.09048 25.7575 4.15097 23.1544C4.36892 23.1434 4.58625 23.1319 4.80845 23.1239C4.96004 23.1185 5.1098 23.1112 5.26322 23.1069C5.74841 23.0935 6.2397 23.085 6.7389 23.085C8.78015 23.085 10.805 23.2019 12.8066 23.4338C21.4793 24.4377 29.7095 27.5948 36.8919 32.711C39.5072 34.5715 41.9709 36.6955 44.2155 39.0229C46.4089 41.2997 48.4198 43.8164 50.1925 46.503C52.0207 49.2693 53.584 52.2213 54.8412 55.2798C55.106 55.919 55.3562 56.5643 55.5942 57.2133C55.6703 57.4203 55.7373 57.6297 55.8104 57.8373C55.9662 58.2805 56.1227 58.7243 56.2657 59.1705C56.3473 59.425 56.4204 59.6813 56.4977 59.937C56.62 60.3394 56.7424 60.7418 56.8544 61.1454C56.9305 61.4212 56.9987 61.6982 57.0699 61.9746C57.1448 62.2662 57.2185 62.5572 57.2879 62.8494C55.0938 64.6057 52.6946 66.0838 50.1371 67.2557C50.0975 67.0348 50.0476 66.8174 50.0044 66.5976C49.9484 66.3121 49.8936 66.0266 49.8321 65.7423C49.7585 65.402 49.6775 65.0647 49.5959 64.7269C49.5289 64.4499 49.4638 64.1717 49.3914 63.8959C49.3019 63.5544 49.2039 63.2159 49.1065 62.8768C49.0291 62.6089 48.9543 62.3398 48.8721 62.0738C48.7661 61.7304 48.6505 61.3901 48.5354 61.0498C48.4484 60.7917 48.365 60.5324 48.2736 60.2761C48.1494 59.9291 48.0155 59.5863 47.8822 59.243C47.7872 58.997 47.6965 58.7498 47.5973 58.5057C47.4524 58.1502 47.2959 57.7989 47.1413 57.4464C47.0415 57.2194 46.9471 56.9899 46.843 56.764C46.6683 56.3841 46.4814 56.0091 46.2957 55.6341C46.2001 55.4405 46.1106 55.2445 46.012 55.0521C45.7496 54.5419 45.4751 54.0367 45.192 53.535C45.1622 53.4821 45.136 53.4285 45.1055 53.3755L45.1043 53.3737C43.3705 50.3158 41.2647 47.4655 38.8479 44.9055C36.5863 42.4875 34.0318 40.3184 31.2588 38.4592ZM40.7168 70.0032C40.6359 69.4674 40.547 68.9354 40.4447 68.4124C40.8307 63.9762 42.1499 59.6149 44.2867 55.698C44.308 55.7388 44.3312 55.7784 44.3525 55.8192C44.4414 55.9908 44.5235 56.165 44.6094 56.3379C44.7853 56.6909 44.9588 57.0447 45.1244 57.4014C45.2182 57.6029 45.3064 57.8062 45.3965 58.0096C45.5445 58.3432 45.69 58.6774 45.8294 59.0147C45.9183 59.2296 46.0041 59.4451 46.0893 59.6612C46.2202 59.9936 46.3468 60.3284 46.4692 60.6645C46.5484 60.8824 46.6275 61.1003 46.7036 61.3195C46.8229 61.6653 46.9361 62.0141 47.0463 62.363C47.1127 62.573 47.1809 62.7824 47.2442 62.9937C47.3599 63.3808 47.4664 63.7717 47.5711 64.1631C47.618 64.3379 47.6691 64.5114 47.7136 64.6873C47.8572 65.2547 47.9912 65.8251 48.1111 66.3998C48.1239 66.4607 48.1336 66.5228 48.1458 66.5836C48.2414 67.05 48.3278 67.52 48.4076 67.9911C45.9402 68.9615 43.3553 69.6306 40.7168 70.0032ZM67.5952 49.0854C65.6598 53.8175 62.6701 58.0698 58.8506 61.521C58.8165 61.3889 58.777 61.258 58.7416 61.1259C58.6869 60.9208 58.6296 60.7168 58.5724 60.5123C58.4421 60.0472 58.3051 59.5833 58.1615 59.12C58.1036 58.9337 58.0482 58.7474 57.988 58.5617C57.7852 57.9323 57.5728 57.3046 57.3457 56.6818C57.3201 56.6112 57.2909 56.5418 57.2653 56.4712C57.101 56.0262 56.9336 55.5811 56.757 55.1404C59.7449 52.1598 63.5297 50.0504 67.5952 49.0854ZM70.138 37.009C63.1316 37.5539 56.6006 40.1802 51.144 44.6456C50.959 44.3765 50.7648 44.1147 50.5754 43.8487C50.4379 43.6557 50.3027 43.4615 50.1627 43.271C49.7262 42.6756 49.2806 42.0881 48.8221 41.5128C48.8094 41.4964 48.7966 41.4793 48.7838 41.4629C48.312 40.873 47.8262 40.2965 47.3319 39.7291C47.1784 39.5531 47.0214 39.3815 46.8655 39.208C46.6452 38.9614 46.4284 38.71 46.2044 38.4683C52.8797 33.0258 60.8791 29.8102 69.444 29.1284C69.9128 31.4082 70.1502 33.7454 70.1502 36.0886C70.1502 36.4167 70.1466 36.7217 70.138 37.009Z" fill="#18212A"/>
<path d="M37.4937 13.3445C43.4281 13.3445 48.7872 9.81904 51.1468 4.36192C51.3447 3.90412 51.1389 3.37204 50.6841 3.16749C46.0239 1.06598 41.0447 0 35.8865 0C31.7991 0 27.7818 0.678793 23.9458 2.0175C23.474 2.18188 23.222 2.69447 23.3803 3.16871C25.4112 9.25531 31.0832 13.3445 37.4937 13.3445ZM35.8865 1.82635C40.4706 1.82635 44.9044 2.71212 49.0794 4.46115C46.847 8.77681 42.3937 11.5182 37.4937 11.5182C32.1766 11.5182 27.4378 8.31048 25.4319 3.44632C28.8051 2.3706 32.3172 1.82635 35.8865 1.82635Z" fill="#18212A"/>
</svg>
