<svg width="40" height="72" viewBox="0 0 40 72" fill="none" xmlns="http://www.w3.org/2000/svg">
<circle cx="15.5" cy="11.5" r="4.5" fill="#10171D"/>
<path d="M20.0006 49.5C6.00055 49.9 3.83388 59.6667 4.50055 64.5L1.5 60V56L2 51L5.5 46L10.5 42L17 40.5L23.5 40L30 38L35.5 34L38 32V40C37.8335 43 34.0005 49.1 20.0006 49.5Z" fill="#10171D"/>
<path d="M1.13002 46.0801C0.508946 46.0801 0.00488281 45.5761 0.00488281 44.955V16.4327C0.00488281 15.2265 0.174793 13.9911 0.51121 12.7602C2.55672 5.24766 10.4158 0 19.6228 0C30.4399 0 39.2408 7.37192 39.2408 16.4327C39.2408 25.4934 30.4399 32.8654 19.6228 32.8654C10.9784 32.8654 2.25516 36.6042 2.25516 44.9561C2.25516 45.5761 1.7511 46.0801 1.13002 46.0801ZM19.6217 2.25028C11.5578 2.25028 4.43345 6.91849 2.68161 13.352C2.39807 14.3906 2.25516 15.4268 2.25516 16.4327V37.7372C5.39206 33.3019 11.6096 30.6139 19.6228 30.6139C29.1989 30.6139 36.9905 24.2524 36.9905 16.4316C36.9894 8.61296 29.1978 2.25028 19.6217 2.25028Z" fill="#18212A"/>
<path d="M1.12419 32.5277C0.929541 32.5277 0.732637 32.4782 0.55374 32.3713C0.018173 32.0551 -0.159596 31.3654 0.156569 30.8299C3.11681 25.814 9.82152 22.82 18.0902 22.82C27.5942 22.82 34.8503 17.5476 35.3442 10.2825C35.3858 9.66259 35.9282 9.18329 36.5425 9.23617C37.1625 9.2778 37.6305 9.81449 37.5889 10.4344C37.0128 18.9146 28.8128 25.0692 18.0902 25.0692C10.6249 25.0692 4.64588 27.6502 2.09406 31.9719C1.88479 32.3297 1.50899 32.5277 1.12419 32.5277Z" fill="#18212A"/>
<path d="M19.618 72C8.80085 72 0 64.628 0 55.5673C0 46.5065 8.80085 39.1346 19.618 39.1346C28.2624 39.1346 36.9856 35.3958 36.9856 27.0438C36.9856 26.4228 37.4897 25.9187 38.1108 25.9187C38.7318 25.9187 39.2359 26.4228 39.2359 27.0438V55.5673C39.2359 56.7701 39.066 58.0066 38.7296 59.2397C36.683 66.7534 28.8239 72 19.618 72ZM36.9856 34.2627C33.8487 38.698 27.6312 41.386 19.618 41.386C10.0419 41.386 2.25028 47.7487 2.25028 55.5684C2.25028 63.3881 10.0408 69.7508 19.618 69.7508C27.6818 69.7508 34.8062 65.0826 36.5581 58.6502C36.8416 57.6094 36.9845 56.5732 36.9845 55.5695L36.9856 34.2627Z" fill="#18212A"/>
<path d="M14.9154 17.4454C11.7009 17.4454 9.08496 14.8294 9.08496 11.6149C9.08496 8.40037 11.7009 5.78442 14.9154 5.78442C18.13 5.78442 20.7459 8.40037 20.7459 11.6149C20.7459 14.8305 18.13 17.4454 14.9154 17.4454ZM14.9154 8.03582C12.942 8.03582 11.3352 9.6414 11.3352 11.616C11.3352 13.5895 12.9408 15.1962 14.9154 15.1962C16.8889 15.1962 18.4957 13.5895 18.4957 11.616C18.4957 9.6414 16.8889 8.03582 14.9154 8.03582Z" fill="#18212A"/>
</svg>
