<svg width="63" height="64" viewBox="0 0 63 64" fill="none" xmlns="http://www.w3.org/2000/svg">
<path d="M31.3281 63.9412C23.293 63.9412 15.2578 60.8098 9.17243 54.6063C-3.05748 42.14 -3.05748 21.8159 9.17243 9.34968C21.4023 -3.11656 41.2538 -3.11656 53.4837 9.34968C65.7136 21.8159 65.7136 42.14 53.4837 54.6063C47.3983 60.8098 39.3632 63.9412 31.3281 63.9412ZM31.3281 1.60998C23.4111 1.60998 15.9668 4.74131 10.3541 10.4722C-1.22594 22.2886 -1.22594 41.5492 10.3541 53.3655C21.9341 65.1819 40.7811 65.1819 52.3612 53.3655C57.9739 47.6346 61.0462 40.0131 61.0462 31.9189C61.0462 23.8247 57.9739 16.2032 52.3612 10.4722C46.6893 4.74131 39.245 1.60998 31.3281 1.60998Z" fill="#10171D"/>
<path d="M32.8033 63.9998C27.1905 63.9998 21.5777 61.932 17.1466 57.7372C12.5973 53.4833 9.99774 47.6342 9.70233 41.3715C9.46601 35.0498 11.5929 29.0825 15.7877 24.4151C16.0241 24.1788 16.2604 23.8834 16.4967 23.647C16.7921 23.2925 17.3239 23.2925 17.6784 23.647C17.9738 24.0015 17.9738 24.5333 17.6784 24.8287C17.442 25.065 17.2057 25.3013 17.0285 25.5376C13.1291 29.8506 11.1203 35.4043 11.3566 41.2534C11.5929 47.1025 14.0153 52.4789 18.2692 56.4965C26.9542 64.7088 40.5429 64.118 48.578 55.2557C52.4774 50.9428 54.4862 45.3891 54.2499 39.54C54.0136 33.6909 51.5912 28.3145 47.3373 24.2969C43.7924 20.9884 39.4204 18.9796 34.6939 18.566C34.2212 18.5069 33.9258 18.0933 33.9258 17.6798C33.9849 17.2071 34.3985 16.8526 34.812 16.9117C39.9521 17.3844 44.6787 19.5113 48.4599 23.0562C53.0092 27.3101 55.6088 33.1592 55.9042 39.4218C56.1405 45.7436 54.0136 51.7108 49.8188 56.3783C45.2104 61.4002 39.0068 63.9998 32.8033 63.9998Z" fill="#10171D"/>
<path d="M26.0709 22.5253C25.1256 22.5253 24.2394 22.1709 23.5895 21.4619C22.2306 20.0439 22.2306 17.7988 23.5895 16.4399C24.9483 15.022 27.1344 15.022 28.4932 16.4399C29.8521 17.8579 29.8521 20.103 28.4932 21.4619C27.8433 22.1118 27.0162 22.5253 26.0709 22.5253ZM26.0709 17.0898C25.5983 17.0898 25.1256 17.2671 24.7711 17.6216C24.0621 18.3305 24.0621 19.5713 24.7711 20.2802C25.4801 20.9892 26.6617 20.9892 27.3707 20.2802C28.0797 19.5713 28.0797 18.3896 27.3707 17.6216C27.0162 17.2671 26.5436 17.0898 26.0709 17.0898Z" fill="#10171D"/>
</svg>
