<svg width="111" height="30" viewBox="0 0 111 30" fill="none" xmlns="http://www.w3.org/2000/svg">
<path d="M13.292 23.3636L16.7965 19.0102H21.0058C22.1667 19.0102 23.1379 18.7646 23.9193 18.2734C24.7006 17.7823 25.2811 17.0456 25.6606 16.0633C26.0625 15.081 26.2634 13.8531 26.2634 12.3796C26.2634 11.1964 26.1406 10.1806 25.895 9.33224C25.6495 8.48389 25.2811 7.79181 24.7899 7.25601C24.3211 6.69788 23.7072 6.28487 22.9481 6.01696C22.2114 5.74906 21.3407 5.61511 20.3361 5.61511H14.2655L14.8044 1.26172H20.1352C22.8811 1.26172 25.1248 1.69706 26.8662 2.56774C28.6075 3.43842 29.8801 4.68862 30.6838 6.31835C31.4875 7.92576 31.8893 9.85688 31.8893 12.1117C31.8893 13.8531 31.6772 15.36 31.253 16.6325C30.8512 17.9051 30.2931 18.9767 29.5787 19.8474C28.8643 20.6957 28.0382 21.3878 27.1006 21.9236C26.1853 22.4371 25.2141 22.8054 24.1872 23.0287C23.1825 23.2519 22.1779 23.3636 21.1733 23.3636H17.8915H13.292Z" fill="#D6FFC8"/>
<path d="M35.4751 23.3636V5.68209H40.9388V23.3636H35.4751Z" fill="#D6FFC8"/>
<path d="M52.1899 29.5588C50.2253 29.5588 48.6067 29.4025 47.3342 29.09C46.084 28.7997 45.1686 28.3532 44.5882 27.7504C44.0077 27.17 43.7175 26.4556 43.7175 25.6072C43.7175 24.5803 44.1194 23.7431 44.9231 23.0957C45.7491 22.4482 46.9547 22.0799 48.5397 21.9906V21.2873C47.3119 21.2873 46.363 21.1645 45.6933 20.919C45.0459 20.6734 44.7221 20.2157 44.7221 19.546C44.7221 18.9209 45.0459 18.3516 45.6933 17.8381C46.3407 17.3246 47.4123 16.9228 48.9081 16.6325V15.9293C47.5463 15.8177 46.4635 15.3712 45.6598 14.5898C44.8561 13.7861 44.4542 12.7368 44.4542 11.442C44.4542 10.348 44.7668 9.35457 45.3919 8.46156C46.017 7.54623 46.9547 6.82067 48.2049 6.28487C49.4551 5.72674 51.0178 5.44767 52.8931 5.44767H62.0687V9.49968L56.4763 8.76295V9.56666C57.9274 9.76758 58.9656 10.1025 59.5907 10.5713C60.2158 11.0401 60.5283 11.6987 60.5283 12.5471C60.5283 13.4401 60.2158 14.2326 59.5907 14.9247C58.9879 15.6168 58.1284 16.1637 57.0121 16.5656C55.8959 16.9451 54.5675 17.1349 53.0271 17.1349C52.7592 17.1349 52.4578 17.1237 52.1229 17.1014C51.8104 17.0791 51.2187 17.0232 50.3481 16.9339C49.9909 17.2465 49.7118 17.5144 49.5109 17.7376C49.31 17.9386 49.2095 18.1283 49.2095 18.3069C49.2095 18.4409 49.2653 18.5525 49.3769 18.6418C49.4886 18.7311 49.6448 18.7981 49.8458 18.8427C50.069 18.8651 50.3034 18.8762 50.549 18.8762H55.9405C56.387 18.8762 56.9675 18.9097 57.6819 18.9767C58.4186 19.0213 59.1442 19.1888 59.8586 19.479C60.5953 19.7692 61.2092 20.2381 61.7004 20.8855C62.2139 21.5329 62.4706 22.4594 62.4706 23.665C62.4706 24.9821 62.1022 26.0761 61.3655 26.9467C60.6288 27.8397 59.5014 28.4983 57.9832 28.9225C56.4651 29.3467 54.534 29.5588 52.1899 29.5588ZM52.8931 25.2724C54.188 25.2724 55.1926 25.2054 55.907 25.0714C56.6214 24.9375 57.1126 24.7254 57.3805 24.4352C57.6707 24.1449 57.8158 23.7877 57.8158 23.3636C57.8158 22.9617 57.7377 22.6492 57.5814 22.4259C57.4251 22.1803 57.2242 22.0129 56.9786 21.9236C56.733 21.8343 56.4763 21.7785 56.2084 21.7562C55.9628 21.7338 55.7507 21.7227 55.5721 21.7227H51.2522C50.4262 21.7227 49.8123 21.9236 49.4104 22.3254C49.0309 22.705 48.8411 23.1515 48.8411 23.665C48.8411 24.0891 48.9751 24.4128 49.243 24.6361C49.5109 24.8817 49.9351 25.0491 50.5155 25.1384C51.1183 25.2277 51.9108 25.2724 52.8931 25.2724ZM52.6587 14.4559C53.6187 14.4559 54.3331 14.1991 54.8019 13.6856C55.2931 13.1722 55.5387 12.5247 55.5387 11.7434C55.5387 10.895 55.2931 10.2029 54.8019 9.66712C54.3108 9.10899 53.6075 8.82993 52.6922 8.82993C51.7769 8.82993 51.0625 9.10899 50.549 9.66712C50.0355 10.2029 49.7788 10.895 49.7788 11.7434C49.7788 12.2568 49.8904 12.7257 50.1137 13.1498C50.3369 13.5517 50.6606 13.8754 51.0848 14.121C51.509 14.3442 52.0336 14.4559 52.6587 14.4559Z" fill="#D6FFC8"/>
<path d="M65.4704 23.3636V5.68209H70.9219V23.3636H65.4704Z" fill="#D6FFC8"/>
<path d="M82.2134 23.8324C81.0302 23.8324 79.9586 23.7208 78.9986 23.4975C78.0386 23.2966 77.2014 22.9952 76.487 22.5934C75.7726 22.1915 75.181 21.7115 74.7122 21.1534C74.2657 20.5729 73.9531 19.9367 73.7745 19.2446L77.793 17.4697C77.9493 17.8493 78.2172 18.24 78.5967 18.6418C78.9986 19.0213 79.5232 19.3339 80.1706 19.5795C80.8404 19.825 81.6441 19.9478 82.5817 19.9478C83.4748 19.9478 84.1668 19.825 84.658 19.5795C85.1715 19.3116 85.4282 18.932 85.4282 18.4409C85.4282 18.0837 85.2831 17.8046 84.9929 17.6037C84.725 17.3804 84.3119 17.1907 83.7538 17.0344C83.1957 16.8558 82.5036 16.6884 81.6776 16.5321C80.8292 16.3535 79.9697 16.1526 79.099 15.9293C78.2284 15.6837 77.4135 15.36 76.6544 14.9582C75.8954 14.534 75.2814 13.987 74.8126 13.3173C74.3661 12.6252 74.1429 11.7545 74.1429 10.7052C74.1429 9.61131 74.4331 8.66249 75.0135 7.85879C75.594 7.03276 76.4535 6.38533 77.5921 5.9165C78.753 5.44767 80.1595 5.21326 81.8115 5.21326C83.285 5.21326 84.5798 5.40302 85.6961 5.78255C86.8124 6.16208 87.7388 6.70904 88.4756 7.42345C89.2346 8.11552 89.7593 8.95271 90.0495 9.93502L85.7296 11.4755C85.618 10.9843 85.3836 10.5601 85.0264 10.2029C84.6915 9.84572 84.2561 9.57782 83.7203 9.39922C83.2069 9.19829 82.5929 9.09783 81.8785 9.09783C81.0078 9.09783 80.3269 9.23178 79.8358 9.49968C79.3669 9.76758 79.1325 10.1248 79.1325 10.5713C79.1325 10.9285 79.2888 11.2299 79.6014 11.4755C79.9362 11.6987 80.4051 11.8885 81.0078 12.0447C81.6106 12.201 82.325 12.3685 83.151 12.5471C84.0217 12.7257 84.8812 12.9377 85.7296 13.1833C86.6003 13.4066 87.3817 13.7191 88.0737 14.121C88.7881 14.5005 89.3463 15.014 89.7481 15.6614C90.1723 16.2865 90.3844 17.1014 90.3844 18.106C90.3844 19.2892 90.0718 20.3162 89.4467 21.1869C88.8216 22.0352 87.8951 22.6938 86.6672 23.1626C85.4617 23.6091 83.9771 23.8324 82.2134 23.8324Z" fill="#D6FFC8"/>
<path d="M101.791 23.8324C100.005 23.8324 98.4197 23.4864 97.0356 22.7943C95.6738 22.1022 94.6022 21.0641 93.8208 19.6799C93.0394 18.2958 92.6487 16.5656 92.6487 14.4893C92.6487 12.4131 93.0394 10.6941 93.8208 9.33224C94.6022 7.94808 95.6849 6.92113 97.0691 6.25138C98.4532 5.5593 100.038 5.21326 101.824 5.21326C103.61 5.21326 105.195 5.5593 106.58 6.25138C107.964 6.94346 109.046 7.98157 109.828 9.36573C110.609 10.7276 111 12.4466 111 14.5228C111 16.6437 110.598 18.3962 109.794 19.7804C108.991 21.1645 107.886 22.1915 106.479 22.8613C105.095 23.5087 103.532 23.8324 101.791 23.8324ZM101.958 19.9143C102.762 19.9143 103.432 19.7357 103.968 19.3785C104.503 18.999 104.905 18.4297 105.173 17.6707C105.441 16.9116 105.575 15.974 105.575 14.8577C105.575 13.6745 105.43 12.681 105.14 11.8773C104.849 11.0513 104.414 10.4262 103.834 10.002C103.275 9.55549 102.55 9.33224 101.657 9.33224C100.898 9.33224 100.239 9.522 99.6811 9.90153C99.1453 10.2587 98.7435 10.8169 98.4756 11.5759C98.2077 12.335 98.0737 13.2838 98.0737 14.4224C98.0737 16.253 98.4086 17.626 99.0783 18.5413C99.7704 19.4567 100.73 19.9143 101.958 19.9143Z" fill="#D6FFC8"/>
<path d="M11.4654 1.16797L0 14.4853H10.3188L9.17231 23.3633L20.6377 10.0461H10.3188L11.4654 1.16797Z" fill="#FEFEFE"/>
<rect x="35.4873" width="5.45148" height="4.2833" rx="2.14165" fill="#D6FFC8"/>
<rect x="65.4707" width="5.45148" height="4.2833" rx="2.14165" fill="#D6FFC8"/>
</svg>
