<svg width="140" height="140" viewBox="0 0 140 140" fill="none" xmlns="http://www.w3.org/2000/svg">
<path d="M66.8795 9.43156V0.970947H69.0012L73.0647 7.26513H73.1804L73.0775 0.970947H74.6592V9.43156H72.7303L68.4869 2.89381H68.3583L68.4611 9.43156H66.8795Z" fill="#10171D"/>
<path d="M76.9886 9.83315L78.2841 1.47169L79.8981 1.72021L78.6025 10.0817L76.9886 9.83315ZM78.0307 9.99361L78.2348 8.67605L83.4579 9.4803L83.2538 10.7979L78.0307 9.99361ZM78.594 6.35764L78.7825 5.14143L83.3829 5.8498L83.1944 7.06601L78.594 6.35764ZM79.1221 2.94971L79.3262 1.63215L84.5239 2.43249L84.3198 3.75005L79.1221 2.94971Z" fill="#10171D"/>
<path d="M85.4495 11.4357L89.4883 8.27279L88.047 3.38098L89.8614 3.95341L90.7935 7.72994L90.8549 7.74928L93.809 5.19884L95.6357 5.77515L91.6331 8.90912L93.1486 13.8647L91.3342 13.2922L90.3233 9.42366L90.262 9.40432L87.2639 12.0081L85.4495 11.4357Z" fill="#10171D"/>
<path d="M96.4519 15.6134L100.218 8.03133L101.681 8.75372L97.9154 16.3358L96.4519 15.6134ZM97.3486 8.14568L97.9591 6.91646L103.951 9.87428L103.341 11.1035L97.3486 8.14568Z" fill="#10171D"/>
<path d="M104.601 17.141L105.445 15.9457L108.421 18.0328L107.578 19.2281L104.601 17.141Z" fill="#10171D"/>
<path d="M112.168 26.9098C111.668 26.4298 111.327 25.8832 111.146 25.2702C110.97 24.6631 110.991 24.019 111.208 23.3379C111.426 22.6568 111.87 21.9684 112.542 21.2726C113.029 20.7676 113.528 20.3804 114.038 20.1107C114.555 19.8349 115.073 19.68 115.594 19.6458C116.12 19.6056 116.634 19.6894 117.136 19.8974C117.643 20.0993 118.137 20.4314 118.619 20.8936C118.983 21.2432 119.269 21.6004 119.476 21.9652C119.695 22.3297 119.836 22.6957 119.897 23.0632C119.959 23.4307 119.942 23.7876 119.845 24.134C119.749 24.4803 119.57 24.8071 119.309 25.1143L117.876 24.3801C118.132 24.0912 118.277 23.7922 118.314 23.4833C118.357 23.1802 118.315 22.8849 118.188 22.5972C118.067 22.3154 117.886 22.059 117.646 21.8279C117.293 21.4901 116.916 21.2767 116.515 21.1876C116.113 21.0986 115.686 21.1521 115.235 21.3481C114.784 21.544 114.312 21.8976 113.819 22.4087C113.444 22.7966 113.161 23.1707 112.967 23.531C112.78 23.8851 112.675 24.2226 112.65 24.5434C112.632 24.858 112.686 25.1592 112.813 25.4469C112.946 25.7284 113.139 25.9907 113.392 26.2336C113.683 26.5122 113.98 26.7029 114.285 26.8059C114.597 26.9148 114.915 26.9238 115.241 26.833C115.573 26.7481 115.905 26.5574 116.239 26.2609L114.998 25.0697L115.836 24.2015L118.236 26.5038L115.231 29.6165L114.378 28.7987L115.995 27.2719L115.837 27.1208C115.376 27.4136 114.937 27.6094 114.521 27.708C114.11 27.8005 113.71 27.7839 113.32 27.6584C112.935 27.5267 112.551 27.2772 112.168 26.9098Z" fill="#10171D"/>
<path d="M116.785 31.6658L123.535 26.5367L124.525 27.8315L117.775 32.9605L116.785 31.6658ZM117.425 32.5017L118.488 31.6935L121.692 35.8836L120.629 36.6919L117.425 32.5017ZM120.36 30.2714L121.341 29.5253L124.163 33.2159L123.182 33.962L120.36 30.2714ZM123.111 28.1809L124.174 27.3727L127.363 31.5424L126.299 32.3506L123.111 28.1809Z" fill="#10171D"/>
<path d="M121.778 38.6885L129.234 34.6467L130.247 36.5049L126.642 43.0705L126.697 43.1719L132.195 40.0749L132.95 41.4601L125.494 45.5019L124.573 43.8126L128.307 36.9731L128.246 36.8604L122.533 40.0737L121.778 38.6885Z" fill="#10171D"/>
<path d="M129.384 59.5906C129.278 59.0453 129.238 58.5481 129.265 58.0991C129.282 57.6517 129.371 57.2558 129.531 56.9115C129.701 56.5739 129.931 56.2945 130.22 56.0733C130.517 55.8504 130.883 55.6925 131.319 55.5995L132.01 56.9284C131.605 56.9981 131.284 57.1471 131.049 57.3753C130.823 57.602 130.678 57.8911 130.615 58.2427C130.554 58.6027 130.566 58.9966 130.649 59.4245C130.729 59.8356 130.846 60.1698 131.001 60.4272C131.158 60.6929 131.334 60.8808 131.53 60.9909C131.734 61.0993 131.946 61.1324 132.165 61.0901C132.409 61.0429 132.585 60.9174 132.694 60.7136C132.811 60.5081 132.887 60.2454 132.921 59.9254C132.965 59.6123 132.992 59.2588 133.003 58.865C133.015 58.436 133.038 58.0138 133.07 57.5983C133.105 57.1912 133.184 56.8104 133.307 56.4558C133.43 56.1011 133.616 55.7997 133.864 55.5514C134.123 55.3099 134.475 55.146 134.921 55.0598C135.426 54.9622 135.884 55.0042 136.295 55.1859C136.714 55.366 137.071 55.6757 137.366 56.1148C137.671 56.5608 137.889 57.1193 138.02 57.7905C138.149 58.4533 138.16 59.0517 138.055 59.5857C137.957 60.1182 137.746 60.5594 137.422 60.9095C137.097 61.2596 136.679 61.4926 136.169 61.6087L135.484 60.2395C135.761 60.1858 135.992 60.0933 136.176 59.962C136.37 59.8374 136.518 59.6782 136.62 59.4844C136.731 59.2889 136.797 59.0672 136.818 58.8193C136.842 58.5798 136.825 58.3132 136.768 58.0195C136.701 57.6755 136.596 57.3825 136.453 57.1403C136.311 56.9065 136.143 56.7387 135.949 56.6371C135.763 56.5337 135.56 56.5032 135.341 56.5455C135.072 56.5976 134.877 56.7398 134.756 56.972C134.636 57.2043 134.557 57.4938 134.519 57.8405C134.492 58.194 134.47 58.5769 134.454 58.9891C134.449 59.3645 134.426 59.7431 134.387 60.125C134.35 60.5154 134.273 60.8828 134.156 61.2274C134.04 61.572 133.848 61.8658 133.581 62.109C133.324 62.3589 132.969 62.5278 132.514 62.6157C132.026 62.71 131.571 62.663 131.151 62.4745C130.73 62.286 130.368 61.9512 130.064 61.4701C129.761 60.989 129.535 60.3625 129.384 59.5906Z" fill="#10171D"/>
<path d="M130.389 67.4148L138.869 67.0907L138.932 68.7176L130.451 69.0416L130.389 67.4148ZM137.398 64.6326L138.773 64.58L139.029 71.2411L137.654 71.2936L137.398 64.6326Z" fill="#10171D"/>
<path d="M129.771 77.7881C129.842 77.1769 130.003 76.6448 130.254 76.1919C130.505 75.739 130.833 75.3639 131.239 75.0664C131.652 74.7785 132.137 74.5762 132.694 74.4597C133.251 74.3431 133.875 74.3245 134.564 74.4039C135.561 74.5186 136.363 74.783 136.971 75.197C137.587 75.6121 138.023 76.1354 138.278 76.7669C138.532 77.3984 138.616 78.092 138.529 78.8476C138.461 79.4334 138.301 79.9527 138.05 80.4056C137.808 80.8594 137.48 81.2303 137.067 81.5183C136.662 81.8158 136.171 82.026 135.596 82.1491C135.029 82.2731 134.393 82.2945 133.686 82.2131C132.979 82.1318 132.364 81.9664 131.841 81.7169C131.325 81.4768 130.899 81.1655 130.564 80.7828C130.237 80.401 130.003 79.9569 129.864 79.4505C129.731 78.9535 129.701 78.3994 129.771 77.7881ZM131.07 77.9763C131.014 78.4602 131.082 78.8767 131.275 79.2258C131.475 79.5843 131.786 79.8739 132.21 80.0947C132.632 80.3239 133.162 80.4753 133.801 80.5488C134.457 80.6243 135.029 80.5998 135.518 80.4755C136.007 80.3511 136.391 80.1328 136.668 79.8207C136.954 79.518 137.124 79.1247 137.18 78.6408C137.233 78.1824 137.16 77.7696 136.961 77.4026C136.77 77.045 136.454 76.7506 136.015 76.5194C135.584 76.2892 135.041 76.1364 134.385 76.0609C133.891 76.004 133.447 76.0045 133.052 76.0623C132.665 76.121 132.334 76.2291 132.057 76.3865C131.778 76.5523 131.555 76.7675 131.386 77.032C131.217 77.3049 131.111 77.6197 131.07 77.9763Z" fill="#10171D"/>
<path d="M128.807 84.0645L136.991 86.3064L136.122 89.4584C136.004 89.8869 135.858 90.2682 135.686 90.6021C135.52 90.9466 135.334 91.2367 135.126 91.4724C134.917 91.7163 134.687 91.9059 134.436 92.0411C134.194 92.1785 133.931 92.2616 133.647 92.2903C133.372 92.3212 133.082 92.2948 132.776 92.211C132.486 92.1318 132.234 92.014 132.02 91.8577C131.813 91.7036 131.648 91.5122 131.525 91.2833C131.399 91.0627 131.315 90.8006 131.275 90.4969C131.24 90.2038 131.246 89.8733 131.295 89.5053L131.133 89.4612C130.979 89.8267 130.799 90.1096 130.593 90.3101C130.384 90.5188 130.135 90.6634 129.846 90.7438C129.557 90.8242 129.204 90.8647 128.786 90.8654L126.926 90.8877L127.4 89.1695L129.092 89.2211C129.444 89.2375 129.74 89.1946 129.981 89.0924C130.221 88.9984 130.413 88.8474 130.56 88.6393C130.706 88.4312 130.825 88.1624 130.915 87.8327L131.304 86.4236L128.378 85.6219L128.807 84.0645ZM132.507 86.7531L132.098 88.2364C131.927 88.8544 131.914 89.3559 132.056 89.7406C132.197 90.1337 132.507 90.3959 132.987 90.5272C133.466 90.6586 133.865 90.5994 134.182 90.3496C134.498 90.1081 134.743 89.6701 134.918 89.0356L135.334 87.5276L132.507 86.7531Z" fill="#10171D"/>
<path d="M125.199 94.5742L127.64 95.6649L134.201 95.2394L133.412 96.9941L128.692 96.992L128.666 97.0505L131.813 100.55L131.029 102.293L126.995 97.1609L124.531 96.0597L125.199 94.5742Z" fill="#10171D"/>
<path d="M120.815 102.676L127.939 107.275L127.051 108.642L119.928 104.043L120.815 102.676ZM128.154 104.421L129.309 105.166L125.674 110.762L124.519 110.016L128.154 104.421Z" fill="#10171D"/>
<path d="M116.397 108.739L122.733 114.368L121.647 115.583L115.311 109.954L116.397 108.739ZM115.696 109.523L116.694 110.41L113.178 114.344L112.179 113.457L115.696 109.523ZM118.451 111.971L119.372 112.79L116.275 116.254L115.354 115.435L118.451 111.971ZM121.033 114.265L122.032 115.152L118.532 119.067L117.534 118.18L121.033 114.265Z" fill="#10171D"/>
<path d="M109.654 115.601L115.054 122.128L113.804 123.156L108.404 116.628L109.654 115.601ZM109.366 115.837L110.25 116.905L106.42 120.054L105.537 118.986L109.366 115.837Z" fill="#10171D"/>
<path d="M102.198 121.144L106.535 128.416L105.142 129.242L100.805 121.969L102.198 121.144ZM101.878 121.334L102.587 122.524L98.3208 125.052L97.6111 123.862L101.878 121.334Z" fill="#10171D"/>
<path d="M92.7341 125.987L95.9066 133.835L94.38 134.448L91.2074 126.601L92.7341 125.987Z" fill="#10171D"/>
<path d="M86.1777 128.299L88.1115 136.537L86.0456 137.019L80.6504 131.813L80.5377 131.84L82.0765 137.945L80.5365 138.304L78.6027 130.066L80.4808 129.628L86.1069 135.03L86.2321 135.001L84.6377 128.658L86.1777 128.299Z" fill="#10171D"/>
<path d="M73.7192 130.208C74.4115 130.155 75.0476 130.265 75.6275 130.538C76.1988 130.811 76.6672 131.255 77.0327 131.87C77.3982 132.485 77.618 133.274 77.6922 134.237C77.746 134.936 77.7041 135.564 77.5666 136.124C77.4298 136.691 77.2009 137.18 76.88 137.59C76.5597 138.009 76.155 138.336 75.6658 138.57C75.1772 138.814 74.5996 138.961 73.9329 139.012C73.4286 139.05 72.971 139.025 72.5601 138.937C72.1413 138.857 71.7737 138.718 71.4575 138.52C71.1413 138.321 70.8856 138.071 70.6903 137.768C70.4951 137.466 70.3692 137.116 70.3127 136.717L71.8159 136.139C71.8625 136.522 71.9893 136.829 72.1964 137.062C72.3949 137.295 72.6441 137.46 72.9439 137.557C73.2352 137.655 73.5475 137.691 73.8808 137.666C74.368 137.628 74.7787 137.49 75.1127 137.25C75.4467 137.01 75.6904 136.657 75.8437 136.191C75.9969 135.725 76.0463 135.139 75.9919 134.431C75.9505 133.894 75.8592 133.434 75.7179 133.051C75.5772 132.676 75.3948 132.373 75.1707 132.141C74.9471 131.918 74.6855 131.758 74.3857 131.661C74.0865 131.573 73.7617 131.542 73.4113 131.569C73.0095 131.6 72.6686 131.694 72.3885 131.853C72.0998 132.012 71.8812 132.243 71.7326 132.546C71.5754 132.849 71.4967 133.224 71.4967 133.67L73.2147 133.538L73.3073 134.74L69.9865 134.994L69.6548 130.686L70.8344 130.596L70.9021 132.815L71.1201 132.798C71.2076 132.26 71.353 131.804 71.5562 131.428C71.7601 131.061 72.0389 130.774 72.3926 130.567C72.7471 130.368 73.1892 130.249 73.7192 130.208Z" fill="#10171D"/>
<path d="M55.3916 133.247L56.3819 134.373L54.8323 135.236L54.8339 135.341L56.4936 135.979L55.7463 137.305L54.3989 136.069L54.3246 136.105L54.2391 137.875L52.7491 137.528L53.4606 135.903L53.3972 135.836L51.6896 136.359L51.5604 134.828L53.3314 134.991L53.3769 134.909L52.3627 133.435L53.7514 132.864L54.1644 134.593L54.2646 134.616L55.3916 133.247Z" fill="#10171D"/>
<path d="M40.3173 122.969L39.6339 124.115L37.5007 122.85C37.0585 122.588 36.6346 122.471 36.229 122.499C35.8159 122.523 35.4299 122.677 35.0708 122.961C34.7044 123.241 34.3679 123.638 34.0612 124.153C33.8028 124.586 33.6272 124.989 33.5347 125.362C33.4347 125.73 33.4177 126.068 33.4837 126.375C33.5452 126.69 33.6853 126.982 33.904 127.251C34.1227 127.52 34.4199 127.766 34.7958 127.988L36.6638 129.095L35.9804 130.241L34.1566 129.16C33.2944 128.649 32.6761 128.089 32.3017 127.479C31.9199 126.865 31.7599 126.214 31.8218 125.525C31.8719 124.839 32.1204 124.121 32.5673 123.372C32.8827 122.843 33.2257 122.41 33.5963 122.073C33.9625 121.743 34.3401 121.494 34.729 121.327C35.1135 121.167 35.5043 121.081 35.9012 121.067C36.2981 121.054 36.6886 121.102 37.0728 121.21C37.4452 121.321 37.8046 121.48 38.1509 121.685L40.3173 122.969ZM41.0026 123.375L36.6656 130.647L35.2729 129.822L39.6099 122.55L41.0026 123.375Z" fill="#10171D"/>
<path d="M31.3457 116.887L25.9459 123.414L24.6761 122.37L30.0759 115.843L31.3457 116.887Z" fill="#10171D"/>
<path d="M24.0855 109.659C24.5475 110.176 24.8454 110.747 24.9794 111.372C25.1076 111.991 25.0372 112.631 24.7683 113.294C24.4993 113.956 24.0032 114.609 23.28 115.251C22.7552 115.718 22.2282 116.066 21.6988 116.296C21.163 116.531 20.6342 116.646 20.1124 116.641C19.5841 116.64 19.0781 116.518 18.5944 116.272C18.1043 116.032 17.6368 115.663 17.1919 115.166C16.8554 114.789 16.5979 114.411 16.4194 114.032C16.2289 113.652 16.117 113.276 16.0837 112.905C16.0505 112.534 16.0953 112.179 16.218 111.841C16.3407 111.503 16.5439 111.191 16.8276 110.905L18.1999 111.746C17.9233 112.015 17.7549 112.302 17.6948 112.607C17.629 112.906 17.6482 113.203 17.7526 113.5C17.8512 113.79 18.0117 114.06 18.2341 114.308C18.5592 114.672 18.9187 114.914 19.3126 115.033C19.7064 115.152 20.1357 115.132 20.6004 114.971C21.065 114.81 21.563 114.493 22.0942 114.021C22.4974 113.663 22.8091 113.312 23.0293 112.967C23.2432 112.628 23.3745 112.3 23.4232 111.982C23.4655 111.67 23.4345 111.365 23.3302 111.069C23.2195 110.778 23.0472 110.502 22.8133 110.24C22.5452 109.94 22.2631 109.727 21.9667 109.601C21.6647 109.469 21.3479 109.436 21.0162 109.501C20.6788 109.561 20.3323 109.725 19.9767 109.996L21.1231 111.278L20.2207 112.08L18.0049 109.601L21.2401 106.727L22.0272 107.607L20.2979 109.006L20.4434 109.169C20.9257 108.912 21.3783 108.75 21.8011 108.684C22.2175 108.623 22.6155 108.67 22.9952 108.825C23.3684 108.986 23.7319 109.264 24.0855 109.659Z" fill="#10171D"/>
<path d="M18.9335 103.159L11.8098 107.757L10.9151 106.38L18.0388 101.781L18.9335 103.159Z" fill="#10171D"/>
<path d="M14.4025 94.9446L6.65817 98.4056L5.99012 96.92L13.7345 93.459L14.4025 94.9446ZM8.94471 100.137L7.68918 100.698L4.95385 94.6156L6.20938 94.0545L8.94471 100.137Z" fill="#10171D"/>
<path d="M11.98 88.9675L3.01952 88.3912L2.38915 86.1044L9.79584 81.0442L10.2661 82.75L3.93112 86.812L3.97882 86.9851L11.5132 87.2741L11.98 88.9675ZM9.88138 87.9339L8.77783 88.2362L7.36036 83.094L8.4639 82.7917L9.88138 87.9339Z" fill="#10171D"/>
<path d="M9.58747 78.5794L1.15652 79.5497L0.970703 77.9451L9.40166 76.9749L9.58747 78.5794ZM9.54471 78.2101L8.16509 78.3689L7.59586 73.4533L8.97547 73.2946L9.54471 78.2101Z" fill="#10171D"/>
<path d="M9.51807 61.4547L1.74456 56.9746L2.19748 54.6464L11.0874 53.388L10.7495 55.1246L3.26438 55.9626L3.23011 56.1388L9.85348 59.7306L9.51807 61.4547ZM8.09747 59.6L6.97395 59.3828L7.99242 54.1476L9.11594 54.3648L8.09747 59.6Z" fill="#10171D"/>
<path d="M12.9398 48.965C12.7051 49.6165 12.3443 50.1502 11.8574 50.5661C11.3735 50.974 10.7753 51.2184 10.063 51.2993C9.35066 51.3803 8.53866 51.2575 7.62696 50.9311C6.96538 50.6942 6.40683 50.3989 5.95133 50.0451C5.48775 49.6884 5.13384 49.2802 4.88958 48.8205C4.63725 48.3578 4.50379 47.856 4.48919 47.315C4.46652 46.7712 4.5682 46.1855 4.79422 45.5582C4.96518 45.0836 5.17524 44.6776 5.42439 44.34C5.66836 43.9915 5.94594 43.714 6.25713 43.5076C6.56833 43.3012 6.90216 43.171 7.25863 43.1171C7.6151 43.0631 7.98729 43.0919 8.37518 43.2036L8.28927 44.8073C7.92041 44.6934 7.58712 44.683 7.28939 44.7762C6.99457 44.8613 6.74142 45.0204 6.52994 45.2534C6.32136 45.4784 6.16057 45.7477 6.04756 46.0614C5.88239 46.5199 5.84125 46.9501 5.92415 47.3521C6.00704 47.7541 6.23042 48.1201 6.59428 48.4501C6.95814 48.7802 7.47489 49.0651 8.14454 49.3048C8.65283 49.4868 9.11138 49.592 9.52018 49.6203C9.92092 49.6457 10.273 49.6038 10.5766 49.4946C10.872 49.3824 11.1255 49.2098 11.337 48.9768C11.5404 48.7409 11.7015 48.4581 11.8203 48.1283C11.9565 47.7503 12.0093 47.4014 11.9787 47.0817C11.951 46.754 11.829 46.4606 11.6127 46.2015C11.3992 45.9344 11.0885 45.7097 10.6805 45.5273L10.0981 47.1439L8.96051 46.7366L10.0863 43.6119L14.1647 45.0721L13.7648 46.1821L11.7059 45.3359L11.632 45.541C12.0888 45.8408 12.4475 46.1599 12.7081 46.4984C12.9606 46.834 13.1093 47.205 13.1542 47.6116C13.1909 48.0152 13.1195 48.4663 12.9398 48.965Z" fill="#10171D"/>
<path d="M15.4045 42.8191L7.94861 38.7773L8.72877 37.347L16.1847 41.3888L15.4045 42.8191ZM15.9082 41.8956L14.7334 41.2587L17.2581 36.6302L18.433 37.267L15.9082 41.8956ZM12.666 40.1381L11.5816 39.5502L13.8053 35.4734L14.8898 36.0613L12.666 40.1381ZM9.6272 38.4907L8.45234 37.8538L10.9648 33.2478L12.1397 33.8847L9.6272 38.4907Z" fill="#10171D"/>
<path d="M19.7907 35.4053L13.0411 30.2763L14.3273 28.5941L21.812 29.1882L21.8821 29.0964L16.7985 25.3623L17.7573 24.1083L24.5069 29.2374L23.3376 30.7666L15.5495 30.1676L15.4715 30.2695L20.7495 34.1513L19.7907 35.4053Z" fill="#10171D"/>
<path d="M28.5082 25.7192C28.0449 26.1637 27.5687 26.496 27.0794 26.7164C26.5842 26.9306 26.0851 27.0298 25.5822 27.0142C25.0733 26.9924 24.5637 26.8527 24.0533 26.5951C23.5429 26.3376 23.0469 25.9594 22.5654 25.4606C22.0661 24.9434 21.6912 24.4195 21.4407 23.8888C21.1963 23.3523 21.067 22.824 21.0528 22.3039C21.0326 21.7777 21.1301 21.2749 21.3455 20.7955C21.5609 20.316 21.8847 19.8689 22.3171 19.4541C22.6506 19.1341 23.0011 18.8809 23.3684 18.6945C23.7358 18.5081 24.1046 18.4033 24.4749 18.3802C24.8454 18.3449 25.2053 18.3911 25.5545 18.5187C25.8977 18.64 26.2181 18.8486 26.5155 19.1444L25.6987 20.4797C25.4373 20.1967 25.1557 20.0221 24.8539 19.9559C24.552 19.8897 24.2576 19.9052 23.9708 20.0025C23.6902 20.0938 23.4387 20.2461 23.2163 20.4595C23.0186 20.6491 22.8596 20.8788 22.7392 21.1485C22.625 21.4122 22.574 21.7044 22.586 22.025C22.598 22.3455 22.6944 22.6919 22.8752 23.064C23.0501 23.43 23.3337 23.8162 23.726 24.2226C24.2254 24.7398 24.7037 25.0875 25.1611 25.2654C25.6246 25.4375 26.0635 25.473 26.4777 25.3722C26.8922 25.2592 27.2692 25.0397 27.609 24.7138C27.9549 24.3819 28.1643 24.0505 28.2374 23.7195C28.3045 23.3823 28.2744 23.0553 28.1471 22.7386C28.0139 22.4157 27.8227 22.1129 27.5734 21.8301L28.7713 21.0189C29.0742 21.345 29.3161 21.6941 29.4969 22.0663C29.6777 22.4384 29.7703 22.824 29.7748 23.223C29.7854 23.6161 29.6897 24.0222 29.4876 24.4414C29.2856 24.8607 28.9591 25.2866 28.5082 25.7192Z" fill="#10171D"/>
<path d="M34.6409 20.5521L33.1021 18.3712L27.2445 15.3945L28.8221 14.2883L32.8781 16.6945L32.9307 16.6577L32.0195 12.0463L33.5867 10.9474L34.4231 17.4136L35.9767 19.6154L34.6409 20.5521Z" fill="#10171D"/>
<path d="M49.5943 8.27656L48.1658 7.81293L49.0555 6.2818L48.9999 6.19176L47.2466 6.48943L47.2089 4.96852L49.0007 5.34443L49.0465 5.27621L48.2123 3.71075L49.6712 3.25049L49.8924 5.00933L49.9815 5.03501L51.181 3.71536L52.077 4.96552L50.4711 5.72762L50.4737 5.82091L52.1012 6.57136L51.2003 7.76988L49.9591 6.49419L49.8611 6.52514L49.5943 8.27656Z" fill="#10171D"/>
</svg>
