<svg width="151" height="151" viewBox="0 0 151 151" fill="none" xmlns="http://www.w3.org/2000/svg">
<path d="M71.8763 9.22666V0H74.1901L78.6215 6.86407H78.7477L78.6355 0H80.3604V9.22666H78.2569L73.6292 2.09697H73.489L73.6011 9.22666H71.8763Z" fill="white"/>
<path d="M82.9007 9.6646L84.3135 0.54608L86.0736 0.817098L84.6608 9.93562L82.9007 9.6646ZM84.0371 9.83959L84.2597 8.40273L89.9558 9.27981L89.7332 10.7167L84.0371 9.83959ZM84.6515 5.87442L84.857 4.54809L89.8739 5.32059L89.6684 6.64692L84.6515 5.87442ZM85.2273 2.15793L85.4499 0.721068L91.1183 1.59387L90.8956 3.03073L85.2273 2.15793Z" fill="white"/>
<path d="M92.1276 11.4122L96.5321 7.96296L94.9603 2.62824L96.939 3.2525L97.9556 7.37097L98.0224 7.39206L101.244 4.6107L103.236 5.23918L98.8711 8.65691L100.524 14.0611L98.5451 13.4369L97.4428 9.21803L97.3759 9.19694L94.1064 12.0365L92.1276 11.4122Z" fill="white"/>
<path d="M104.126 15.9683L108.233 7.69964L109.829 8.48744L105.722 16.756L104.126 15.9683ZM105.104 7.82435L105.77 6.48383L112.305 9.70946L111.639 11.05L105.104 7.82435Z" fill="white"/>
<path d="M113.014 17.6341L113.933 16.3305L117.179 18.6067L116.26 19.9102L113.014 17.6341Z" fill="white"/>
<path d="M121.266 28.2874C120.72 27.7639 120.348 27.1679 120.15 26.4994C119.959 25.8373 119.982 25.1349 120.219 24.3921C120.456 23.6494 120.941 22.8986 121.673 22.1398C122.205 21.5891 122.749 21.1668 123.305 20.8727C123.868 20.572 124.433 20.403 125.001 20.3658C125.576 20.3218 126.136 20.4133 126.683 20.6401C127.236 20.8603 127.775 21.2224 128.3 21.7265C128.698 22.1078 129.009 22.4973 129.235 22.8951C129.474 23.2926 129.627 23.6917 129.695 24.0925C129.762 24.4933 129.743 24.8825 129.638 25.2603C129.533 25.638 129.338 25.9943 129.053 26.3293L127.491 25.5287C127.769 25.2136 127.928 24.8875 127.968 24.5506C128.014 24.2202 127.968 23.8981 127.83 23.5843C127.699 23.277 127.501 22.9974 127.239 22.7453C126.855 22.377 126.444 22.1442 126.005 22.0471C125.567 21.9501 125.102 22.0084 124.61 22.2221C124.119 22.4358 123.604 22.8214 123.066 23.3787C122.657 23.8018 122.348 24.2098 122.137 24.6027C121.933 24.9889 121.818 25.3569 121.791 25.7067C121.771 26.0499 121.831 26.3783 121.969 26.692C122.114 26.9991 122.324 27.2851 122.6 27.55C122.917 27.8538 123.242 28.0618 123.574 28.1741C123.914 28.2928 124.261 28.3027 124.616 28.2036C124.978 28.111 125.341 27.9031 125.705 27.5797L124.351 26.2807L125.265 25.3339L127.882 27.8446L124.605 31.2391L123.676 30.3473L125.439 28.6823L125.267 28.5175C124.764 28.8369 124.285 29.0503 123.831 29.1579C123.384 29.2587 122.947 29.2407 122.521 29.1038C122.102 28.9602 121.683 28.6881 121.266 28.2874Z" fill="white"/>
<path d="M126.301 33.474L133.661 27.8805L134.741 29.2925L127.38 34.886L126.301 33.474ZM126.998 34.3856L128.158 33.5043L131.652 38.0738L130.492 38.9552L126.998 34.3856ZM130.199 31.9534L131.269 31.1398L134.347 35.1645L133.276 35.9781L130.199 31.9534ZM133.199 29.6736L134.359 28.7922L137.836 33.3395L136.676 34.2209L133.199 29.6736Z" fill="white"/>
<path d="M131.745 41.1326L139.876 36.7249L140.981 38.7513L137.049 45.9113L137.11 46.0219L143.105 42.6445L143.929 44.1551L135.798 48.5629L134.793 46.7207L138.866 39.2618L138.799 39.139L132.569 42.6432L131.745 41.1326Z" fill="white"/>
<path d="M140.041 63.9272C139.925 63.3325 139.881 62.7903 139.91 62.3006C139.929 61.8127 140.026 61.381 140.201 61.0055C140.386 60.6373 140.636 60.3326 140.951 60.0914C141.275 59.8483 141.675 59.6761 142.151 59.5747L142.904 61.0239C142.462 61.1 142.112 61.2624 141.856 61.5114C141.609 61.7585 141.451 62.0738 141.383 62.4572C141.317 62.8498 141.329 63.2794 141.419 63.746C141.507 64.1944 141.635 64.5588 141.804 64.8395C141.974 65.1293 142.166 65.3342 142.38 65.4542C142.603 65.5725 142.834 65.6086 143.073 65.5625C143.339 65.511 143.531 65.3741 143.65 65.1518C143.778 64.9277 143.86 64.6413 143.897 64.2924C143.945 63.9508 143.975 63.5653 143.986 63.1359C144 62.668 144.025 62.2076 144.06 61.7545C144.098 61.3105 144.184 60.8952 144.318 60.5085C144.452 60.1218 144.655 59.7931 144.926 59.5223C145.208 59.2589 145.592 59.0802 146.079 58.9861C146.629 58.8797 147.129 58.9255 147.577 59.1237C148.034 59.3201 148.423 59.6578 148.745 60.1367C149.078 60.623 149.315 61.2321 149.458 61.9641C149.598 62.6869 149.611 63.3395 149.496 63.9219C149.39 64.5025 149.16 64.9837 148.805 65.3655C148.451 65.7473 147.996 66.0014 147.44 66.128L146.692 64.6349C146.995 64.5763 147.247 64.4754 147.447 64.3322C147.659 64.1963 147.82 64.0227 147.932 63.8114C148.052 63.5982 148.124 63.3564 148.148 63.0861C148.173 62.8248 148.155 62.5341 148.092 62.2139C148.019 61.8387 147.905 61.5191 147.749 61.255C147.594 61.0001 147.411 60.8171 147.199 60.7062C146.996 60.5935 146.775 60.5603 146.537 60.6064C146.243 60.6632 146.03 60.8182 145.899 61.0715C145.767 61.3248 145.681 61.6405 145.64 62.0187C145.61 62.4041 145.587 62.8217 145.57 63.2712C145.564 63.6806 145.539 64.0935 145.496 64.51C145.455 64.9357 145.371 65.3364 145.245 65.7122C145.118 66.088 144.909 66.4084 144.617 66.6736C144.337 66.9461 143.949 67.1303 143.454 67.2261C142.921 67.3291 142.426 67.2777 141.967 67.0722C141.508 66.8666 141.113 66.5015 140.782 65.9768C140.451 65.4522 140.204 64.769 140.041 63.9272Z" fill="white"/>
<path d="M141.136 72.4598L150.384 72.1064L150.452 73.8805L141.204 74.2339L141.136 72.4598ZM148.78 69.4257L150.279 69.3684L150.558 76.6325L149.059 76.6898L148.78 69.4257Z" fill="white"/>
<path d="M140.462 83.7723C140.54 83.1057 140.715 82.5255 140.989 82.0316C141.262 81.5377 141.62 81.1286 142.063 80.8042C142.513 80.4902 143.042 80.2696 143.65 80.1425C144.257 80.0154 144.937 79.9952 145.689 80.0817C146.776 80.2068 147.651 80.4951 148.314 80.9467C148.986 81.3993 149.461 81.97 149.739 82.6587C150.017 83.3474 150.108 84.1037 150.013 84.9277C149.939 85.5665 149.765 86.1329 149.491 86.6268C149.227 87.1217 148.869 87.5262 148.419 87.8403C147.977 88.1647 147.442 88.394 146.815 88.5282C146.197 88.6634 145.502 88.6867 144.731 88.598C143.961 88.5093 143.29 88.3289 142.719 88.0568C142.156 87.7951 141.692 87.4555 141.327 87.0381C140.97 86.6218 140.716 86.1375 140.563 85.5852C140.419 85.0432 140.385 84.4389 140.462 83.7723ZM141.879 83.9775C141.817 84.5053 141.892 84.9595 142.102 85.3401C142.32 85.7311 142.66 86.047 143.121 86.2878C143.582 86.5378 144.16 86.7029 144.857 86.783C145.572 86.8653 146.196 86.8386 146.73 86.703C147.263 86.5674 147.681 86.3293 147.984 85.9889C148.295 85.6589 148.481 85.2299 148.542 84.7022C148.6 84.2023 148.521 83.7522 148.303 83.3519C148.094 82.962 147.751 82.6409 147.272 82.3888C146.802 82.1377 146.209 81.971 145.494 81.8887C144.956 81.8267 144.471 81.8272 144.04 81.8902C143.619 81.9543 143.257 82.0722 142.955 82.2438C142.651 82.4247 142.408 82.6593 142.224 82.9477C142.039 83.2454 141.924 83.5887 141.879 83.9775Z" fill="white"/>
<path d="M139.411 90.617L148.335 93.0619L147.388 96.4993C147.259 96.9666 147.101 97.3823 146.913 97.7466C146.732 98.1222 146.528 98.4386 146.302 98.6956C146.074 98.9616 145.823 99.1684 145.55 99.3158C145.285 99.4657 144.999 99.5563 144.689 99.5876C144.389 99.6213 144.072 99.5925 143.739 99.5011C143.423 99.4147 143.149 99.2862 142.914 99.1158C142.689 98.9478 142.509 98.739 142.374 98.4894C142.237 98.2488 142.146 97.963 142.102 97.6318C142.064 97.3122 142.071 96.9517 142.124 96.5505L141.948 96.5023C141.78 96.9009 141.583 97.2095 141.358 97.4281C141.131 97.6557 140.859 97.8134 140.544 97.901C140.229 97.9887 139.844 98.0329 139.388 98.0337L137.36 98.058L137.876 96.1842L139.722 96.2405C140.105 96.2584 140.428 96.2116 140.692 96.1002C140.953 95.9977 141.163 95.833 141.322 95.606C141.482 95.3791 141.611 95.0859 141.71 94.7264L142.134 93.1897L138.943 92.3155L139.411 90.617ZM143.445 93.549L143 95.1666C142.814 95.8406 142.799 96.3875 142.955 96.8071C143.108 97.2357 143.446 97.5216 143.969 97.6649C144.492 97.8081 144.926 97.7435 145.273 97.4712C145.617 97.2078 145.884 96.7302 146.075 96.0382L146.528 94.3936L143.445 93.549Z" fill="white"/>
<path d="M135.476 102.078L138.138 103.268L145.293 102.804L144.433 104.717L139.285 104.715L139.257 104.779L142.689 108.595L141.834 110.496L137.435 104.899L134.748 103.698L135.476 102.078Z" fill="white"/>
<path d="M130.695 110.914L138.464 115.929L137.496 117.42L129.727 112.404L130.695 110.914ZM138.699 112.816L139.958 113.63L135.994 119.731L134.735 118.918L138.699 112.816Z" fill="white"/>
<path d="M125.877 117.525L132.787 123.664L131.602 124.989L124.692 118.851L125.877 117.525ZM125.112 118.381L126.201 119.348L122.366 123.638L121.278 122.67L125.112 118.381ZM128.117 121.05L129.122 121.943L125.744 125.721L124.739 124.828L128.117 121.05ZM130.933 123.552L132.022 124.52L128.206 128.788L127.117 127.821L130.933 123.552Z" fill="white"/>
<path d="M118.524 125.009L124.412 132.127L123.049 133.248L117.16 126.129L118.524 125.009ZM118.21 125.267L119.173 126.431L114.997 129.865L114.034 128.7L118.21 125.267Z" fill="white"/>
<path d="M110.393 131.053L115.122 138.984L113.604 139.884L108.874 131.953L110.393 131.053ZM110.043 131.26L110.817 132.558L106.164 135.316L105.39 134.018L110.043 131.26Z" fill="white"/>
<path d="M100.072 136.336L103.532 144.894L101.867 145.562L98.4069 137.005L100.072 136.336Z" fill="white"/>
<path d="M92.9218 138.857L95.0307 147.84L92.7777 148.366L86.8941 142.689L86.7712 142.718L88.4493 149.376L86.7698 149.768L84.6609 140.784L86.7091 140.306L92.8446 146.197L92.9812 146.165L91.2424 139.248L92.9218 138.857Z" fill="white"/>
<path d="M79.3353 140.939C80.0903 140.881 80.784 141.001 81.4164 141.298C82.0394 141.596 82.5502 142.081 82.9488 142.751C83.3474 143.422 83.5871 144.282 83.668 145.332C83.7266 146.094 83.681 146.78 83.5311 147.39C83.3818 148.009 83.1322 148.542 82.7823 148.989C82.433 149.446 81.9916 149.802 81.4581 150.058C80.9253 150.323 80.2954 150.483 79.5683 150.539C79.0184 150.581 78.5193 150.554 78.0712 150.457C77.6145 150.371 77.2137 150.219 76.8688 150.003C76.5239 149.786 76.2451 149.513 76.0322 149.183C75.8192 148.854 75.682 148.472 75.6204 148.037L77.2596 147.407C77.3105 147.824 77.4488 148.159 77.6746 148.413C77.8911 148.667 78.1628 148.847 78.4898 148.953C78.8074 149.06 79.148 149.099 79.5115 149.071C80.0429 149.031 80.4907 148.88 80.8549 148.618C81.2192 148.356 81.4849 147.971 81.6521 147.463C81.8192 146.955 81.8731 146.315 81.8137 145.544C81.7686 144.959 81.669 144.457 81.5149 144.039C81.3615 143.63 81.1626 143.299 80.9182 143.047C80.6744 142.804 80.389 142.629 80.0621 142.523C79.7359 142.427 79.3817 142.393 78.9995 142.422C78.5614 142.456 78.1896 142.559 77.8841 142.732C77.5693 142.906 77.3309 143.158 77.1688 143.488C76.9973 143.819 76.9116 144.227 76.9115 144.713L78.7851 144.57L78.886 145.88L75.2647 146.158L74.9029 141.46L76.1893 141.362L76.2631 143.782L76.5008 143.763C76.5963 143.177 76.7548 142.678 76.9764 142.269C77.1988 141.869 77.5028 141.556 77.8886 141.33C78.2751 141.113 78.7573 140.983 79.3353 140.939Z" fill="white"/>
<path d="M59.3483 144.252L60.4282 145.48L58.7383 146.421L58.74 146.537L60.55 147.232L59.7351 148.678L58.2657 147.33L58.1846 147.369L58.0914 149.3L56.4665 148.921L57.2424 147.149L57.1733 147.076L55.3111 147.646L55.1701 145.977L57.1015 146.154L57.1512 146.065L56.0451 144.458L57.5596 143.835L58.0099 145.72L58.1192 145.746L59.3483 144.252Z" fill="white"/>
<path d="M42.9091 133.044L42.1639 134.294L39.8374 132.915C39.3553 132.629 38.893 132.501 38.4506 132.532C38.0002 132.558 37.5792 132.726 37.1876 133.036C36.788 133.341 36.421 133.774 36.0866 134.335C35.8047 134.808 35.6133 135.247 35.5124 135.653C35.4034 136.055 35.3848 136.424 35.4567 136.759C35.5239 137.102 35.6767 137.421 35.9152 137.714C36.1536 138.007 36.4778 138.275 36.8876 138.518L38.9248 139.725L38.1795 140.975L36.1906 139.796C35.2504 139.239 34.5761 138.628 34.1677 137.963C33.7514 137.293 33.5769 136.583 33.6444 135.831C33.6991 135.083 33.9701 134.3 34.4574 133.483C34.8013 132.906 35.1754 132.434 35.5796 132.066C35.9789 131.707 36.3907 131.436 36.8148 131.253C37.2342 131.079 37.6603 130.985 38.0931 130.97C38.526 130.956 38.9519 131.007 39.3708 131.126C39.777 131.247 40.1689 131.42 40.5466 131.644L42.9091 133.044ZM43.6565 133.487L38.9268 141.418L37.408 140.518L42.1377 132.587L43.6565 133.487Z" fill="white"/>
<path d="M33.1252 126.411L27.2365 133.53L25.8517 132.391L31.7404 125.273L33.1252 126.411Z" fill="white"/>
<path d="M25.2076 118.529C25.7115 119.093 26.0364 119.715 26.1825 120.397C26.3223 121.072 26.2456 121.77 25.9523 122.493C25.6589 123.215 25.1179 123.927 24.3293 124.628C23.757 125.136 23.1821 125.516 22.6048 125.766C22.0206 126.023 21.4439 126.149 20.8748 126.143C20.2987 126.142 19.7469 126.009 19.2194 125.741C18.6849 125.479 18.1751 125.077 17.6899 124.534C17.3229 124.124 17.0421 123.711 16.8475 123.298C16.6397 122.883 16.5176 122.473 16.4814 122.069C16.4452 121.664 16.494 121.277 16.6278 120.909C16.7616 120.54 16.9833 120.2 17.2926 119.887L18.7891 120.805C18.4875 121.098 18.3039 121.411 18.2383 121.744C18.1665 122.069 18.1875 122.394 18.3013 122.718C18.4089 123.034 18.5839 123.328 18.8265 123.599C19.181 123.996 19.5731 124.259 20.0026 124.389C20.4321 124.52 20.9002 124.497 21.407 124.321C21.9137 124.146 22.4567 123.801 23.036 123.286C23.4757 122.895 23.8157 122.512 24.0559 122.137C24.2891 121.767 24.4323 121.409 24.4854 121.062C24.5315 120.722 24.4977 120.39 24.3839 120.066C24.2632 119.749 24.0753 119.448 23.8203 119.163C23.5279 118.836 23.2202 118.603 22.897 118.466C22.5677 118.322 22.2221 118.285 21.8604 118.357C21.4925 118.422 21.1146 118.601 20.7268 118.896L21.9771 120.295L20.993 121.169L18.5765 118.466L22.1046 115.331L22.9629 116.291L21.0771 117.817L21.2358 117.994C21.7618 117.714 22.2553 117.538 22.7164 117.465C23.1705 117.399 23.6046 117.45 24.0186 117.619C24.4256 117.795 24.822 118.098 25.2076 118.529Z" fill="white"/>
<path d="M19.5891 111.44L11.8205 116.455L10.8448 114.953L18.6134 109.938L19.5891 111.44Z" fill="white"/>
<path d="M14.648 102.482L6.20242 106.257L5.47389 104.636L13.9194 100.862L14.648 102.482ZM8.69598 108.145L7.32678 108.757L4.34379 102.123L5.713 101.511L8.69598 108.145Z" fill="white"/>
<path d="M12.0061 95.964L2.23432 95.3354L1.54688 92.8416L9.62419 87.3233L10.137 89.1835L3.22846 93.6133L3.28048 93.802L11.497 94.1172L12.0061 95.964ZM9.71746 94.8367L8.514 95.1664L6.96819 89.5587L8.17165 89.229L9.71746 94.8367Z" fill="white"/>
<path d="M9.39695 84.6353L0.202637 85.6934L0 83.9436L9.19431 82.8854L9.39695 84.6353ZM9.35031 84.2325L7.84578 84.4057L7.22501 79.0451L8.72953 78.8719L9.35031 84.2325Z" fill="white"/>
<path d="M9.32126 65.9601L0.84392 61.0743L1.33785 58.5354L11.0327 57.1629L10.6642 59.0569L2.50136 59.9707L2.46398 60.1629L9.68704 64.0799L9.32126 65.9601ZM7.77204 63.9375L6.54679 63.7006L7.65747 57.9914L8.88272 58.2283L7.77204 63.9375Z" fill="white"/>
<path d="M13.0528 52.3395C12.7968 53.05 12.4034 53.632 11.8724 54.0856C11.3446 54.5304 10.6923 54.7969 9.91551 54.8852C9.1387 54.9735 8.25317 54.8396 7.25893 54.4836C6.53744 54.2253 5.92833 53.9032 5.43158 53.5174C4.92603 53.1285 4.54007 52.6833 4.2737 52.1819C3.99853 51.6774 3.85298 51.1301 3.83706 50.5402C3.81234 49.947 3.92322 49.3084 4.1697 48.6242C4.35615 48.1067 4.58522 47.6639 4.85693 47.2958C5.12299 46.9157 5.42571 46.6131 5.76508 46.388C6.10444 46.1629 6.4685 46.021 6.85725 45.9621C7.246 45.9032 7.65188 45.9347 8.07489 46.0564L7.9812 47.8054C7.57895 47.6812 7.21548 47.6699 6.8908 47.7715C6.56928 47.8643 6.2932 48.0378 6.06258 48.2919C5.83512 48.5373 5.65977 48.831 5.53652 49.173C5.3564 49.673 5.31154 50.1422 5.40194 50.5806C5.49234 51.0189 5.73594 51.4181 6.13274 51.778C6.52955 52.138 7.09309 52.4487 7.82337 52.7101C8.37769 52.9086 8.87775 53.0233 9.32357 53.0542C9.76058 53.0819 10.1446 53.0362 10.4756 52.917C10.7978 52.7947 11.0742 52.6065 11.3048 52.3524C11.5267 52.0951 11.7023 51.7867 11.8319 51.4271C11.9804 51.0148 12.038 50.6344 12.0047 50.2857C11.9745 49.9283 11.8415 49.6084 11.6055 49.3258C11.3727 49.0345 11.0339 48.7894 10.589 48.5905L9.95382 50.3536L8.71322 49.9094L9.94091 46.5017L14.3886 48.0942L13.9525 49.3046L11.7072 48.3819L11.6266 48.6055C12.1247 48.9324 12.5159 49.2804 12.8001 49.6496C13.0755 50.0156 13.2377 50.4202 13.2866 50.8635C13.3267 51.3037 13.2487 51.7957 13.0528 52.3395Z" fill="white"/>
<path d="M15.7407 45.6371L7.6097 41.2294L8.4605 39.6697L16.5915 44.0774L15.7407 45.6371ZM16.29 44.6301L15.0088 43.9355L17.7621 38.8879L19.0434 39.5824L16.29 44.6301ZM12.7543 42.7134L11.5716 42.0722L13.9967 37.6264L15.1794 38.2675L12.7543 42.7134ZM9.44028 40.9169L8.15903 40.2223L10.899 35.1992L12.1802 35.8938L9.44028 40.9169Z" fill="white"/>
<path d="M20.524 37.5521L13.1632 31.9587L14.5659 30.1242L22.7283 30.7721L22.8048 30.672L17.2608 26.5998L18.3065 25.2323L25.6672 30.8257L24.392 32.4934L15.8988 31.8402L15.8138 31.9514L21.5696 36.1846L20.524 37.5521Z" fill="white"/>
<path d="M30.0308 26.989C29.5256 27.4737 29.0062 27.8362 28.4726 28.0765C27.9326 28.31 27.3883 28.4183 26.8399 28.4012C26.2849 28.3774 25.7291 28.2251 25.1725 27.9442C24.6159 27.6634 24.0751 27.251 23.55 26.707C23.0054 26.143 22.5965 25.5716 22.3233 24.9929C22.0569 24.4078 21.9159 23.8317 21.9003 23.2645C21.8783 22.6906 21.9847 22.1423 22.2196 21.6195C22.4544 21.0966 22.8076 20.609 23.2791 20.1567C23.6429 19.8077 24.0251 19.5315 24.4257 19.3283C24.8263 19.125 25.2285 19.0107 25.6323 18.9855C26.0364 18.9471 26.4288 18.9974 26.8096 19.1365C27.184 19.2689 27.5333 19.4964 27.8577 19.819L26.9669 21.2751C26.6819 20.9665 26.3748 20.776 26.0456 20.7038C25.7164 20.6316 25.3954 20.6486 25.0826 20.7547C24.7765 20.8543 24.5023 21.0204 24.2598 21.2531C24.0442 21.4599 23.8708 21.7103 23.7395 22.0044C23.615 22.2921 23.5593 22.6107 23.5724 22.9603C23.5855 23.3099 23.6906 23.6876 23.8878 24.0934C24.0785 24.4925 24.3878 24.9137 24.8156 25.3569C25.3602 25.921 25.8818 26.3001 26.3806 26.4941C26.8861 26.6818 27.3647 26.7206 27.8165 26.6105C28.2684 26.4874 28.6797 26.248 29.0501 25.8926C29.4274 25.5307 29.6558 25.1692 29.7355 24.8082C29.8087 24.4405 29.7758 24.0839 29.637 23.7385C29.4917 23.3864 29.2832 23.0562 29.0114 22.7478L30.3177 21.8631C30.6481 22.2188 30.9119 22.5995 31.109 23.0054C31.3062 23.4112 31.4072 23.8317 31.4121 24.2668C31.4237 24.6954 31.3193 25.1384 31.0989 25.5956C30.8786 26.0527 30.5225 26.5172 30.0308 26.989Z" fill="white"/>
<path d="M36.7188 21.354L35.0406 18.9757L28.6526 15.7295L30.3731 14.5231L34.7964 17.1472L34.8537 17.107L33.86 12.0781L35.5691 10.8797L36.4812 17.9314L38.1755 20.3326L36.7188 21.354Z" fill="white"/>
<path d="M53.0261 7.96708L51.4682 7.46147L52.4385 5.7917L52.3779 5.69351L50.4658 6.01814L50.4247 4.35952L52.3787 4.76947L52.4286 4.69507L51.519 2.98787L53.11 2.48593L53.3511 4.40403L53.4483 4.43203L54.7565 2.99289L55.7335 4.35625L53.9822 5.18735L53.9851 5.28909L55.7599 6.10749L54.7775 7.41452L53.4239 6.02333L53.317 6.05708L53.0261 7.96708Z" fill="white"/>
</svg>
