<svg width="180" height="180" viewBox="0 0 180 180" fill="none" xmlns="http://www.w3.org/2000/svg">
<path d="M85.9317 11.0309V0H88.698L93.9959 8.20634H94.1468L94.0127 0H96.0749V11.0309H93.56L88.0274 2.50703H87.8597L87.9939 11.0309H85.9317Z" fill="#18212A"/>
<path d="M99.1119 11.5545L100.801 0.652867L102.905 0.976882L101.216 11.8785L99.1119 11.5545ZM100.471 11.7637L100.737 10.0459L107.547 11.0945L107.28 12.8123L100.471 11.7637ZM101.205 7.02316L101.451 5.43746L107.449 6.36103L107.203 7.94673L101.205 7.02316ZM101.894 2.57991L102.16 0.862073L108.936 1.90556L108.67 3.62339L101.894 2.57991Z" fill="#18212A"/>
<path d="M110.143 13.6439L115.409 9.52012L113.53 3.14219L115.895 3.88853L117.111 8.81236L117.191 8.83758L121.042 5.51232L123.424 6.2637L118.205 10.3498L120.181 16.8108L117.816 16.0645L116.498 11.0206L116.418 10.9954L112.509 14.3902L110.143 13.6439Z" fill="#18212A"/>
<path d="M124.488 19.0908L129.398 9.20531L131.306 10.1472L126.396 20.0327L124.488 19.0908ZM125.657 9.3544L126.453 7.75175L134.266 11.6081L133.47 13.2108L125.657 9.3544Z" fill="#18212A"/>
<path d="M135.113 21.0824L136.213 19.524L140.094 22.2452L138.994 23.8036L135.113 21.0824Z" fill="#18212A"/>
<path d="M144.979 33.819C144.327 33.1931 143.882 32.4806 143.646 31.6813C143.417 30.8898 143.444 30.05 143.728 29.162C144.011 28.274 144.591 27.3764 145.466 26.4692C146.102 25.8109 146.752 25.3059 147.417 24.9544C148.09 24.5948 148.766 24.3928 149.445 24.3483C150.132 24.2958 150.802 24.4051 151.455 24.6763C152.117 24.9395 152.761 25.3724 153.389 25.9751C153.865 26.431 154.237 26.8967 154.507 27.3722C154.793 27.8474 154.976 28.3246 155.056 28.8038C155.137 29.283 155.114 29.7483 154.988 30.1999C154.863 30.6515 154.63 31.0775 154.29 31.478L152.421 30.5208C152.754 30.1441 152.944 29.7543 152.992 29.3515C153.047 28.9564 152.993 28.5713 152.827 28.1962C152.67 27.8289 152.434 27.4945 152.12 27.1932C151.661 26.7528 151.17 26.4745 150.646 26.3585C150.122 26.2424 149.566 26.3121 148.978 26.5676C148.39 26.8231 147.774 27.2841 147.131 27.9504C146.643 28.4562 146.273 28.944 146.021 29.4137C145.777 29.8754 145.639 30.3154 145.608 30.7337C145.584 31.1439 145.655 31.5366 145.82 31.9117C145.993 32.2787 146.245 32.6207 146.575 32.9374C146.953 33.3006 147.342 33.5493 147.739 33.6835C148.145 33.8255 148.56 33.8373 148.985 33.7188C149.418 33.6081 149.852 33.3595 150.287 32.9729L148.668 31.4199L149.761 30.2879L152.89 33.2897L148.972 37.348L147.86 36.2817L149.968 34.2911L149.763 34.0941C149.162 34.4759 148.589 34.7311 148.047 34.8597C147.511 34.9803 146.989 34.9587 146.48 34.7951C145.979 34.6234 145.479 34.298 144.979 33.819Z" fill="#18212A"/>
<path d="M150.999 40.0198L159.799 33.3326L161.09 35.0207L152.29 41.7079L150.999 40.0198ZM151.832 41.1098L153.219 40.056L157.396 45.5191L156.01 46.5728L151.832 41.1098ZM155.659 38.2018L156.939 37.2291L160.618 42.0409L159.338 43.0136L155.659 38.2018ZM159.246 35.4763L160.632 34.4225L164.789 39.859L163.403 40.9128L159.246 35.4763Z" fill="#18212A"/>
<path d="M157.508 49.1761L167.229 43.9064L168.55 46.3291L163.85 54.8893L163.922 55.0214L171.089 50.9837L172.074 52.7897L162.354 58.0594L161.152 55.8569L166.021 46.9395L165.941 46.7926L158.493 50.9821L157.508 49.1761Z" fill="#18212A"/>
<path d="M167.425 76.4282C167.287 75.7172 167.235 75.0689 167.269 74.4835C167.292 73.9002 167.408 73.3841 167.617 72.9351C167.839 72.495 168.138 72.1307 168.514 71.8422C168.902 71.5517 169.38 71.3458 169.948 71.2245L170.849 72.9572C170.32 73.0481 169.902 73.2423 169.596 73.5399C169.301 73.8354 169.112 74.2123 169.03 74.6708C168.951 75.1401 168.966 75.6537 169.074 76.2116C169.178 76.7476 169.331 77.1833 169.533 77.5189C169.737 77.8653 169.967 78.1103 170.223 78.2538C170.489 78.3952 170.765 78.4384 171.051 78.3832C171.369 78.3217 171.599 78.158 171.741 77.8923C171.894 77.6244 171.992 77.2819 172.036 76.8647C172.093 76.4564 172.129 75.9955 172.143 75.4821C172.159 74.9228 172.189 74.3723 172.231 73.8306C172.276 73.2998 172.379 72.8033 172.539 72.341C172.7 71.8786 172.942 71.4856 173.266 71.1619C173.604 70.847 174.063 70.6333 174.644 70.5209C175.303 70.3936 175.9 70.4484 176.435 70.6854C176.982 70.9202 177.448 71.3239 177.832 71.8965C178.23 72.4779 178.514 73.2061 178.684 74.0812C178.852 74.9453 178.868 75.7255 178.73 76.4218C178.603 77.116 178.328 77.6913 177.904 78.1477C177.481 78.6042 176.936 78.908 176.271 79.0593L175.378 77.2742C175.74 77.2042 176.041 77.0836 176.281 76.9124C176.534 76.7499 176.727 76.5424 176.86 76.2897C177.004 76.0348 177.09 75.7458 177.118 75.4225C177.148 75.1102 177.126 74.7626 177.052 74.3798C176.964 73.9313 176.828 73.5492 176.641 73.2334C176.456 72.9286 176.237 72.7099 175.984 72.5773C175.741 72.4426 175.477 72.4028 175.192 72.458C174.841 72.5259 174.587 72.7112 174.429 73.0141C174.272 73.3169 174.169 73.6943 174.12 74.1464C174.085 74.6073 174.056 75.1065 174.036 75.6439C174.029 76.1333 173.999 76.627 173.948 77.125C173.899 77.6339 173.799 78.1129 173.647 78.5622C173.495 79.0115 173.245 79.3946 172.897 79.7116C172.562 80.0375 172.098 80.2577 171.506 80.3722C170.869 80.4953 170.277 80.4339 169.728 80.1882C169.179 79.9424 168.707 79.5059 168.312 78.8786C167.917 78.2513 167.621 77.4345 167.425 76.4282Z" fill="#18212A"/>
<path d="M168.735 86.6293L179.792 86.2068L179.873 88.3279L168.816 88.7504L168.735 86.6293ZM177.873 83.0019L179.666 82.9334L180 91.618L178.207 91.6865L177.873 83.0019Z" fill="#18212A"/>
<path d="M167.93 100.154C168.022 99.3571 168.232 98.6634 168.559 98.0729C168.886 97.4824 169.314 96.9933 169.843 96.6055C170.381 96.23 171.014 95.9663 171.74 95.8144C172.467 95.6625 173.28 95.6382 174.179 95.7417C175.478 95.8912 176.524 96.2359 177.317 96.7758C178.12 97.3169 178.688 97.9992 179.02 98.8226C179.353 99.646 179.462 100.55 179.348 101.535C179.259 102.299 179.051 102.976 178.724 103.567C178.408 104.158 177.981 104.642 177.442 105.017C176.914 105.405 176.274 105.679 175.524 105.84C174.785 106.002 173.955 106.029 173.034 105.923C172.112 105.817 171.31 105.602 170.628 105.276C169.955 104.963 169.4 104.557 168.963 104.058C168.537 103.561 168.233 102.982 168.05 102.321C167.878 101.673 167.838 100.951 167.93 100.154ZM169.623 100.399C169.55 101.03 169.639 101.573 169.89 102.028C170.151 102.496 170.557 102.874 171.109 103.161C171.659 103.46 172.351 103.658 173.184 103.753C174.039 103.852 174.785 103.82 175.423 103.658C176.06 103.496 176.56 103.211 176.922 102.804C177.294 102.409 177.517 101.897 177.59 101.266C177.659 100.668 177.564 100.13 177.304 99.6514C177.054 99.1852 176.643 98.8014 176.07 98.4999C175.509 98.1998 174.801 98.0005 173.946 97.9021C173.302 97.828 172.722 97.8286 172.207 97.9039C171.703 97.9805 171.271 98.1214 170.909 98.3266C170.547 98.5428 170.256 98.8233 170.036 99.1682C169.814 99.5241 169.677 99.9345 169.623 100.399Z" fill="#18212A"/>
<path d="M166.673 108.337L177.342 111.26L176.209 115.37C176.055 115.928 175.866 116.425 175.642 116.861C175.425 117.31 175.182 117.688 174.912 117.996C174.639 118.314 174.339 118.561 174.012 118.737C173.696 118.916 173.353 119.025 172.984 119.062C172.625 119.102 172.246 119.068 171.847 118.959C171.47 118.855 171.141 118.702 170.861 118.498C170.592 118.297 170.377 118.047 170.216 117.749C170.052 117.461 169.943 117.12 169.89 116.724C169.845 116.342 169.853 115.911 169.916 115.431L169.706 115.373C169.505 115.85 169.27 116.219 169.001 116.48C168.729 116.752 168.404 116.941 168.028 117.046C167.651 117.15 167.19 117.203 166.645 117.204L164.22 117.233L164.838 114.993L167.045 115.06C167.503 115.082 167.889 115.026 168.204 114.893C168.516 114.77 168.767 114.573 168.958 114.302C169.149 114.03 169.303 113.68 169.422 113.25L169.928 111.413L166.113 110.368L166.673 108.337ZM171.496 111.843L170.963 113.776C170.741 114.582 170.723 115.236 170.909 115.738C171.093 116.25 171.497 116.592 172.122 116.763C172.747 116.934 173.267 116.857 173.681 116.532C174.092 116.217 174.412 115.646 174.64 114.818L175.182 112.852L171.496 111.843Z" fill="#18212A"/>
<path d="M161.969 122.04L165.151 123.462L173.705 122.907L172.676 125.195L166.523 125.192L166.488 125.268L170.591 129.831L169.57 132.103L164.311 125.412L161.098 123.977L161.969 122.04Z" fill="#18212A"/>
<path d="M156.253 132.603L165.541 138.599L164.383 140.381L155.096 134.385L156.253 132.603ZM165.821 134.878L167.327 135.85L162.588 143.145L161.082 142.173L165.821 134.878Z" fill="#18212A"/>
<path d="M150.493 140.507L158.753 147.846L157.337 149.431L149.076 142.092L150.493 140.507ZM149.578 141.53L150.88 142.687L146.295 147.815L144.993 146.659L149.578 141.53ZM153.17 144.722L154.372 145.789L150.334 150.306L149.132 149.239L153.17 144.722ZM156.537 147.713L157.839 148.869L153.277 153.973L151.975 152.816L156.537 147.713Z" fill="#18212A"/>
<path d="M141.701 149.454L148.741 157.964L147.111 159.304L140.071 150.794L141.701 149.454ZM141.326 149.763L142.478 151.155L137.485 155.26L136.333 153.867L141.326 149.763Z" fill="#18212A"/>
<path d="M131.98 156.681L137.635 166.163L135.819 167.239L130.164 157.757L131.98 156.681ZM131.562 156.929L132.488 158.48L126.925 161.777L126 160.225L131.562 156.929Z" fill="#18212A"/>
<path d="M119.641 162.996L123.777 173.227L121.787 174.027L117.65 163.796L119.641 162.996Z" fill="#18212A"/>
<path d="M111.093 166.01L113.614 176.751L110.92 177.379L103.886 170.592L103.739 170.626L105.746 178.586L103.738 179.055L101.216 168.314L103.665 167.743L111 174.786L111.164 174.748L109.085 166.478L111.093 166.01Z" fill="#18212A"/>
<path d="M94.8493 168.499C95.752 168.43 96.5813 168.573 97.3374 168.929C98.0823 169.285 98.6929 169.865 99.1695 170.666C99.646 171.468 99.9326 172.496 100.029 173.752C100.099 174.663 100.045 175.483 99.8656 176.212C99.6872 176.952 99.3887 177.589 98.9703 178.124C98.5528 178.67 98.0251 179.096 97.3873 179.402C96.7503 179.719 95.9972 179.911 95.1279 179.977C94.4704 180.027 93.8738 179.995 93.338 179.879C92.792 179.776 92.3128 179.595 91.9005 179.336C91.4882 179.077 91.1548 178.75 90.9003 178.356C90.6457 177.962 90.4816 177.505 90.408 176.986L92.3677 176.232C92.4285 176.731 92.5939 177.131 92.8639 177.435C93.1227 177.739 93.4476 177.954 93.8385 178.081C94.2182 178.208 94.6254 178.255 95.06 178.222C95.6952 178.174 96.2306 177.993 96.6661 177.68C97.1017 177.367 97.4193 176.907 97.6192 176.3C97.819 175.692 97.8834 174.927 97.8124 174.005C97.7585 173.305 97.6394 172.705 97.4552 172.205C97.2718 171.717 97.034 171.321 96.7417 171.02C96.4503 170.729 96.1091 170.52 95.7183 170.394C95.3282 170.278 94.9048 170.238 94.4478 170.273C93.9241 170.313 93.4796 170.437 93.1143 170.644C92.738 170.851 92.4529 171.152 92.2591 171.547C92.0542 171.943 91.9517 172.431 91.9516 173.012L94.1916 172.841L94.3122 174.407L89.9827 174.739L89.5502 169.123L91.0881 169.005L91.1764 171.898L91.4606 171.876C91.5747 171.175 91.7642 170.579 92.0292 170.09C92.295 169.611 92.6585 169.237 93.1197 168.967C93.5818 168.708 94.1583 168.552 94.8493 168.499Z" fill="#18212A"/>
<path d="M70.9539 172.461L72.2449 173.929L70.2246 175.054L70.2267 175.192L72.3905 176.023L71.4163 177.752L69.6595 176.141L69.5626 176.187L69.4512 178.495L67.5086 178.042L68.4362 175.924L68.3535 175.836L66.1272 176.518L65.9587 174.522L68.2677 174.735L68.3271 174.629L67.0048 172.707L68.8154 171.962L69.3538 174.216L69.4844 174.246L70.9539 172.461Z" fill="#18212A"/>
<path d="M51.3 159.061L50.409 160.555L47.6277 158.906C47.0512 158.565 46.4985 158.412 45.9696 158.449C45.4311 158.479 44.9278 158.68 44.4597 159.051C43.9819 159.416 43.5432 159.934 43.1434 160.604C42.8064 161.169 42.5775 161.695 42.4568 162.18C42.3265 162.661 42.3043 163.101 42.3903 163.502C42.4706 163.913 42.6533 164.293 42.9384 164.644C43.2235 164.994 43.611 165.314 44.101 165.605L46.5365 167.048L45.6455 168.542L43.2676 167.133C42.1436 166.467 41.3374 165.736 40.8492 164.942C40.3514 164.141 40.1429 163.291 40.2236 162.393C40.2889 161.498 40.6129 160.563 41.1955 159.586C41.6068 158.896 42.054 158.332 42.5371 157.892C43.0146 157.462 43.5069 157.138 44.014 156.92C44.5153 156.712 45.0248 156.599 45.5423 156.581C46.0597 156.564 46.5689 156.626 47.0698 156.767C47.5553 156.912 48.0239 157.119 48.4754 157.387L51.3 159.061ZM52.1935 159.59L46.539 169.072L44.7232 167.996L50.3777 158.514L52.1935 159.59Z" fill="#18212A"/>
<path d="M39.6028 151.131L32.5627 159.641L30.907 158.28L37.9472 149.77L39.6028 151.131Z" fill="#18212A"/>
<path d="M30.137 141.708C30.7393 142.381 31.1278 143.126 31.3024 143.941C31.4696 144.747 31.3779 145.583 31.0272 146.446C30.6766 147.31 30.0298 148.161 29.0869 148.999C28.4026 149.607 27.7154 150.06 27.0252 150.36C26.3267 150.667 25.6372 150.817 24.9568 150.81C24.2681 150.81 23.6084 150.65 22.9778 150.329C22.3387 150.016 21.7292 149.536 21.1492 148.887C20.7104 148.396 20.3747 147.903 20.142 147.408C19.8936 146.913 19.7477 146.423 19.7043 145.939C19.661 145.455 19.7194 144.993 19.8794 144.552C20.0394 144.112 20.3043 143.705 20.6742 143.331L22.4633 144.428C22.1027 144.778 21.8832 145.153 21.8048 145.551C21.719 145.94 21.7441 146.328 21.8801 146.715C22.0087 147.093 22.218 147.445 22.508 147.769C22.9319 148.243 23.4006 148.558 23.9141 148.714C24.4276 148.87 24.9873 148.842 25.5931 148.633C26.1989 148.423 26.8482 148.01 27.5407 147.395C28.0664 146.928 28.4728 146.47 28.76 146.02C29.0388 145.579 29.21 145.151 29.2735 144.736C29.3287 144.329 29.2882 143.932 29.1522 143.545C29.0079 143.166 28.7832 142.806 28.4783 142.465C28.1288 142.074 27.7609 141.796 27.3746 141.632C26.9808 141.459 26.5677 141.416 26.1352 141.502C25.6954 141.579 25.2436 141.794 24.78 142.146L26.2747 143.818L25.0981 144.863L22.2091 141.632L26.4271 137.884L27.4534 139.032L25.1988 140.856L25.3884 141.068C26.0173 140.733 26.6074 140.523 27.1586 140.436C27.7015 140.357 28.2204 140.418 28.7154 140.62C29.2021 140.829 29.6759 141.192 30.137 141.708Z" fill="#18212A"/>
<path d="M23.4198 133.232L14.132 139.228L12.9655 137.432L22.2533 131.436L23.4198 133.232Z" fill="#18212A"/>
<path d="M17.5124 122.523L7.41531 127.035L6.54431 125.098L16.6414 120.586L17.5124 122.523ZM10.3965 129.293L8.75953 130.024L5.19322 122.094L6.83017 121.362L10.3965 129.293Z" fill="#18212A"/>
<path d="M14.3539 114.73L2.67125 113.978L1.84937 110.997L11.5062 104.399L12.1193 106.623L3.85978 111.919L3.92198 112.145L13.7452 112.522L14.3539 114.73ZM11.6177 113.382L10.1789 113.776L8.33082 107.072L9.76961 106.678L11.6177 113.382Z" fill="#18212A"/>
<path d="M11.2345 101.186L0.242263 102.451L0 100.359L10.9923 99.0937L11.2345 101.186ZM11.1788 100.704L9.38003 100.911L8.63786 94.5024L10.4366 94.2954L11.1788 100.704Z" fill="#18212A"/>
<path d="M11.144 78.8586L1.00895 73.0174L1.59947 69.982L13.1901 68.3412L12.7496 70.6054L2.9905 71.698L2.94581 71.9277L11.5813 76.6107L11.144 78.8586ZM9.29186 76.4405L7.82702 76.1573L9.15489 69.3316L10.6197 69.6148L9.29186 76.4405Z" fill="#18212A"/>
<path d="M15.6053 62.5745C15.2993 63.4239 14.8289 64.1198 14.1941 64.662C13.5631 65.1938 12.7832 65.5125 11.8545 65.618C10.9258 65.7235 9.86708 65.5635 8.67841 65.1379C7.81584 64.8291 7.08761 64.444 6.49372 63.9828C5.88932 63.5177 5.42788 62.9855 5.10942 62.3861C4.78044 61.7829 4.60643 61.1286 4.58739 60.4233C4.55784 59.7142 4.6904 58.9507 4.98509 58.1327C5.20799 57.514 5.48186 56.9846 5.8067 56.5445C6.1248 56.0901 6.48671 55.7283 6.89244 55.4592C7.29817 55.1901 7.73341 55.0204 8.19818 54.95C8.66295 54.8796 9.1482 54.9172 9.65394 55.0628L9.54193 57.1537C9.06101 57.0052 8.62646 56.9917 8.23829 57.1132C7.8539 57.2242 7.52384 57.4316 7.24812 57.7354C6.97618 58.0287 6.76653 58.3799 6.61919 58.7888C6.40384 59.3866 6.35021 59.9475 6.45829 60.4716C6.56637 60.9957 6.85761 61.4729 7.332 61.9032C7.8064 62.3335 8.48015 62.705 9.35324 63.0176C10.0159 63.2549 10.6138 63.392 11.1468 63.4289C11.6693 63.4621 12.1284 63.4074 12.5241 63.265C12.9093 63.1187 13.2398 62.8937 13.5155 62.5899C13.7807 62.2823 13.9907 61.9136 14.1456 61.4836C14.3232 60.9908 14.3921 60.5359 14.3522 60.1191C14.3161 59.6918 14.1571 59.3093 13.875 58.9715C13.5967 58.6232 13.1916 58.3302 12.6597 58.0924L11.9003 60.2002L10.4171 59.6692L11.8849 55.5951L17.2023 57.499L16.6809 58.9462L13.9965 57.843L13.9002 58.1104C14.4957 58.5012 14.9634 58.9172 15.3032 59.3586C15.6324 59.7961 15.8263 60.2799 15.8848 60.8099C15.9327 61.3362 15.8395 61.9244 15.6053 62.5745Z" fill="#18212A"/>
<path d="M18.8188 54.5615L9.09778 49.2918L10.1149 47.4271L19.8359 52.6968L18.8188 54.5615ZM19.4755 53.3575L17.9437 52.5271L21.2355 46.4924L22.7673 47.3228L19.4755 53.3575ZM15.2484 51.066L13.8344 50.2995L16.7337 44.9842L18.1477 45.7507L15.2484 51.066ZM11.2863 48.9182L9.75453 48.0878L13.0303 42.0824L14.5621 42.9128L11.2863 48.9182Z" fill="#18212A"/>
<path d="M24.5374 44.8954L15.7373 38.2082L17.4143 36.015L27.1728 36.7896L27.2643 36.67L20.6362 31.8014L21.8863 30.1665L30.6865 36.8537L29.1619 38.8475L19.0078 38.0665L18.9062 38.1994L25.7876 43.2605L24.5374 44.8954Z" fill="#18212A"/>
<path d="M35.9033 32.2667C35.2993 32.8462 34.6783 33.2796 34.0404 33.5668C33.3948 33.8461 32.7441 33.9755 32.0884 33.9551C31.4249 33.9266 30.7605 33.7445 30.095 33.4087C29.4296 33.0729 28.7829 32.5799 28.1552 31.9296C27.5041 31.2552 27.0153 30.5721 26.6887 29.8803C26.3701 29.1807 26.2015 28.4919 26.183 27.8139C26.1566 27.1278 26.2838 26.4722 26.5646 25.8472C26.8454 25.2221 27.2676 24.6391 27.8314 24.0983C28.2662 23.6811 28.7232 23.3509 29.2021 23.1079C29.6811 22.8649 30.162 22.7283 30.6447 22.6981C31.1278 22.6522 31.597 22.7124 32.0523 22.8787C32.4998 23.0369 32.9175 23.3089 33.3053 23.6946L32.2403 25.4355C31.8995 25.0665 31.5324 24.8388 31.1388 24.7525C30.7452 24.6662 30.3615 24.6864 29.9875 24.8132C29.6216 24.9323 29.2937 25.131 29.0038 25.4091C28.746 25.6564 28.5387 25.9558 28.3818 26.3074C28.2329 26.6513 28.1663 27.0322 28.182 27.4502C28.1976 27.8681 28.3233 28.3197 28.5591 28.8049C28.787 29.2821 29.1568 29.7856 29.6683 30.3155C30.3194 30.9898 30.943 31.443 31.5393 31.6751C32.1437 31.8994 32.7159 31.9458 33.256 31.8142C33.7963 31.667 34.288 31.3808 34.7309 30.9559C35.1819 30.5232 35.455 30.0911 35.5503 29.6595C35.6377 29.2198 35.5985 28.7936 35.4325 28.3806C35.2588 27.9596 35.0095 27.5648 34.6846 27.1961L36.2464 26.1385C36.6413 26.5637 36.9567 27.0189 37.1924 27.5041C37.4281 27.9893 37.5489 28.492 37.5547 29.0122C37.5686 29.5246 37.4438 30.0542 37.1803 30.6008C36.9169 31.1474 36.4912 31.7027 35.9033 32.2667Z" fill="#18212A"/>
<path d="M43.8991 25.5298L41.8928 22.6864L34.2556 18.8055L36.3126 17.3631L41.6008 20.5004L41.6694 20.4523L40.4814 14.44L42.5246 13.0072L43.6151 21.4379L45.6407 24.3087L43.8991 25.5298Z" fill="#18212A"/>
<path d="M63.3953 9.52504L61.5329 8.92056L62.6928 6.92427L62.6204 6.80688L60.3344 7.19499L60.2852 5.21203L62.6214 5.70214L62.6811 5.61319L61.5935 3.57215L63.4956 2.97206L63.784 5.26523L63.9001 5.29872L65.4641 3.57815L66.6322 5.20812L64.5385 6.20174L64.5419 6.32337L66.6638 7.30181L65.4893 8.86443L63.871 7.2012L63.7431 7.24154L63.3953 9.52504Z" fill="#18212A"/>
</svg>
