<svg width="103" height="103" viewBox="0 0 103 103" fill="none" xmlns="http://www.w3.org/2000/svg">
<path d="M101.934 1H1V101.935H101.934V1Z" fill="white" stroke="white" stroke-miterlimit="10"/>
<path d="M50.9631 59.1379C47.1271 59.1379 43.9981 56.009 43.9981 52.174C43.9981 48.338 47.1271 45.209 50.9631 45.209C51.6691 45.209 52.2751 44.6039 52.2751 43.8959C52.2751 43.1899 51.6691 42.585 50.9631 42.585C45.7141 42.585 41.4751 46.824 41.4751 52.072C41.4751 57.321 45.7141 61.5599 50.9631 61.5599C51.6691 61.5599 52.2751 60.9549 52.2751 60.2469C52.2741 59.5419 51.6691 59.1379 50.9631 59.1379Z" fill="#10171D" stroke="white" stroke-miterlimit="10"/>
<path d="M68.0213 52.2749C68.0213 61.6619 60.3503 69.3329 50.9633 69.3329C41.5753 69.3329 33.9043 61.6619 33.9043 52.2749C33.9043 51.5679 33.2983 50.9619 32.5923 50.9619C31.8853 50.9619 31.2793 51.5669 31.2793 52.2749C31.2793 63.0749 40.0603 71.8559 50.8603 71.8559C61.6603 71.8559 70.4413 63.0749 70.4413 52.2749C70.4413 47.3289 68.6253 42.7869 65.5963 39.3549L66.9093 38.0428C67.4143 37.5378 67.4143 36.7299 66.9093 36.2259C66.4043 35.7209 65.5963 35.7209 65.0923 36.2259L63.7803 37.5388C60.3483 34.5108 55.8063 32.6938 50.8603 32.6938C50.1543 32.6938 49.5473 33.2989 49.5473 34.0049C49.5473 34.7119 50.1533 35.3179 50.8603 35.3179C55.0993 35.3179 59.0363 36.8318 61.9633 39.4568L60.1473 41.2729C57.6243 39.1529 54.3943 37.8409 50.8613 37.8409C42.8873 37.8409 36.3273 44.3008 36.3273 52.3748C36.3273 60.3488 42.7873 66.9099 50.8613 66.9099C58.9363 66.9099 65.3963 60.4498 65.3963 52.3748C65.3963 48.8428 64.0833 45.6119 61.9633 43.0889L63.7803 41.2729C66.4053 44.0989 68.0213 47.9349 68.0213 52.2749ZM62.9743 52.2749C62.9743 58.8359 57.6243 64.2859 50.9633 64.2859C44.3013 64.2859 38.9513 58.9359 38.9513 52.2749C38.9513 45.6129 44.4013 40.2628 50.9633 40.2628C53.7893 40.2628 56.4133 41.2728 58.5323 42.8878L53.0823 48.3379C51.4673 47.4299 49.3483 47.6308 47.8333 49.1458C46.1173 50.8618 46.1173 53.6879 47.8333 55.4039C49.5493 57.1199 52.3763 57.1199 54.0923 55.4039C55.5053 53.9909 55.7063 51.8708 54.8993 50.1548L60.3503 44.7049C61.9643 46.7229 62.9743 49.3479 62.9743 52.2749ZM52.2743 53.5858C51.5683 54.2928 50.3563 54.2928 49.5483 53.5858C48.8423 52.8798 48.8423 51.6689 49.5483 50.8609C50.2553 50.1539 51.4663 50.1539 52.2743 50.8609C53.0823 51.6689 53.0823 52.7798 52.2743 53.5858Z" fill="#10171D" stroke="white" stroke-miterlimit="10"/>
<path d="M70.6439 71.8561C71.0479 71.3511 71.048 70.746 70.846 70.342C70.846 70.24 70.8459 70.2401 70.7449 70.2401C70.7449 70.2401 70.7449 70.139 70.6429 70.139C70.5419 70.038 70.5419 70.0381 70.5419 70.0381C70.4399 70.0381 70.5419 70.038 70.4399 69.936C70.3389 69.936 70.4399 69.9361 70.3389 69.8351C70.2379 69.8351 70.2379 69.8351 70.2379 69.8351C70.1359 69.8351 70.1359 69.8351 70.1359 69.8351C69.9349 69.7341 70.035 69.8351 66.301 69.8351C65.594 69.8351 64.9879 70.44 64.9879 71.148C64.9879 71.854 65.594 72.4601 66.301 72.4601H66.502C56.61 79.7281 42.379 79.3241 33.093 70.0381C26.532 63.4771 24.1109 53.889 26.7349 45.006C26.9369 44.3 26.5329 43.5931 25.9269 43.3911C25.3219 43.1901 24.514 43.593 24.312 44.199C21.385 53.99 24.1109 64.588 31.2769 71.755C42.1809 82.655 59.7439 82.7571 70.6439 71.8561Z" fill="#10171D" stroke="white" stroke-miterlimit="10"/>
<path d="M70.544 32.5919C59.643 21.6919 42.08 21.7919 31.28 32.5919L31.179 32.6939L31.077 32.7949L30.976 32.8959C30.976 32.8959 30.976 32.9979 30.874 32.9979V33.0979V33.1989V33.3009C30.874 33.4019 30.874 33.4019 30.874 33.4019V33.5029V33.6049V33.7059V33.8069C30.976 34.0089 31.076 34.2109 31.278 34.3119C31.379 34.3119 31.278 34.3119 31.379 34.4139C31.481 34.4139 31.379 34.4139 31.481 34.5149C31.582 34.5149 31.481 34.5149 31.582 34.5149C31.683 34.5149 31.582 34.5149 31.683 34.5149C31.785 34.5149 31.785 34.5149 31.785 34.5149C31.886 34.5149 31.986 34.5149 31.986 34.5149H35.822C36.528 34.5149 37.135 33.9099 37.135 33.2019C37.135 32.4959 36.529 31.9909 35.822 31.9909H35.419C45.411 24.2189 59.744 25.2279 68.626 34.1109C75.894 41.3779 78.013 52.0769 74.076 61.5649C73.773 62.1699 74.076 62.9779 74.783 63.1789C75.388 63.4829 76.196 63.1789 76.397 62.4729C80.839 52.5769 78.618 40.6669 70.544 32.5919Z" fill="#10171D" stroke="white" stroke-miterlimit="10"/>
<path d="M25.7291 71.1499C23.6101 71.1499 21.894 72.8659 21.894 74.9849C21.894 77.1049 23.6101 78.8209 25.7291 78.8209C27.8491 78.8209 29.5651 77.1049 29.5651 74.9849C29.4631 72.8649 27.8491 71.1499 25.7291 71.1499ZM25.7291 76.1959C25.0231 76.1959 24.4171 75.5889 24.4171 74.8829C24.4171 74.1759 25.0221 73.5699 25.7291 73.5699C26.4361 73.5699 27.0421 74.1749 27.0421 74.8829C27.0411 75.5899 26.4351 76.1959 25.7291 76.1959Z" fill="#10171D" stroke="white" stroke-miterlimit="10"/>
<path d="M25.7291 29.463C27.8491 29.463 29.5651 27.747 29.5651 25.628C29.5651 23.508 27.8491 21.792 25.7291 21.792C23.6101 21.792 21.894 23.508 21.894 25.628C21.893 27.848 23.6091 29.463 25.7291 29.463ZM25.7291 24.416C26.4361 24.416 27.0421 25.021 27.0421 25.729C27.0421 26.435 26.4361 27.042 25.7291 27.042C25.0231 27.042 24.4171 26.436 24.4171 25.729C24.4171 25.022 25.0221 24.416 25.7291 24.416Z" fill="#10171D" stroke="white" stroke-miterlimit="10"/>
<path d="M75.5909 31.9869C78.0129 31.9869 80.0309 29.968 80.0309 27.546C80.0309 25.124 78.0129 23.106 75.5909 23.106C73.1679 23.106 71.1499 25.124 71.1499 27.546C71.1489 30.069 73.1679 31.9869 75.5909 31.9869ZM75.5909 25.7289C76.5999 25.7289 77.5079 26.5369 77.5079 27.6469C77.5079 28.6559 76.7009 29.5649 75.5909 29.5649C74.4809 29.5649 73.6729 28.6559 73.6729 27.6469C73.6729 26.5359 74.4799 25.7289 75.5909 25.7289Z" fill="#10171D" stroke="white" stroke-miterlimit="10"/>
<path d="M76.1958 69.8369C76.9208 69.8369 77.5078 70.4239 77.5078 71.1499C77.5078 71.8749 76.9208 72.4619 76.1958 72.4619C75.4708 72.4619 74.8828 71.8749 74.8828 71.1499C74.8838 70.4239 75.4718 69.8369 76.1958 69.8369Z" fill="#10171D" stroke="white" stroke-miterlimit="10"/>
<path d="M71.1489 77.407C71.8739 77.407 72.4619 77.994 72.4619 78.718C72.4619 79.443 71.8739 80.031 71.1489 80.031C70.4239 80.031 69.8359 79.443 69.8359 78.718C69.8369 77.994 70.4249 77.407 71.1489 77.407Z" fill="#10171D" stroke="white" stroke-miterlimit="10"/>
<path d="M34.5098 77.5081C35.1788 77.5081 35.7218 78.0501 35.7218 78.7191C35.7218 79.3881 35.1788 79.9311 34.5098 79.9311C33.8408 79.9311 33.2988 79.3881 33.2988 78.7191C33.2988 78.0501 33.8408 77.5081 34.5098 77.5081Z" fill="#10171D" stroke="white" stroke-miterlimit="10"/>
<path d="M67.415 23.105C68.14 23.105 68.7271 23.692 68.7271 24.416C68.7271 25.141 68.14 25.729 67.415 25.729C66.69 25.729 66.1021 25.141 66.1021 24.416C66.1021 23.692 66.69 23.105 67.415 23.105Z" fill="#10171D" stroke="white" stroke-miterlimit="10"/>
<path d="M34.5098 24.5181C35.1788 24.5181 35.7218 25.0601 35.7218 25.7291C35.7218 26.3981 35.1788 26.9401 34.5098 26.9401C33.8408 26.9401 33.2988 26.3981 33.2988 25.7291C33.2988 25.0601 33.8408 24.5181 34.5098 24.5181Z" fill="#10171D" stroke="white" stroke-miterlimit="10"/>
</svg>
