<svg width="102" height="102" viewBox="0 0 102 102" fill="none" xmlns="http://www.w3.org/2000/svg">
<path d="M101.419 1H1V101.418H101.419V1Z" fill="white" stroke="white" stroke-miterlimit="10"/>
<path d="M27.5111 34.5388C28.2321 34.5388 28.8171 35.1238 28.8171 35.8448C28.8171 36.5658 28.2321 37.1498 27.5111 37.1498C26.7901 37.1498 26.2051 36.5658 26.2051 35.8448C26.2051 35.1238 26.7901 34.5388 27.5111 34.5388Z" fill="#10171D" stroke="white" stroke-miterlimit="10"/>
<path d="M67.678 27.0078C68.4 27.0078 68.984 27.5918 68.984 28.3128C68.984 29.0338 68.4 29.6188 67.678 29.6188C66.957 29.6188 66.373 29.0338 66.373 28.3128C66.373 27.5928 66.957 27.0078 67.678 27.0078Z" fill="#10171D" stroke="white" stroke-miterlimit="10"/>
<path d="M51.3099 74.707C52.0319 74.707 52.6159 75.291 52.6159 76.012C52.6159 76.733 52.0319 77.318 51.3099 77.318C50.5889 77.318 50.0049 76.734 50.0049 76.012C50.0049 75.291 50.5889 74.707 51.3099 74.707Z" fill="#10171D" stroke="white" stroke-miterlimit="10"/>
<path d="M23.6962 76.012C24.4172 76.012 25.0012 76.597 25.0012 77.318C25.0012 78.039 24.4172 78.623 23.6962 78.623C22.9742 78.623 22.3901 78.039 22.3901 77.318C22.3901 76.597 22.9742 76.012 23.6962 76.012Z" fill="#10171D" stroke="white" stroke-miterlimit="10"/>
<path d="M30.0223 74.707C30.7433 74.707 31.3273 75.291 31.3273 76.012C31.3273 76.733 30.7433 77.318 30.0223 77.318C29.3003 77.318 28.7163 76.734 28.7163 76.012C28.7163 75.291 29.3003 74.707 30.0223 74.707Z" fill="#10171D" stroke="white" stroke-miterlimit="10"/>
<path d="M75.2103 72.1958C75.9313 72.1958 76.5153 72.7798 76.5153 73.5018C76.5153 74.2228 75.9313 74.8068 75.2103 74.8068C74.4883 74.8068 73.9043 74.2228 73.9043 73.5018C73.9053 72.7808 74.4893 72.1958 75.2103 72.1958Z" fill="#10171D" stroke="white" stroke-miterlimit="10"/>
<path d="M62.356 76.7149C62.457 76.6139 61.754 77.1159 74.608 69.2839C75.009 69.0829 75.211 68.6809 75.211 68.1799C75.211 52.5149 75.211 53.4189 75.211 53.2179C75.11 52.9169 74.909 52.6149 74.608 52.4149C73.905 52.0129 63.863 45.8879 63.16 45.4859C63.16 30.5239 63.16 31.4269 63.16 31.2259C63.06 30.9249 62.859 30.6229 62.558 30.4229C53.922 25.2009 55.629 26.2049 50.508 23.0919C50.106 22.8909 49.604 22.8909 49.202 23.0919C49.202 23.0919 36.348 30.9249 37.152 30.4229C36.75 30.6239 36.549 31.0259 36.549 31.5269V45.4849C36.549 45.4849 25 52.5139 25.101 52.4139C24.7 52.6149 24.498 53.0169 24.498 53.4179C24.498 53.5179 24.498 65.0669 24.498 68.0789C24.498 68.4809 24.699 68.8829 25.101 69.1839C38.055 77.0169 37.2511 76.5149 37.3521 76.6149C37.4531 76.6149 37.5531 76.7159 37.6541 76.7159C37.7551 76.7159 37.854 76.7159 38.055 76.7159C38.256 76.7159 38.356 76.6149 38.456 76.5149C38.557 76.5149 47.5951 70.9919 49.9041 69.5859C62.0541 76.9169 61.351 76.6149 61.552 76.6149C61.653 76.6149 61.753 76.7159 61.853 76.7159C61.954 76.7159 62.054 76.7159 62.155 76.7159C62.055 76.8159 62.256 76.7149 62.356 76.7149ZM37.6541 47.5939C37.8541 47.6949 36.85 47.0919 47.294 53.5189L37.6541 59.4439L28.013 53.5189L37.6541 47.5939ZM48.498 39.5609V51.3099C48.298 51.2089 39.059 45.5859 38.958 45.4859V33.7359L48.498 39.5609ZM60.549 45.4849L51.009 51.3089V39.5609L60.549 33.7369V45.4849ZM38.859 61.5519L48.398 55.7279V67.4769L38.859 73.3009V61.5519ZM61.854 47.5939L71.495 53.5189L61.854 59.4439L52.2141 53.6199C52.4141 53.4179 61.754 47.6939 61.854 47.5939ZM63.059 73.3009V61.5519L72.599 55.7279V67.4769L63.059 73.3009ZM49.703 25.6029L59.344 31.5269L49.703 37.3509L40.063 31.5269L49.703 25.6029ZM26.808 55.7279L36.348 61.5519V73.3009L26.808 67.4769V55.7279ZM51.009 55.7279L60.549 61.5519V73.3009L51.009 67.4769V55.7279Z" fill="#10171D" stroke="white" stroke-miterlimit="10"/>
<path d="M74.608 32.1289C72.198 32.1289 70.189 34.1369 70.189 36.5469C70.189 38.9569 72.198 40.9659 74.608 40.9659C77.017 40.9659 79.0259 38.9579 79.0259 36.5469C78.9249 34.0379 77.017 32.1289 74.608 32.1289ZM74.608 38.3549C73.603 38.3549 72.7 37.5519 72.7 36.4469C72.7 35.3419 73.503 34.5389 74.608 34.5389C75.713 34.5389 76.515 35.3419 76.515 36.4469C76.515 37.5519 75.612 38.3549 74.608 38.3549Z" fill="#10171D" stroke="white" stroke-miterlimit="10"/>
<path d="M27.5113 30.8239C29.6193 30.8239 31.3263 29.1169 31.3263 27.0079C31.3263 24.8989 29.6193 23.1919 27.5113 23.1919C25.4033 23.1919 23.6963 24.8989 23.6963 27.0079C23.6963 29.1169 25.4033 30.8239 27.5113 30.8239ZM27.5113 25.8029C28.2143 25.8029 28.8173 26.4059 28.8173 27.1079C28.8173 27.8109 28.2143 28.4139 27.5113 28.4139C26.8083 28.4139 26.2053 27.8109 26.2053 27.1079C26.2053 26.4059 26.8083 25.8029 27.5113 25.8029Z" fill="#10171D" stroke="white" stroke-miterlimit="10"/>
</svg>
