<svg width="103" height="103" viewBox="0 0 103 103" fill="none" xmlns="http://www.w3.org/2000/svg">
<path d="M101.934 1H1V101.935H101.934V1Z" fill="white" stroke="white" stroke-miterlimit="10"/>
<path d="M71.5532 62.2669L68.2232 57.1189C69.0302 55.7059 69.6362 54.2929 70.0392 52.6779L75.9942 51.3659C76.6002 51.2649 77.0042 50.7599 77.0042 50.1549V45.6129C77.0042 45.0079 76.6002 44.5029 75.9942 44.4019L70.0392 43.0899C69.6362 41.5759 69.0292 40.0619 68.2232 38.6489L71.5532 33.5009C71.8562 32.9969 71.7552 32.3909 71.3522 31.8859L68.1222 28.6559C67.7192 28.2519 67.0122 28.1509 66.5072 28.4539L61.3602 31.7849C59.9472 30.9769 58.5342 30.3719 56.9202 29.9679L55.6072 24.0129C55.5062 23.4079 55.0022 23.0039 54.3962 23.0039H49.8542C49.2482 23.0039 48.7442 23.4079 48.6422 24.0129L47.4312 29.9679C45.9172 30.3719 44.4032 30.9769 42.9902 31.7849L37.8432 28.4539C37.3382 28.1509 36.7332 28.2519 36.2282 28.6559L32.9992 31.8859C32.5962 32.2899 32.4942 32.9959 32.7972 33.5009L36.1282 38.6489C35.3202 40.0619 34.7152 41.4749 34.3122 43.0899L28.3572 44.4019C27.7502 44.5029 27.3472 45.0079 27.3472 45.6129V50.1549C27.3472 50.7609 27.7502 51.2649 28.3572 51.3659L34.3122 52.6779C34.7152 54.1919 35.3212 55.7059 36.1282 57.1189L32.7972 62.2669C32.4942 62.7709 32.5962 63.3769 32.9992 63.8819L36.2282 67.1119C36.6322 67.5159 37.3382 67.6169 37.8432 67.3139L43.6972 63.5799C44.3022 63.1759 44.5052 62.4699 44.1002 61.8639C43.6972 61.2589 42.9902 61.0559 42.3842 61.4599L37.3372 64.5889L35.6212 62.7719L38.7502 57.7259C39.0532 57.3219 39.0532 56.8169 38.7502 56.4129C37.7412 54.8989 37.0342 53.1829 36.6312 51.3669C36.5292 50.8619 36.1262 50.5589 35.7232 50.4579L29.9692 49.1459V46.6229L35.7232 45.3109C36.2272 45.2099 36.5302 44.8059 36.6312 44.4019C37.0342 42.5859 37.7412 40.8689 38.7502 39.3559C39.0532 38.9519 39.0532 38.4469 38.7502 38.0429L35.6212 33.0969L37.3372 31.3809L42.2832 34.5099C42.6862 34.8129 43.1912 34.8129 43.5952 34.5099C45.1102 33.5009 46.8262 32.7939 48.6422 32.3899C49.1472 32.2889 49.4502 31.8859 49.5502 31.4819L50.8632 25.7279H53.4882L54.8002 31.4819C54.9012 31.9859 55.3052 32.2899 55.7082 32.3899C57.5252 32.7939 59.2412 33.4999 60.7552 34.5099C61.1592 34.8129 61.6632 34.8129 62.0682 34.5099L67.1152 31.3809L68.8312 33.0969L65.7022 38.0429C65.3992 38.4469 65.3992 38.9519 65.7022 39.3559C66.7112 40.9709 67.4182 42.6869 67.8212 44.4019C67.9232 44.9069 68.3262 45.2099 68.7292 45.3109L74.4832 46.6229V49.1459L68.7292 50.4579C68.2252 50.5589 67.9222 50.9629 67.8212 51.3669C67.4182 53.1829 66.7112 54.8999 65.7022 56.4129C65.3992 56.8169 65.3992 57.3219 65.7022 57.7259L68.8312 62.7719L67.0142 64.5889L61.9672 61.4599C61.3622 61.0559 60.5542 61.2579 60.2512 61.8639C59.8482 62.4689 60.0502 63.2769 60.6552 63.5799L66.5092 67.3139C67.0142 67.6169 67.6192 67.5159 68.1242 67.1119L71.3542 63.8819C71.8552 63.3779 71.8552 62.6709 71.5532 62.2669Z" fill="#10171D" stroke="white" stroke-miterlimit="10"/>
<path d="M65.9 47.834C65.9 40.264 59.7439 34.208 52.2739 34.208C44.7039 34.208 38.6479 40.365 38.6479 47.834C38.6479 52.88 41.4739 57.523 46.0159 59.946V72.664C46.0159 76.096 48.8419 79.023 52.3749 79.023C55.8069 79.023 58.7329 76.197 58.7329 72.664V59.946C62.9739 57.523 65.9 52.88 65.9 47.834ZM56.7159 57.927C56.3119 58.129 56.0089 58.532 56.0089 59.037V72.663C56.0089 74.783 54.2929 76.499 52.174 76.499C50.054 76.499 48.4399 74.783 48.4399 72.663V59.138C48.4399 58.633 48.1369 58.229 47.7329 58.028C43.6959 56.211 41.1719 52.275 41.1719 47.934C41.1719 41.777 46.117 36.831 52.275 36.831C58.432 36.831 63.377 41.777 63.377 47.934C63.377 52.174 60.7529 56.211 56.7159 57.927Z" fill="#10171D" stroke="white" stroke-miterlimit="10"/>
<path d="M52.2743 39.2539C47.5303 39.2539 43.6953 43.0889 43.6953 47.8339C43.6953 52.5779 47.5303 56.4129 52.2743 56.4129C57.0183 56.4129 60.8543 52.5779 60.8543 47.8339C60.8543 43.0899 57.0183 39.2539 52.2743 39.2539ZM52.2743 53.8899C48.9433 53.8899 46.2183 51.1649 46.2183 47.8339C46.2183 44.5029 48.9433 41.7779 52.2743 41.7779C55.6053 41.7779 58.3313 44.5029 58.3313 47.8339C58.3313 51.1649 55.6053 53.8899 52.2743 53.8899Z" fill="#10171D" stroke="white" stroke-miterlimit="10"/>
<path d="M53.9902 45.6128L51.2652 48.3378L50.4572 47.4298C49.9522 46.9248 49.1442 46.9248 48.6402 47.4298C48.1362 47.9338 48.1362 48.7418 48.6402 49.2468L50.4572 51.0638C50.9622 51.5678 51.7682 51.5678 52.2732 51.0638L55.8062 47.5308C56.3102 47.0258 56.3102 46.2178 55.8062 45.7138C55.3032 45.1078 54.4952 45.1078 53.9902 45.6128Z" fill="#10171D" stroke="white" stroke-miterlimit="10"/>
<path d="M28.2521 66.3049C25.4261 66.3049 23.2051 68.5259 23.2051 71.3519C23.2051 74.1779 25.4261 76.3989 28.2521 76.3989C31.0781 76.3989 33.2991 74.1779 33.2991 71.3519C33.2991 68.6259 31.0781 66.3049 28.2521 66.3049ZM28.2521 73.8749C26.8391 73.8749 25.7291 72.7649 25.7291 71.3519C25.7291 69.9389 26.8391 68.8289 28.2521 68.8289C29.6651 68.8289 30.7751 69.9389 30.7751 71.3519C30.7751 72.7649 29.6651 73.8749 28.2521 73.8749Z" fill="#10171D" stroke="white" stroke-miterlimit="10"/>
<path d="M74.278 70.1399C71.855 70.1399 69.8369 72.1589 69.8369 74.5809C69.8369 77.0029 71.855 79.0219 74.278 79.0219C76.701 79.0219 78.7189 77.0029 78.7189 74.5809C78.7199 72.1589 76.701 70.1399 74.278 70.1399ZM74.278 76.3979C73.268 76.3979 72.3599 75.5899 72.3599 74.4799C72.3599 73.3699 73.168 72.5619 74.278 72.5619C75.388 72.5619 76.1959 73.3689 76.1959 74.4799C76.1959 75.5909 75.389 76.3979 74.278 76.3979Z" fill="#10171D" stroke="white" stroke-miterlimit="10"/>
<path d="M26.9401 36.024C29.0591 36.024 30.7751 34.308 30.7751 32.189C30.7751 30.07 29.0591 28.354 26.9401 28.354C24.8201 28.354 23.2051 30.171 23.2051 32.291C23.2051 34.411 24.9211 36.024 26.9401 36.024ZM26.9401 30.978C27.6461 30.978 28.2521 31.584 28.2521 32.291C28.2521 32.997 27.6461 33.603 26.9401 33.603C26.2331 33.603 25.6271 32.998 25.6271 32.291C25.6281 31.583 26.3341 30.978 26.9401 30.978Z" fill="#10171D" stroke="white" stroke-miterlimit="10"/>
<path d="M43.3931 24.6189C44.1181 24.6189 44.7051 25.2069 44.7051 25.9319C44.7051 26.6569 44.1181 27.2439 43.3931 27.2439C42.6681 27.2439 42.0801 26.6569 42.0801 25.9319C42.0801 25.2059 42.6681 24.6189 43.3931 24.6189Z" fill="#10171D" stroke="white" stroke-miterlimit="10"/>
<path d="M73.6729 24.6189C74.3979 24.6189 74.9849 25.2069 74.9849 25.9319C74.9849 26.6569 74.3979 27.2439 73.6729 27.2439C72.9479 27.2439 72.3599 26.6569 72.3599 25.9319C72.3599 25.2059 72.9479 24.6189 73.6729 24.6189Z" fill="#10171D" stroke="white" stroke-miterlimit="10"/>
<path d="M76.1958 37.2358C76.9208 37.2358 77.5078 37.8228 77.5078 38.5478C77.5078 39.2728 76.9208 39.8598 76.1958 39.8598C75.4708 39.8598 74.8828 39.2728 74.8828 38.5478C74.8828 37.8228 75.4718 37.2358 76.1958 37.2358Z" fill="#10171D" stroke="white" stroke-miterlimit="10"/>
<path d="M76.1958 59.9458C76.9208 59.9458 77.5078 60.5338 77.5078 61.2588C77.5078 61.9838 76.9208 62.5708 76.1958 62.5708C75.4708 62.5708 74.8828 61.9838 74.8828 61.2588C74.8838 60.5338 75.4718 59.9458 76.1958 59.9458Z" fill="#10171D" stroke="white" stroke-miterlimit="10"/>
<path d="M37.0332 71.3508C37.7582 71.3508 38.3462 71.9378 38.3462 72.6628C38.3462 73.3878 37.7582 73.9758 37.0332 73.9758C36.3082 73.9758 35.7212 73.3888 35.7212 72.6628C35.7222 71.9388 36.3092 71.3508 37.0332 71.3508Z" fill="#10171D" stroke="white" stroke-miterlimit="10"/>
<path d="M28.252 56.2109C28.977 56.2109 29.5649 56.7979 29.5649 57.5229C29.5649 58.2479 28.977 58.8349 28.252 58.8349C27.527 58.8349 26.9399 58.2479 26.9399 57.5229C26.9399 56.7989 27.527 56.2109 28.252 56.2109Z" fill="#10171D" stroke="white" stroke-miterlimit="10"/>
</svg>
