<svg width="102" height="102" viewBox="0 0 102 102" fill="none" xmlns="http://www.w3.org/2000/svg">
<path d="M101.418 1H1V101.418H101.418V1Z" fill="white" stroke="white" stroke-miterlimit="10"/>
<path d="M77.3182 45.6859L79.3262 42.5729C79.6282 42.1709 79.6282 41.6689 79.4272 41.2669C79.2262 40.8649 78.8252 40.5639 78.3232 40.5639H73.3022C72.9012 40.5639 72.4992 40.7649 72.2982 41.1669L70.1902 44.3799H65.7712C65.1682 34.5389 56.9342 26.8069 46.9932 26.8069C36.5502 26.8069 28.1152 35.3429 28.1152 45.6859C28.1152 53.3179 32.6342 60.0459 39.4622 62.9579C39.4622 65.1669 39.4622 71.0919 39.4622 73.3009C39.4622 74.0039 40.0652 74.6069 40.7682 74.6069H42.0742V77.1169C42.0742 77.8199 42.6772 78.4229 43.3802 78.4229H50.9112C51.6142 78.4229 52.2172 77.8199 52.2172 77.1169V74.6069H53.2212C53.9242 74.6069 54.5272 74.0039 54.5272 73.3009C54.5272 71.0919 54.5272 65.1669 54.5272 62.9579C60.8532 60.1459 65.2712 54.0199 65.7732 46.9909H70.1922L72.3002 50.2039C72.5012 50.5059 72.9032 50.8069 73.3042 50.8069H78.3252C78.8272 50.8069 79.2282 50.5059 79.4292 50.1039C79.6302 49.7019 79.6302 49.1999 79.3282 48.7979L77.3182 45.6859ZM74.0042 43.1749H76.0132L75.2092 44.4809H73.2012L74.0042 43.1749ZM51.9122 68.2799H41.8702V66.9739H51.9122V68.2799ZM49.4012 75.8119H44.3802V74.5069H49.4012V75.8119ZM51.9122 72.0959C48.7992 72.0959 44.9832 72.0959 41.8702 72.0959V70.7899H51.9122V72.0959ZM52.8162 60.9499C52.3132 61.1509 52.0122 61.5529 52.0122 62.1549V64.5649H41.9702V62.1549C41.9702 61.6519 41.6692 61.1509 41.1662 60.9499C34.9402 58.5399 30.7232 52.4139 30.7232 45.6859C30.7232 36.6479 38.0542 29.3179 47.0912 29.3179C55.6272 29.3179 62.7572 35.9449 63.3592 44.3809H59.5442C58.9422 38.0549 53.5192 33.0339 47.0922 33.0339C40.1632 33.0339 34.5402 38.6569 34.5402 45.5859C34.5402 52.5149 40.1632 58.1379 47.0922 58.1379C53.6192 58.1379 58.9422 53.2179 59.5442 46.7909H63.2602C62.7582 53.1169 58.6412 58.6399 52.8162 60.9499ZM53.1172 44.4809C52.5152 41.6699 50.0042 39.4599 46.9912 39.4599C43.5772 39.4599 40.6652 42.2719 40.6652 45.7869C40.6652 49.2009 43.4772 52.1129 46.9912 52.1129C50.0042 52.1129 52.5142 49.9029 53.1172 47.0919H56.9332C56.3302 52.0119 52.1142 55.9289 46.9922 55.9289C41.4692 55.9289 36.9512 51.4099 36.9512 45.8869C36.9512 40.3639 41.4692 35.8459 46.9922 35.8459C52.1142 35.8459 56.3312 39.6619 56.9332 44.6819H53.1172V44.4809ZM48.1962 46.9909H50.5062C50.0042 48.4969 48.5992 49.5019 46.9912 49.5019C44.8832 49.5019 43.1762 47.7949 43.1762 45.6859C43.1762 43.5769 44.8832 41.8699 46.9912 41.8699C48.5982 41.8699 50.0042 42.8739 50.5062 44.3799H48.1962C47.4942 44.3799 46.8912 44.9829 46.8912 45.6859C46.8922 46.3889 47.4942 46.9909 48.1962 46.9909ZM74.0042 48.1959L73.2012 46.8909H75.2092L76.0132 48.1959H74.0042Z" fill="#10171D" stroke="white" stroke-miterlimit="10"/>
<path d="M25.6031 64.564C23.4951 64.564 21.7881 66.271 21.7881 68.38C21.7881 70.489 23.4951 72.196 25.6031 72.196C27.7111 72.196 29.4181 70.489 29.4181 68.38C29.3181 66.171 27.7111 64.564 25.6031 64.564ZM25.6031 69.585C24.9001 69.585 24.2971 68.982 24.2971 68.28C24.2971 67.577 24.9001 66.974 25.6031 66.974C26.3061 66.974 26.9091 67.577 26.9091 68.28C26.8081 68.983 26.3061 69.585 25.6031 69.585Z" fill="#10171D" stroke="white" stroke-miterlimit="10"/>
<path d="M68.2798 30.623C70.3878 30.623 72.0958 28.916 72.0958 26.807C72.0958 24.699 70.3878 22.991 68.2798 22.991C66.1718 22.991 64.4648 24.698 64.4648 26.807C64.5638 28.916 66.1718 30.623 68.2798 30.623ZM68.2798 25.603C68.9828 25.603 69.5859 26.205 69.5859 26.908C69.5859 27.611 68.9828 28.113 68.2798 28.113C67.5768 28.113 66.9739 27.51 66.9739 26.807C66.9749 26.105 67.5768 25.603 68.2798 25.603Z" fill="#10171D" stroke="white" stroke-miterlimit="10"/>
<path d="M71.3941 58.238C68.9841 58.238 66.9751 60.246 66.9751 62.656C66.9751 65.066 68.9841 67.075 71.3941 67.075C73.8041 67.075 75.8121 65.067 75.8121 62.656C75.8121 60.247 73.8041 58.238 71.3941 58.238ZM71.3941 64.564C70.3891 64.564 69.4861 63.761 69.4861 62.656C69.4861 61.551 70.2901 60.748 71.3941 60.748C72.4981 60.748 73.3011 61.552 73.3011 62.656C73.3011 63.76 72.4981 64.564 71.3941 64.564Z" fill="#10171D" stroke="white" stroke-miterlimit="10"/>
<path d="M67.075 34.3389C67.796 34.3389 68.381 34.9239 68.381 35.6439C68.381 36.3649 67.796 36.9499 67.075 36.9499C66.354 36.9499 65.769 36.3649 65.769 35.6439C65.77 34.9229 66.354 34.3389 67.075 34.3389Z" fill="#10171D" stroke="white" stroke-miterlimit="10"/>
<path d="M31.8279 25.502C32.5499 25.502 33.134 26.087 33.134 26.807C33.134 27.528 32.5499 28.113 31.8279 28.113C31.1069 28.113 30.5229 27.528 30.5229 26.807C30.5229 26.086 31.1079 25.502 31.8279 25.502Z" fill="#10171D" stroke="white" stroke-miterlimit="10"/>
<path d="M25.603 33.134C26.268 33.134 26.808 33.674 26.808 34.339C26.808 35.005 26.268 35.544 25.603 35.544C24.938 35.544 24.398 35.005 24.398 34.339C24.397 33.673 24.938 33.134 25.603 33.134Z" fill="#10171D" stroke="white" stroke-miterlimit="10"/>
<path d="M25.6028 58.238C26.3238 58.238 26.9089 58.822 26.9089 59.544C26.9089 60.265 26.3238 60.849 25.6028 60.849C24.8818 60.849 24.2969 60.265 24.2969 59.544C24.2969 58.823 24.8818 58.238 25.6028 58.238Z" fill="#10171D" stroke="white" stroke-miterlimit="10"/>
<path d="M72.097 74.5059C72.818 74.5059 73.402 75.0899 73.402 75.8109C73.402 76.5319 72.818 77.1159 72.097 77.1159C71.375 77.1159 70.791 76.5319 70.791 75.8109C70.791 75.0899 71.375 74.5059 72.097 74.5059Z" fill="#10171D" stroke="white" stroke-miterlimit="10"/>
<path d="M58.239 65.77H55.729V68.281H58.239V65.77Z" fill="#10171D" stroke="white" stroke-miterlimit="10"/>
<path d="M58.239 69.585H55.729V72.096H58.239V69.585Z" fill="#10171D" stroke="white" stroke-miterlimit="10"/>
<path d="M38.156 65.77H35.645V68.281H38.156V65.77Z" fill="#10171D" stroke="white" stroke-miterlimit="10"/>
<path d="M38.156 69.585H35.645V72.096H38.156V69.585Z" fill="#10171D" stroke="white" stroke-miterlimit="10"/>
</svg>
