<svg width="103" height="103" viewBox="0 0 103 103" fill="none" xmlns="http://www.w3.org/2000/svg">
<path d="M101.935 1H1V101.935H101.935V1Z" fill="white" stroke="white" stroke-miterlimit="10"/>
<path d="M59.1407 38.9531H56.6177C55.9107 38.9531 55.3047 39.5581 55.3047 40.2651C55.3047 40.9721 55.9097 41.5771 56.6177 41.5771H59.1407C59.8467 41.5771 60.4517 40.9721 60.4517 40.2651C60.4517 39.5581 59.8467 38.9531 59.1407 38.9531Z" fill="#10171D" stroke="white" stroke-miterlimit="10"/>
<path d="M40.2661 41.4761C40.2661 42.1831 40.8711 42.7881 41.5781 42.7881C42.2851 42.7881 42.8901 42.1831 42.8901 41.4761C43.5971 41.4761 44.2031 40.8701 44.2031 40.1631C44.2031 39.4571 43.5971 38.8511 42.8901 38.8511C42.8901 38.1441 42.2851 37.5391 41.5781 37.5391C40.8721 37.5391 40.2661 38.1441 40.2661 38.8511C39.5591 38.8511 38.9531 39.4561 38.9531 40.1631C38.9531 40.8701 39.5591 41.4761 40.2661 41.4761Z" fill="#10171D" stroke="white" stroke-miterlimit="10"/>
<path d="M66.7097 25.8293C66.3067 25.6273 65.8017 25.6273 65.3987 25.9303L62.4708 27.8473L60.6548 26.0303C60.1498 25.5263 59.3417 25.5263 58.8387 26.0303L57.2238 27.6453L55.6088 26.0303C55.1038 25.5263 54.2968 25.5263 53.7928 26.0303L52.1778 27.6453L50.5627 26.0303C50.0577 25.5263 49.2498 25.5263 48.7458 26.0303L47.1307 27.6453L45.5157 26.0303C45.0107 25.5263 44.2038 25.5263 43.6988 26.0303L42.0837 27.6453L40.4688 26.0303C39.9648 25.5263 39.1568 25.5263 38.6518 26.0303L36.8358 27.8473L33.9088 25.9303C33.5048 25.6273 32.9998 25.6273 32.5958 25.8293C32.1928 26.0313 31.8897 26.4343 31.8897 26.9393V50.9613H25.5308C24.8248 50.9613 24.2188 51.5663 24.2188 52.2733V74.9833C24.2188 77.8093 26.4397 80.0294 29.2657 80.0294H61.1617C64.3907 80.0294 67.1168 77.4053 67.1168 74.0743V26.9383C67.4168 26.5363 67.1147 26.1323 66.7097 25.8293ZM26.9417 74.9843V53.4853H31.9887V74.9843C31.9887 76.3973 30.8788 77.5073 29.4658 77.5073C28.1538 77.5083 26.9417 76.2963 26.9417 74.9843ZM64.8937 74.0763C64.8937 75.9943 63.3798 77.5083 61.4618 77.5083H33.9067C34.3107 76.8023 34.6137 75.8933 34.6137 74.9853C34.6137 73.6723 34.6137 30.6743 34.6137 29.3623L36.4297 30.5743C36.9347 30.8773 37.6407 30.8773 38.0447 30.3723L39.6598 28.7573L41.2747 30.3723C41.7787 30.8773 42.5867 30.8773 43.0917 30.3723L44.7068 28.7573L46.3217 30.3723C46.8267 30.8773 47.6348 30.8773 48.1388 30.3723L49.7538 28.7573L51.3687 30.3723C51.8737 30.8773 52.6818 30.8773 53.1858 30.3723L54.7997 28.7573L56.4148 30.3723C56.9198 30.8773 57.7277 30.8773 58.2307 30.3723L59.8458 28.7573L61.4608 30.3723C61.8638 30.7763 62.5707 30.8773 63.0747 30.5743L64.8918 29.3623V74.0763H64.8937Z" fill="#10171D" stroke="white" stroke-miterlimit="10"/>
<path d="M74.985 30.7773H69.938C69.231 30.7773 68.625 31.3823 68.625 32.0893V72.4633C68.625 72.6653 68.625 72.7664 68.727 72.9684L71.249 79.3273C71.451 79.8313 71.956 80.1344 72.461 80.1344C72.966 80.1344 73.47 79.8313 73.672 79.3273L76.195 72.9684C76.296 72.8674 76.296 72.6653 76.296 72.4633V32.0893C76.195 31.3823 75.59 30.7773 74.985 30.7773ZM71.149 38.3474H73.672V39.6593H71.149V38.3474ZM73.672 33.3004V35.8233H71.149V33.3004H73.672ZM72.461 75.2894L71.148 72.1604V42.0813H73.671V72.1604L72.461 75.2894Z" fill="#10171D" stroke="white" stroke-miterlimit="10"/>
<path d="M41.4762 45.9173C44.6052 45.9173 47.1282 43.3943 47.1282 40.2653C47.1282 37.1363 44.6052 34.6133 41.4762 34.6133C38.3472 34.6133 35.8242 37.1363 35.8242 40.2653C35.8232 43.3933 38.3472 45.9173 41.4762 45.9173ZM41.4762 37.0353C43.1922 37.0353 44.6052 38.4483 44.6052 40.1643C44.6052 41.8803 43.1922 43.3943 41.4762 43.3943C39.7602 43.3943 38.3472 41.9813 38.3472 40.2653C38.3472 38.5493 39.7602 37.0353 41.4762 37.0353Z" fill="#10171D" stroke="white" stroke-miterlimit="10"/>
<path d="M57.9254 34.5117C54.7964 34.5117 52.2734 37.0347 52.2734 40.1637C52.2734 43.2927 54.7964 45.8157 57.9254 45.8157C61.0544 45.8157 63.5774 43.3937 63.5774 40.2647C63.5774 37.1367 61.0544 34.5117 57.9254 34.5117ZM57.9254 43.3937C56.2094 43.3937 54.7964 41.9807 54.7964 40.2647C54.7964 38.5487 56.2094 37.1357 57.9254 37.1357C59.6414 37.1357 61.0544 38.5487 61.0544 40.2647C61.0544 41.9807 59.6414 43.3937 57.9254 43.3937Z" fill="#10171D" stroke="white" stroke-miterlimit="10"/>
<path d="M47.128 48.4414H40.769C40.062 48.4414 39.457 49.0464 39.457 49.7534C39.457 50.4604 40.062 51.0664 40.769 51.0664H47.128C47.835 51.0664 48.441 50.4604 48.441 49.7534C48.441 49.0464 47.835 48.4414 47.128 48.4414Z" fill="#10171D" stroke="white" stroke-miterlimit="10"/>
<path d="M37.0346 48.4414C37.7596 48.4414 38.3466 49.0284 38.3466 49.7534C38.3466 50.4784 37.7596 51.0664 37.0346 51.0664C36.3096 51.0664 35.7227 50.4784 35.7227 49.7534C35.7227 49.0284 36.3096 48.4414 37.0346 48.4414Z" fill="#10171D" stroke="white" stroke-miterlimit="10"/>
<path d="M62.3692 48.4414H56.0102C55.3042 48.4414 54.6992 49.0464 54.6992 49.7534C54.6992 50.4604 55.3042 51.0664 56.0102 51.0664H62.3692C63.0762 51.0664 63.6822 50.4604 63.6822 49.7534C63.6822 49.0464 62.9752 48.4414 62.3692 48.4414Z" fill="#10171D" stroke="white" stroke-miterlimit="10"/>
<path d="M52.1753 48.4414C52.9003 48.4414 53.4883 49.0284 53.4883 49.7534C53.4883 50.4784 52.9003 51.0664 52.1753 51.0664C51.4503 51.0664 50.8633 50.4784 50.8633 49.7534C50.8633 49.0284 51.4503 48.4414 52.1753 48.4414Z" fill="#10171D" stroke="white" stroke-miterlimit="10"/>
<path d="M28.2544 29.4648C28.9794 29.4648 29.5664 30.0518 29.5664 30.7768C29.5664 31.5018 28.9794 32.0888 28.2544 32.0888C27.5294 32.0888 26.9414 31.5018 26.9414 30.7768C26.9414 30.0518 27.5294 29.4648 28.2544 29.4648Z" fill="#10171D" stroke="white" stroke-miterlimit="10"/>
<path d="M47.128 52.2773H40.769C40.062 52.2773 39.457 52.8823 39.457 53.5893C39.457 54.2963 40.062 54.9023 40.769 54.9023H47.128C47.835 54.9023 48.441 54.2963 48.441 53.5893C48.441 52.8823 47.835 52.2773 47.128 52.2773Z" fill="#10171D" stroke="white" stroke-miterlimit="10"/>
<path d="M37.0346 52.1758C37.7596 52.1758 38.3466 52.7628 38.3466 53.4888C38.3466 54.2138 37.7596 54.8008 37.0346 54.8008C36.3096 54.8008 35.7227 54.2138 35.7227 53.4888C35.7227 52.7628 36.3096 52.1758 37.0346 52.1758Z" fill="#10171D" stroke="white" stroke-miterlimit="10"/>
<path d="M62.3692 52.2773H56.0102C55.3042 52.2773 54.6992 52.8823 54.6992 53.5893C54.6992 54.2963 55.3042 54.9023 56.0102 54.9023H62.3692C63.0762 54.9023 63.6822 54.2963 63.6822 53.5893C63.6822 52.8823 62.9752 52.2773 62.3692 52.2773Z" fill="#10171D" stroke="white" stroke-miterlimit="10"/>
<path d="M52.1753 52.1758C52.9003 52.1758 53.4883 52.7628 53.4883 53.4888C53.4883 54.2138 52.9003 54.8008 52.1753 54.8008C51.4503 54.8008 50.8633 54.2138 50.8633 53.4888C50.8633 52.7628 51.4503 52.1758 52.1753 52.1758Z" fill="#10171D" stroke="white" stroke-miterlimit="10"/>
<path d="M47.128 56.0117H40.769C40.062 56.0117 39.457 56.6167 39.457 57.3237C39.457 58.0307 40.062 58.6357 40.769 58.6357H47.128C47.835 58.6357 48.441 58.0307 48.441 57.3237C48.441 56.6167 47.835 56.0117 47.128 56.0117Z" fill="#10171D" stroke="white" stroke-miterlimit="10"/>
<path d="M37.0346 58.6357C37.7592 58.6357 38.3466 58.0483 38.3466 57.3237C38.3466 56.5991 37.7592 56.0117 37.0346 56.0117C36.31 56.0117 35.7227 56.5991 35.7227 57.3237C35.7227 58.0483 36.31 58.6357 37.0346 58.6357Z" fill="#10171D" stroke="white" stroke-miterlimit="10"/>
<path d="M62.3692 56.0117H56.0102C55.3042 56.0117 54.6992 56.6167 54.6992 57.3237C54.6992 58.0307 55.3042 58.6357 56.0102 58.6357H62.3692C63.0762 58.6357 63.6822 58.0307 63.6822 57.3237C63.6822 56.6167 62.9752 56.0117 62.3692 56.0117Z" fill="#10171D" stroke="white" stroke-miterlimit="10"/>
<path d="M52.1753 56.0117C52.9003 56.0117 53.4883 56.5987 53.4883 57.3237C53.4883 58.0487 52.9003 58.6357 52.1753 58.6357C51.4503 58.6357 50.8633 58.0487 50.8633 57.3237C50.8633 56.5987 51.4503 56.0117 52.1753 56.0117Z" fill="#10171D" stroke="white" stroke-miterlimit="10"/>
<path d="M47.128 59.8438H40.769C40.062 59.8438 39.457 60.4487 39.457 61.1557C39.457 61.8617 40.062 62.4678 40.769 62.4678H47.128C47.835 62.4678 48.441 61.8627 48.441 61.1557C48.441 60.4497 47.835 59.8438 47.128 59.8438Z" fill="#10171D" stroke="white" stroke-miterlimit="10"/>
<path d="M37.0346 62.3662C37.7592 62.3662 38.3466 61.7788 38.3466 61.0542C38.3466 60.3296 37.7592 59.7422 37.0346 59.7422C36.31 59.7422 35.7227 60.3296 35.7227 61.0542C35.7227 61.7788 36.31 62.3662 37.0346 62.3662Z" fill="#10171D" stroke="white" stroke-miterlimit="10"/>
<path d="M62.3692 59.8438H56.0102C55.3042 59.8438 54.6992 60.4487 54.6992 61.1557C54.6992 61.8617 55.3042 62.4678 56.0102 62.4678H62.3692C63.0762 62.4678 63.6822 61.8627 63.6822 61.1557C63.6822 60.4497 62.9752 59.8438 62.3692 59.8438Z" fill="#10171D" stroke="white" stroke-miterlimit="10"/>
<path d="M52.1753 59.7422C52.9003 59.7422 53.4883 60.3292 53.4883 61.0542C53.4883 61.7792 52.9003 62.3662 52.1753 62.3662C51.4503 62.3662 50.8633 61.7792 50.8633 61.0542C50.8633 60.3292 51.4503 59.7422 52.1753 59.7422Z" fill="#10171D" stroke="white" stroke-miterlimit="10"/>
<path d="M47.128 63.5781H40.769C40.062 63.5781 39.457 64.1831 39.457 64.8901C39.457 65.5971 40.062 66.2031 40.769 66.2031H47.128C47.835 66.2031 48.441 65.5971 48.441 64.8901C48.441 64.1841 47.835 63.5781 47.128 63.5781Z" fill="#10171D" stroke="white" stroke-miterlimit="10"/>
<path d="M37.0346 63.5781C37.7596 63.5781 38.3466 64.1651 38.3466 64.8901C38.3466 65.6151 37.7596 66.2031 37.0346 66.2031C36.3096 66.2031 35.7227 65.6161 35.7227 64.8901C35.7227 64.1661 36.3096 63.5781 37.0346 63.5781Z" fill="#10171D" stroke="white" stroke-miterlimit="10"/>
<path d="M47.128 67.4141H40.769C40.062 67.4141 39.457 68.0201 39.457 68.7261C39.457 69.4331 40.062 70.0391 40.769 70.0391H47.128C47.835 70.0391 48.441 69.4341 48.441 68.7261C48.441 68.0201 47.835 67.4141 47.128 67.4141Z" fill="#10171D" stroke="white" stroke-miterlimit="10"/>
<path d="M37.0346 67.3164C37.7596 67.3164 38.3466 67.9044 38.3466 68.6294C38.3466 69.3544 37.7596 69.9414 37.0346 69.9414C36.3096 69.9414 35.7227 69.3544 35.7227 68.6294C35.7227 67.9044 36.3096 67.3164 37.0346 67.3164Z" fill="#10171D" stroke="white" stroke-miterlimit="10"/>
<path d="M47.128 71.1523H40.769C40.062 71.1523 39.457 71.7573 39.457 72.4643C39.457 73.1713 40.062 73.7763 40.769 73.7763H47.128C47.835 73.7763 48.441 73.1713 48.441 72.4643C48.441 71.7573 47.835 71.1523 47.128 71.1523Z" fill="#10171D" stroke="white" stroke-miterlimit="10"/>
<path d="M37.0346 71.1523C37.7596 71.1523 38.3466 71.7393 38.3466 72.4643C38.3466 73.1893 37.7596 73.7763 37.0346 73.7763C36.3096 73.7763 35.7227 73.1893 35.7227 72.4643C35.7227 71.7393 36.3096 71.1523 37.0346 71.1523Z" fill="#10171D" stroke="white" stroke-miterlimit="10"/>
<path d="M29.464 40.8672C29.464 38.7472 27.748 37.0312 25.629 37.0312C23.509 37.0312 21.793 38.7472 21.793 40.8672C21.793 42.9872 23.509 44.7032 25.629 44.7032C27.748 44.7032 29.464 42.9872 29.464 40.8672ZM24.417 40.8672C24.417 40.1602 25.022 39.5553 25.729 39.5553C26.436 39.5553 27.041 40.1602 27.041 40.8672C27.041 41.5732 26.436 42.1803 25.729 42.1803C25.023 42.0793 24.417 41.5742 24.417 40.8672Z" fill="#10171D" stroke="white" stroke-miterlimit="10"/>
<path d="M76.1954 21.8945C74.0754 21.8945 72.3594 23.6105 72.3594 25.7295C72.3594 27.8495 74.0754 29.5655 76.1954 29.5655C78.3144 29.5655 80.0314 27.8495 80.0314 25.7295C80.0314 23.6095 78.3154 21.8945 76.1954 21.8945ZM76.1954 26.9405C75.4884 26.9405 74.8824 26.3355 74.8824 25.6285C74.8824 24.9215 75.4874 24.3155 76.1954 24.3155C76.9014 24.3155 77.5084 24.9215 77.5084 25.6285C77.5084 26.3355 76.9024 26.9405 76.1954 26.9405Z" fill="#10171D" stroke="white" stroke-miterlimit="10"/>
</svg>
