<svg width="103" height="103" viewBox="0 0 103 103" fill="none" xmlns="http://www.w3.org/2000/svg">
<path d="M101.934 1H1V101.935H101.934V1Z" fill="white" stroke="white" stroke-miterlimit="10"/>
<path d="M80.0297 47.2253H74.9827C74.2767 47.2253 73.6707 47.8314 73.6707 48.5374V53.5844C73.6707 54.2914 74.2767 54.8973 74.9827 54.8973H76.1946C75.5896 60.9533 70.4407 65.5963 64.2847 65.5963C58.1277 65.5963 52.9796 60.8523 52.3746 54.8973H53.4847C54.1907 54.8973 54.7966 54.2924 54.7966 53.5844V48.5384C54.7966 47.8314 54.1917 47.2253 53.4847 47.2253H52.1716C51.7676 42.7843 49.3456 38.8474 45.9136 36.5264H49.7487C50.4557 36.5264 51.0616 35.9213 51.0616 35.2133C51.0616 34.5073 50.4567 33.9023 49.7487 33.9023H25.7277C25.0217 33.9023 24.4156 34.5073 24.4156 35.2133C24.4156 35.9203 25.0207 36.5264 25.7277 36.5264H29.5637C26.0307 38.9494 23.7097 42.7843 23.3057 47.2253H21.9927C21.2867 47.2253 20.6797 47.8314 20.6797 48.5384V53.5844C20.6797 54.2914 21.2857 54.8973 21.9927 54.8973H27.0397C27.7457 54.8973 28.3527 54.2924 28.3527 53.5844V48.5384C28.3527 47.8314 27.7457 47.2253 27.0397 47.2253H25.8287C26.4337 41.1683 31.5816 36.5264 37.7386 36.5264C43.8956 36.5264 49.0437 41.2703 49.6487 47.2253H48.4377C47.7307 47.2253 47.1246 47.8314 47.1246 48.5384V53.5844C47.1246 54.2914 47.7307 54.8973 48.4377 54.8973H49.7496C50.1536 59.3383 52.5756 63.2753 56.0076 65.5963H52.1727C51.4657 65.5963 50.8597 66.2013 50.8597 66.9073C50.8597 67.6143 51.4657 68.2204 52.1727 68.2204H76.1957C76.9017 68.2204 77.5076 67.6153 77.5076 66.9073C77.5076 66.2013 76.9017 65.5963 76.1957 65.5963H72.3597C75.8927 63.1733 78.2137 59.3383 78.6177 54.8973H79.9307C80.6377 54.8973 81.2437 54.2924 81.2437 53.5844V48.5384C81.2417 47.7304 80.6367 47.2253 80.0297 47.2253ZM25.7277 52.2723H23.2047V49.7494H25.7277V52.2723ZM52.1727 49.7494V52.2723H49.6497V49.7494H52.1727ZM78.7187 52.2723H76.1957V49.7494H78.7187V52.2723Z" fill="#10171D" stroke="white" stroke-miterlimit="10"/>
<path d="M53.4844 31.6846C53.5854 32.2896 53.9884 32.6936 54.5934 32.7946L64.5864 34.2076L65.9993 44.1996C66.1003 44.8046 66.5034 45.2096 67.1094 45.3096C67.7144 45.4106 68.2193 45.0066 68.4203 44.5016L74.6783 25.7286C74.7803 25.3246 74.6784 24.8206 74.3754 24.4156C74.0724 24.1126 73.5674 23.9106 73.0634 24.1126L54.2894 30.3706C53.7874 30.4736 53.4844 31.0786 53.4844 31.6846ZM71.4504 27.2426L67.7164 38.5476L66.9083 32.8955C66.8073 32.2905 66.4033 31.8866 65.7983 31.7856L60.1464 30.9775L71.4504 27.2426Z" fill="#10171D" stroke="white" stroke-miterlimit="10"/>
<path d="M28.2491 30.1681C30.3691 30.1681 32.0851 28.4511 32.0851 26.3321C32.0851 24.2121 30.3691 22.4961 28.2491 22.4961C26.1301 22.4961 24.4141 24.2121 24.4141 26.3321C24.4141 28.4511 26.1301 30.1681 28.2491 30.1681ZM28.2491 25.1211C28.9561 25.1211 29.5621 25.7261 29.5621 26.4331C29.5621 27.1401 28.9561 27.7461 28.2491 27.7461C27.5431 27.7461 26.9371 27.1411 26.9371 26.4331C26.9371 25.6251 27.5431 25.1211 28.2491 25.1211Z" fill="#10171D" stroke="white" stroke-miterlimit="10"/>
<path d="M62.3672 49.043C60.2472 49.043 58.5312 50.759 58.5312 52.879C58.5312 54.998 60.2472 56.714 62.3672 56.714C64.4862 56.714 66.2023 54.998 66.2023 52.879C66.2023 50.759 64.3862 49.043 62.3672 49.043ZM62.3672 54.09C61.6602 54.09 61.0543 53.485 61.0543 52.777C61.0543 52.071 61.6592 51.466 62.3672 51.466C63.0732 51.466 63.6783 52.071 63.6783 52.777C63.6793 53.484 62.9732 54.09 62.3672 54.09Z" fill="#10171D" stroke="white" stroke-miterlimit="10"/>
<path d="M61.6588 70.543C59.2368 70.543 57.2188 72.561 57.2188 74.984C57.2188 77.407 59.2368 79.425 61.6588 79.425C64.0818 79.425 66.0997 77.406 66.0997 74.984C66.0997 72.461 64.0818 70.543 61.6588 70.543ZM61.6588 76.801C60.6498 76.801 59.7418 75.994 59.7418 74.884C59.7418 73.774 60.5488 72.966 61.6588 72.966C62.6688 72.966 63.5767 73.774 63.5767 74.884C63.5767 75.994 62.7688 76.801 61.6588 76.801Z" fill="#10171D" stroke="white" stroke-miterlimit="10"/>
<path d="M52.1724 25.1221C52.8975 25.1221 53.4854 24.5342 53.4854 23.8091C53.4854 23.0839 52.8975 22.4961 52.1724 22.4961C51.4472 22.4961 50.8594 23.0839 50.8594 23.8091C50.8594 24.5342 51.4472 25.1221 52.1724 25.1221Z" fill="#10171D" stroke="white" stroke-miterlimit="10"/>
<path d="M37.0308 27.543C37.7558 27.543 38.3438 28.131 38.3438 28.856C38.3438 29.581 37.7558 30.1689 37.0308 30.1689C36.3058 30.1689 35.7188 29.581 35.7188 28.856C35.7188 28.131 36.3068 27.543 37.0308 27.543Z" fill="#10171D" stroke="white" stroke-miterlimit="10"/>
<path d="M56.0073 38.9492C56.7323 38.9492 57.3203 39.5362 57.3203 40.2602C57.3203 40.9842 56.7323 41.5732 56.0073 41.5732C55.2823 41.5732 54.6953 40.9852 54.6953 40.2602C54.6953 39.5352 55.2823 38.9492 56.0073 38.9492Z" fill="#10171D" stroke="white" stroke-miterlimit="10"/>
<path d="M71.1489 71.7539C71.8739 71.7539 72.4619 72.3409 72.4619 73.0659C72.4619 73.7909 71.8739 74.3789 71.1489 74.3789C70.4239 74.3789 69.8359 73.7909 69.8359 73.0659C69.8369 72.3409 70.4249 71.7539 71.1489 71.7539Z" fill="#10171D" stroke="white" stroke-miterlimit="10"/>
<path d="M50.9614 70.4414C51.6864 70.4414 52.2734 71.0284 52.2734 71.7544C52.2734 72.4794 51.6864 73.0664 50.9614 73.0664C50.2354 73.0664 49.6484 72.4794 49.6484 71.7544C49.6484 71.0284 50.2354 70.4414 50.9614 70.4414Z" fill="#10171D" stroke="white" stroke-miterlimit="10"/>
<path d="M35.8209 50.2539C36.5459 50.2539 37.1339 50.8409 37.1339 51.5649C37.1339 52.2899 36.5459 52.8779 35.8209 52.8779C35.0959 52.8779 34.5078 52.2899 34.5078 51.5649C34.5088 50.8409 35.0969 50.2539 35.8209 50.2539Z" fill="#10171D" stroke="white" stroke-miterlimit="10"/>
<path d="M45.9158 57.7239C45.9158 57.6229 45.9158 57.623 45.9158 57.623C45.9158 57.521 45.9158 57.6229 45.9158 57.5209C45.9158 57.4199 45.9158 57.521 45.9158 57.42C45.9158 57.319 45.9158 57.3189 45.8138 57.3189C45.8138 57.2169 45.8138 57.2169 45.7128 57.2169C45.7128 57.2169 45.7128 57.1159 45.6118 57.1159C45.4098 56.9139 45.4097 56.9139 45.4097 56.9139C45.4097 56.9139 45.4098 56.9139 45.3088 56.9139L45.2068 56.8129C45.2068 56.8129 45.1068 56.8129 45.1068 56.7109H45.0057H44.9037H44.8027H44.7007C26.4317 56.7109 26.9368 56.7109 26.6348 56.8129C26.5328 56.8129 26.6348 56.8129 26.5328 56.8129C26.4318 56.8129 26.5328 56.8129 26.4318 56.9139C26.3298 56.9139 26.4318 56.9139 26.3298 57.0159C26.3298 57.0159 26.2297 57.0159 26.2297 57.1159C26.1287 57.2169 26.1288 57.2169 26.1288 57.2169L26.0267 57.3189C26.0267 57.3189 26.0268 57.42 25.9258 57.42V57.5209V57.623C25.9258 57.824 25.9258 56.6129 25.9258 75.4879C25.9258 75.5879 25.9258 75.5879 25.9258 75.6889C25.9258 75.7909 25.9258 75.791 25.9258 75.791C25.9258 75.892 25.9258 75.7909 25.9258 75.8919C25.9258 75.9939 25.9258 75.8919 25.9258 75.9939C25.9258 76.0949 25.9257 76.0949 26.0267 76.0949C26.0267 76.1959 26.0268 76.196 26.1288 76.196C26.1288 76.196 26.1287 76.2979 26.2297 76.2979C26.3297 76.3989 26.3298 76.3989 26.3298 76.3989C26.4318 76.3989 26.3298 76.3989 26.4318 76.4989C26.5328 76.4989 26.4318 76.499 26.5328 76.601C26.6348 76.601 26.5328 76.601 26.6348 76.601C26.7358 76.601 26.7358 76.601 26.7358 76.601C26.8368 76.601 26.8367 76.601 26.8367 76.601C26.8367 76.601 26.9388 76.601 27.0388 76.601C45.6108 76.601 44.8038 76.6009 45.1058 76.4989H45.2057C45.2057 76.4989 45.3077 76.4989 45.3077 76.3989L45.4088 76.2979L45.5098 76.196C45.5098 76.196 45.6118 76.1959 45.6118 76.0949C45.6118 76.0949 45.6118 75.9939 45.7128 75.9939L45.8138 75.8919L45.9158 75.791C45.9158 75.791 45.9158 75.6889 46.0168 75.6889V75.588V75.4879V75.3859C46.0168 75.2849 46.0168 57.6219 46.0168 57.6219C45.9158 57.8249 45.9158 57.7239 45.9158 57.7239ZM28.2518 60.9539L34.0057 66.7079L28.2518 72.5609V60.9539ZM30.0688 59.1379H41.6758L35.9218 64.8909L30.0688 59.1379ZM35.8218 68.5239L41.5748 74.278H30.0688L35.8218 68.5239ZM37.6387 66.7079L43.3928 60.9539V72.5609L37.6387 66.7079Z" fill="#10171D" stroke="white" stroke-miterlimit="10"/>
</svg>
