<svg width="311" height="206" viewBox="0 0 311 206" fill="none" xmlns="http://www.w3.org/2000/svg">
<path d="M1.5274 203.317L1.29828 203.98H2H44.0299H44.3961L44.5066 203.631L57.6072 162.257H142.885L155.837 203.629L155.947 203.98H156.314H198.651H199.353L199.124 203.317L129.176 0.83674L129.06 0.5H128.703H71.9476H71.5914L71.475 0.83674L1.5274 203.317ZM102.259 32.4856L134.024 133.953H66.5693L98.6975 32.4856H102.259Z" fill="#10171D" stroke="#10171D"/>
<path d="M184.089 198.191L184.099 198.196L184.11 198.201C191.049 201.471 198.884 203.094 207.595 203.094C217.5 203.094 226.24 201.272 233.786 197.596L233.796 197.591C241.499 193.735 247.998 188.654 253.281 182.347L253.286 182.341L253.291 182.335C258.4 176.038 262.366 169.164 265.187 161.715H268.343C268.733 168 269.214 174.195 269.785 180.299C270.386 186.709 271.086 192.722 271.887 198.338L272.01 199.196H272.877H306.716H307.841L307.71 198.08C306.913 191.3 306.216 184.319 305.618 177.139C305.219 169.752 304.82 162.464 304.422 155.277C304.222 147.894 304.123 140.811 304.123 134.028V104.643C304.123 88.9652 301.816 76.1126 297.142 66.1397C292.46 55.9524 285.317 48.4829 275.721 43.7787C266.154 38.8894 254.009 36.4766 239.338 36.4766C229.686 36.4766 220.819 37.4832 212.742 39.505C204.654 41.5296 197.457 44.6728 191.162 48.9428C184.877 53.2061 179.6 58.387 175.337 64.4832C171.066 70.3901 167.826 77.3972 165.604 85.4876L165.348 86.4209L166.273 86.7076L200.112 97.2024L201.171 97.531L201.388 96.4431C202.76 89.5778 205.291 84.1594 208.936 80.126L208.944 80.1175L208.951 80.1087C212.64 75.8316 216.995 72.7332 222.023 70.7958C227.3 68.8398 232.77 67.8619 238.439 67.8619C247.892 67.8619 254.442 70.1323 258.363 74.4323L258.379 74.449L258.395 74.4651C262.6 78.676 264.69 83.7195 264.69 89.6505C264.69 93.6902 263.732 96.605 261.971 98.556C260.164 100.356 257.185 101.791 252.891 102.768L252.881 102.771C248.729 103.761 243.27 104.755 236.497 105.753C224.093 107.556 213.272 109.761 204.038 112.374C194.796 114.789 187.019 117.917 180.729 121.776C174.402 125.456 169.579 130.279 166.292 136.244L166.285 136.256L166.279 136.268C163.195 142.239 161.676 149.401 161.676 157.717C161.676 167.637 163.597 176.017 167.499 182.803L167.504 182.813L167.51 182.822C171.599 189.578 177.129 194.707 184.089 198.191ZM234.23 171.161L234.223 171.163L234.216 171.166C230.323 172.53 226.442 173.208 222.568 173.208C215.978 173.208 210.633 171.37 206.452 167.755C202.318 164.18 200.21 159.18 200.21 152.619C200.21 147.375 201.47 143.44 203.859 140.68L203.869 140.668L203.88 140.656C206.346 137.616 209.681 135.314 213.926 133.769L213.945 133.762L213.963 133.754C218.283 131.985 223.107 130.603 228.44 129.614L228.454 129.612L228.467 129.609C234.037 128.414 239.505 127.418 244.872 126.622C250.512 125.815 255.857 124.604 260.905 122.987C262.386 122.512 263.801 121.985 265.15 121.404L265.584 140.73C263.239 146.166 260.42 150.913 257.134 154.98C253.794 158.913 250.165 162.25 246.25 164.994C242.328 167.742 238.322 169.795 234.23 171.161Z" stroke="white" stroke-width="2"/>
<path d="M182.753 199.084L182.764 199.09L182.774 199.095C189.879 202.438 197.902 204.098 206.823 204.098C216.968 204.098 225.917 202.235 233.644 198.476L233.654 198.471C241.542 194.527 248.197 189.33 253.607 182.879L253.612 182.874L253.617 182.867C258.853 176.423 262.918 169.387 265.806 161.762H269.081C269.48 168.199 269.973 174.544 270.559 180.796C271.174 187.355 271.892 193.507 272.713 199.252L272.835 200.11H273.703H308.37H309.494L309.363 198.993C308.547 192.056 307.832 184.913 307.22 177.566C306.811 170.008 306.403 162.552 305.994 155.198C305.79 147.644 305.688 140.397 305.688 133.458V103.392C305.688 87.3541 303.326 74.2081 298.539 64.0085C293.745 53.5893 286.43 45.9509 276.604 41.1404C266.808 36.1402 254.37 33.6719 239.342 33.6719C229.456 33.6719 220.375 34.7016 212.103 36.7696C203.819 38.8404 196.449 42.0552 190.002 46.4223C183.566 50.7825 178.161 56.0813 173.796 62.3163C169.422 68.3573 166.104 75.524 163.829 83.7996L163.572 84.7334L164.497 85.02L199.164 95.7575L200.223 96.0855L200.441 94.9984C201.846 87.9714 204.441 82.4236 208.178 78.2931L208.186 78.2845L208.193 78.2758C211.975 73.8968 216.44 70.7242 221.595 68.7405C227.004 66.7382 232.611 65.7371 238.422 65.7371C248.109 65.7371 254.828 68.0609 258.852 72.4675L258.867 72.4842L258.883 72.5003C263.196 76.8131 265.34 81.979 265.34 88.053C265.34 92.1894 264.358 95.178 262.548 97.1799C260.692 99.0265 257.635 100.496 253.233 101.497L253.223 101.499C248.968 102.512 243.375 103.53 236.436 104.551C223.73 106.395 212.644 108.652 203.186 111.324C193.72 113.794 185.755 116.995 179.313 120.941C172.835 124.705 167.896 129.636 164.531 135.736L164.524 135.747L164.518 135.759C161.361 141.864 159.805 149.188 159.805 157.694C159.805 167.842 161.772 176.411 165.767 183.349L165.773 183.359L165.778 183.369C169.965 190.277 175.628 195.522 182.753 199.084ZM234.118 171.471L234.11 171.473L234.103 171.476C230.113 172.873 226.134 173.567 222.162 173.567C215.405 173.567 209.924 171.685 205.636 167.981C201.394 164.318 199.233 159.196 199.233 152.478C199.233 147.11 200.524 143.078 202.977 140.248L202.987 140.236L202.997 140.224C205.527 137.11 208.947 134.753 213.3 133.17L213.319 133.163L213.337 133.156C217.765 131.345 222.708 129.931 228.173 128.919L228.187 128.916L228.201 128.913C233.907 127.691 239.509 126.672 245.008 125.857C250.785 125.032 256.259 123.793 261.429 122.138C262.958 121.649 264.419 121.105 265.81 120.505L266.255 140.318C263.852 145.884 260.963 150.744 257.594 154.908C254.17 158.934 250.451 162.349 246.439 165.158C242.419 167.972 238.312 170.073 234.118 171.471Z" stroke="#10171D" stroke-width="2"/>
</svg>
