<svg width="18" height="18" viewBox="0 0 18 18" fill="none" xmlns="http://www.w3.org/2000/svg">
<path d="M2.28073 4.56145C3.54034 4.56145 4.56145 3.54034 4.56145 2.28073C4.56145 1.02111 3.54034 0 2.28073 0C1.02111 0 0 1.02111 0 2.28073C0 3.54034 1.02111 4.56145 2.28073 4.56145Z" fill="white"/>
<path d="M4.00882 17.4797H0.552087C0.454087 17.4797 0.382812 17.3995 0.382812 17.3104V6.25424C0.382812 6.15624 0.462996 6.08496 0.552087 6.08496H4.00882C4.10682 6.08496 4.17809 6.16514 4.17809 6.25424V17.3104C4.17809 17.3995 4.10682 17.4797 4.00882 17.4797Z" fill="white"/>
<path d="M17.1055 10.2634V16.7224C17.1055 17.1412 16.767 17.4797 16.3483 17.4797H14.0676C13.6488 17.4797 13.3103 17.1412 13.3103 16.7224V11.4037C13.3103 10.3524 12.455 9.50608 11.4126 9.50608C10.3703 9.50608 9.515 10.3614 9.515 11.4037V16.7224C9.515 17.1412 9.17645 17.4797 8.75772 17.4797H6.477C6.05827 17.4797 5.71973 17.1412 5.71973 16.7224V6.84226C5.71973 6.42353 6.05827 6.08499 6.477 6.08499H8.75772C9.17645 6.08499 9.515 6.42353 9.515 6.84226V7.33226C10.2723 6.35226 11.5285 5.7019 12.9361 5.7019C15.0208 5.7019 17.1055 7.21645 17.1055 10.2634Z" fill="white"/>
</svg>
