<svg width="19" height="19" viewBox="0 0 19 19" fill="none" xmlns="http://www.w3.org/2000/svg">
<path d="M14.0853 0H4.48128C2.00455 0 0 2.00454 0 4.48127V14.0853C0 16.562 2.00455 18.5665 4.48128 18.5665H14.0853C16.562 18.5665 18.5665 16.562 18.5665 14.0853V4.48127C18.5665 2.00454 16.562 0 14.0853 0ZM16.9629 13.7645C16.9629 15.5285 15.5285 16.9629 13.7645 16.9629H4.802C3.038 16.9629 1.60364 15.5285 1.60364 13.7645V4.802C1.60364 3.038 3.038 1.60364 4.802 1.60364H13.7645C15.5285 1.60364 16.9629 3.038 16.9629 4.802V13.7645Z" fill="white"/>
<path d="M9.28345 4.48145C6.62854 4.48145 4.48145 6.62854 4.48145 9.28345C4.48145 11.9384 6.62854 14.0854 9.28345 14.0854C11.9384 14.0854 14.0854 11.9384 14.0854 9.28345C14.0854 6.62854 11.9294 4.48145 9.28345 4.48145ZM9.28345 12.4818C7.51945 12.4818 6.08508 11.0474 6.08508 9.28345C6.08508 7.51945 7.51945 6.08508 9.28345 6.08508C11.0474 6.08508 12.4818 7.51945 12.4818 9.28345C12.4818 11.0474 11.0474 12.4818 9.28345 12.4818Z" fill="white"/>
<path d="M14.4055 5.12285C14.9369 5.12285 15.3677 4.69207 15.3677 4.16067C15.3677 3.62927 14.9369 3.19849 14.4055 3.19849C13.8741 3.19849 13.4434 3.62927 13.4434 4.16067C13.4434 4.69207 13.8741 5.12285 14.4055 5.12285Z" fill="white"/>
</svg>
