<svg width="21" height="21" viewBox="0 0 21 21" fill="none" xmlns="http://www.w3.org/2000/svg">
<path d="M10.5 0C4.69924 0 0 4.69925 0 10.5C0 16.3008 4.69924 21 10.5 21C16.3008 21 21 16.3008 21 10.5C21 4.69925 16.3008 0 10.5 0ZM19.5498 10.294C17.7272 9.77095 15.4608 9.46189 13.1072 9.98491C12.8536 9.42226 12.6 8.88339 12.3385 8.3683C14.7158 7.33811 16.4434 5.9751 17.5845 4.86566C18.7811 6.3634 19.5023 8.24151 19.5498 10.294ZM10.5 1.45019C12.8457 1.45019 14.9774 2.33774 16.586 3.80377C15.54 4.83396 13.9075 6.12566 11.657 7.08453C10.294 4.62 8.90717 2.76566 8.09887 1.7751C8.86755 1.56113 9.67585 1.45019 10.5 1.45019ZM6.6566 2.30604C7.29057 3.06679 8.78038 4.96075 10.2623 7.60755C6.93396 8.68528 3.3917 8.78038 1.6166 8.74076C2.18717 5.88793 4.09698 3.51056 6.6566 2.30604ZM1.45019 10.5C1.45019 10.397 1.45019 10.294 1.45811 10.1909C1.70377 10.1989 1.98906 10.1989 2.29811 10.1989C4.35849 10.1989 7.73434 9.99283 10.9596 8.89925C11.2053 9.37472 11.443 9.87396 11.6728 10.397C7.1083 11.9423 4.6834 15.0328 3.74038 16.5147C2.32189 14.914 1.45019 12.806 1.45019 10.5ZM10.5 19.5498C8.35245 19.5498 6.37132 18.797 4.81811 17.537C5.50755 16.3879 7.75811 13.2181 12.2434 11.7283C13.0992 13.8758 13.7808 16.277 14.0502 18.8208C12.9566 19.2962 11.76 19.5498 10.5 19.5498ZM15.4291 18.0917C15.12 15.6668 14.4702 13.4004 13.6698 11.3479C15.7777 10.9438 17.8381 11.2845 19.4626 11.7917C19.0823 14.4306 17.5687 16.697 15.4291 18.0917Z" fill="white"/>
</svg>
