<svg width="18" height="18" viewBox="0 0 18 18" fill="none" xmlns="http://www.w3.org/2000/svg">
<path d="M13.6555 0H4.34453C1.94338 0 0 1.94338 0 4.34453V13.6555C0 16.0566 1.94338 18 4.34453 18H13.6555C16.0566 18 18 16.0566 18 13.6555V4.34453C18 1.94338 16.0566 0 13.6555 0ZM16.4453 13.3445C16.4453 15.0547 15.0547 16.4453 13.3445 16.4453H4.65547C2.9453 16.4453 1.5547 15.0547 1.5547 13.3445V4.65547C1.5547 2.9453 2.9453 1.5547 4.65547 1.5547H13.3445C15.0547 1.5547 16.4453 2.9453 16.4453 4.65547V13.3445Z" fill="#070D1B"/>
<path d="M8.99922 4.34473C6.42533 4.34473 4.34375 6.4263 4.34375 9.0002C4.34375 11.5741 6.42533 13.6557 8.99922 13.6557C11.5731 13.6557 13.6547 11.5741 13.6547 9.0002C13.6547 6.4263 11.5645 4.34473 8.99922 4.34473ZM8.99922 12.101C7.28905 12.101 5.89845 10.7104 5.89845 9.0002C5.89845 7.29003 7.28905 5.89943 8.99922 5.89943C10.7094 5.89943 12.1 7.29003 12.1 9.0002C12.1 10.7104 10.7094 12.101 8.99922 12.101Z" fill="#070D1B"/>
<path d="M13.968 4.96623C14.4832 4.96623 14.9008 4.54859 14.9008 4.03341C14.9008 3.51822 14.4832 3.10059 13.968 3.10059C13.4528 3.10059 13.0352 3.51822 13.0352 4.03341C13.0352 4.54859 13.4528 4.96623 13.968 4.96623Z" fill="#070D1B"/>
</svg>
