<svg width="18" height="18" viewBox="0 0 18 18" fill="none" xmlns="http://www.w3.org/2000/svg">
<path d="M9 0C4.02792 0 0 4.02793 0 9C0 13.9721 4.02792 18 9 18C13.9721 18 18 13.9721 18 9C18 4.02793 13.9721 0 9 0ZM16.757 8.8234C15.1947 8.3751 13.2521 8.11019 11.2347 8.55849C11.0174 8.07623 10.8 7.61434 10.5758 7.17283C12.6136 6.28981 14.0943 5.12151 15.0725 4.17057C16.0981 5.45434 16.7162 7.06415 16.757 8.8234ZM9 1.24302C11.0106 1.24302 12.8377 2.00377 14.2166 3.26038C13.32 4.1434 11.9208 5.25057 9.9917 6.07245C8.8234 3.96 7.63472 2.37057 6.94189 1.52151C7.60075 1.33811 8.29358 1.24302 9 1.24302ZM5.70566 1.9766C6.24906 2.62868 7.52604 4.25208 8.79623 6.52075C5.9434 7.44453 2.90717 7.52604 1.38566 7.49208C1.87472 5.0468 3.5117 3.00905 5.70566 1.9766ZM1.24302 9C1.24302 8.9117 1.24302 8.82339 1.24981 8.73509C1.46038 8.74189 1.7049 8.74188 1.96981 8.74188C3.73585 8.74188 6.62943 8.56529 9.39396 7.62793C9.60453 8.03547 9.8083 8.46339 10.0053 8.91169C6.09283 10.2362 4.01434 12.8853 3.20604 14.1555C1.99019 12.7834 1.24302 10.9766 1.24302 9ZM9 16.757C7.15924 16.757 5.46113 16.1117 4.12981 15.0317C4.72076 14.0468 6.64981 11.3298 10.4943 10.0528C11.2279 11.8936 11.8121 13.9517 12.043 16.1321C11.1057 16.5396 10.08 16.757 9 16.757ZM13.2249 15.5072C12.96 13.4287 12.403 11.486 11.717 9.72679C13.5238 9.38037 15.2898 9.67246 16.6823 10.1072C16.3562 12.3691 15.0589 14.3117 13.2249 15.5072Z" fill="#070D1B"/>
</svg>
