<svg width="25" height="24" viewBox="0 0 25 24" fill="none" xmlns="http://www.w3.org/2000/svg">
<path fill-rule="evenodd" clip-rule="evenodd" d="M20.25 11.0001C17.812 11.0001 15.59 8.77909 15.59 6.34009C15.59 5.7878 15.1423 5.34009 14.59 5.34009C14.0377 5.34009 13.59 5.7878 13.59 6.34009C13.59 8.11409 14.368 9.77809 15.589 11.0001H4.25C3.69772 11.0001 3.25 11.4478 3.25 12.0001C3.25 12.5524 3.69772 13.0001 4.25 13.0001H15.589C14.368 14.2221 13.59 15.8861 13.59 17.6601C13.59 18.2124 14.0377 18.6601 14.59 18.6601C15.1423 18.6601 15.59 18.2124 15.59 17.6601C15.59 15.2211 17.812 13.0001 20.25 13.0001C20.8023 13.0001 21.25 12.5524 21.25 12.0001C21.25 11.4478 20.8023 11.0001 20.25 11.0001Z" fill="white"/>
</svg>
