<svg width="33" height="33" viewBox="0 0 33 33" fill="none" xmlns="http://www.w3.org/2000/svg">
<path fill-rule="evenodd" clip-rule="evenodd" d="M21.1665 10.8613C19.3843 12.2529 16.4751 11.8758 15.064 10.0688L15.0563 10.0589C14.741 9.65519 14.1582 9.58348 13.7545 9.89874C13.3507 10.214 13.279 10.7969 13.5943 11.2006L13.602 11.2105C14.6283 12.5248 16.1597 13.3135 17.7593 13.5219L9.48029 19.9868C9.07111 20.3063 8.99843 20.8971 9.31795 21.3062C9.63747 21.7154 10.2282 21.7881 10.6374 21.4686L18.9164 15.0037C18.7308 16.606 19.1248 18.2829 20.1511 19.5973L20.1588 19.6072C20.4741 20.0109 21.0569 20.0826 21.4607 19.7673C21.8644 19.4521 21.9361 18.8692 21.6208 18.4655L21.6131 18.4556C20.2021 16.6486 20.5414 13.7347 22.3236 12.343C22.7273 12.0278 22.799 11.4449 22.4838 11.0412L22.4683 11.0214C22.1531 10.6177 21.5702 10.546 21.1665 10.8613Z" fill="#10171D"/>
</svg>
