<svg width="25" height="24" viewBox="0 0 25 24" fill="none" xmlns="http://www.w3.org/2000/svg">
<path fill-rule="evenodd" clip-rule="evenodd" d="M20.25 10.9999C17.812 10.9999 15.59 8.77884 15.59 6.33984C15.59 5.78756 15.1423 5.33984 14.59 5.33984C14.0377 5.33984 13.59 5.78756 13.59 6.33984C13.59 8.11384 14.368 9.77784 15.589 10.9999H4.25C3.69772 10.9999 3.25 11.4476 3.25 11.9999C3.25 12.5521 3.69772 12.9999 4.25 12.9999H15.589C14.368 14.2219 13.59 15.8859 13.59 17.6599C13.59 18.2121 14.0377 18.6599 14.59 18.6599C15.1423 18.6599 15.59 18.2121 15.59 17.6599C15.59 15.2209 17.812 12.9999 20.25 12.9999C20.8023 12.9999 21.25 12.5521 21.25 11.9999C21.25 11.4476 20.8023 10.9999 20.25 10.9999Z" fill="#666666"/>
</svg>
