<svg width="46" height="46" viewBox="0 0 46 46" fill="none" xmlns="http://www.w3.org/2000/svg">
<path fill-rule="evenodd" clip-rule="evenodd" d="M28.9354 15.059C26.6648 17.2642 22.5609 17.1792 20.3267 14.8788L20.3151 14.8669C19.8156 14.3526 18.9936 14.3406 18.4793 14.8401C17.9649 15.3397 17.9529 16.1616 18.4525 16.676L18.464 16.6878C20.089 18.361 22.3379 19.2268 24.5945 19.275L14.046 29.5198C13.525 30.0258 13.5129 30.8582 14.0188 31.3791C14.5247 31.9 15.3571 31.9121 15.878 31.4062L26.4266 21.1613C26.4088 23.4183 27.2085 25.6915 28.8336 27.3648L28.8451 27.3766C29.3446 27.891 30.1666 27.903 30.681 27.4034C31.1953 26.9039 31.2073 26.0819 30.7078 25.5676L30.6962 25.5557C28.462 23.2553 28.4969 19.1506 30.7675 16.9454C31.2819 16.4458 31.2939 15.6239 30.7943 15.1095L30.7713 15.0858C30.2717 14.5714 29.4498 14.5594 28.9354 15.059Z" fill="#D6FFC8"/>
</svg>
