<svg width="19" height="14" viewBox="0 0 19 14" fill="none" xmlns="http://www.w3.org/2000/svg">
<path fill-rule="evenodd" clip-rule="evenodd" d="M17.25 6.0001C14.812 6.0001 12.59 3.77909 12.59 1.34009C12.59 0.787803 12.1423 0.340088 11.59 0.340088C11.0377 0.340088 10.59 0.787803 10.59 1.34009C10.59 3.11409 11.368 4.77809 12.589 6.0001H1.25C0.697716 6.0001 0.25 6.44781 0.25 7.0001C0.25 7.55238 0.697715 8.0001 1.25 8.0001H12.589C11.368 9.2221 10.59 10.8861 10.59 12.6601C10.59 13.2124 11.0377 13.6601 11.59 13.6601C12.1423 13.6601 12.59 13.2124 12.59 12.6601C12.59 10.2211 14.812 8.0001 17.25 8.0001C17.8023 8.0001 18.25 7.55238 18.25 7.0001C18.25 6.44781 17.8023 6.0001 17.25 6.0001Z" fill="#10171D"/>
</svg>
