<svg width="29" height="29" viewBox="0 0 29 29" fill="none" xmlns="http://www.w3.org/2000/svg">
<path d="M3.3033 23.5522L3.3033 14.4985C3.3033 10.1284 6.74211 6.54628 11.0496 6.31344L11.0496 8.3015C7.83464 8.53434 5.29127 11.2299 5.29127 14.4985C5.29127 14.7493 5.48828 14.9463 5.73903 14.9463L11.9092 14.9463L11.9092 23.5522L3.3033 23.5522Z" fill="#10171D"/>
<path d="M16.728 23.5522L16.728 14.4985C16.728 10.1284 20.1668 6.54628 24.4832 6.31344L24.4832 8.3015C21.2594 8.53434 18.7161 11.2299 18.7161 14.4985C18.7161 14.7493 18.9131 14.9463 19.1638 14.9463L25.334 14.9463L25.334 23.5522L16.728 23.5522Z" fill="#10171D"/>
</svg>
