<svg width="18" height="18" viewBox="0 0 18 18" fill="none" xmlns="http://www.w3.org/2000/svg">
<path d="M17.6947 7.59469L13.8016 11.3897L14.721 16.7497C14.761 16.9841 14.6647 17.2209 14.4722 17.3609C14.3635 17.4403 14.2341 17.4803 14.1047 17.4803C14.0053 17.4803 13.9053 17.4566 13.8141 17.4084L9.00034 14.8778L4.18722 17.4078C3.97722 17.5191 3.72159 17.5009 3.52909 17.3603C3.33659 17.2203 3.24034 16.9834 3.28034 16.7491L4.19972 11.3891L0.305967 7.59469C0.135967 7.42844 0.0740922 7.17969 0.147842 6.95406C0.221592 6.72844 0.417217 6.56281 0.652842 6.52844L6.03347 5.74719L8.43972 0.870937C8.65034 0.444062 9.35034 0.444062 9.56097 0.870937L11.9672 5.74719L17.3478 6.52844C17.5835 6.56281 17.7791 6.72781 17.8528 6.95406C17.9266 7.18031 17.8647 7.42781 17.6947 7.59469Z" fill="#FFB800"/>
</svg>
