<svg width="50" height="51" viewBox="0 0 50 51" fill="none" xmlns="http://www.w3.org/2000/svg">
<path d="M16.5641 25.89L12.9403 29.5239H0.892647V21.6277H12.277L16.5641 25.89ZM13.2861 20.1134L5.27971 11.5549L10.8806 5.71053L19.5222 14.3521L21.046 15.876V13.7209V1.67194H28.8434V13.5761L17.8247 24.6258L13.2861 20.1134ZM15.4615 29.5239L17.8301 27.1487L20.2191 29.5239H15.4615ZM22.7513 29.5239L19.0907 25.8846L28.8434 16.1045V29.5239H22.7513ZM13.6812 31.3092H22.0148L28.8434 38.0984V49.6773H21.046V37.7271V35.6366L19.536 37.0823L10.8851 45.3651L5.30743 39.7066L13.6812 31.3092ZM36.9478 21.6277H49.0956V29.5239H36.9478H34.809H30.6287V14.3141L39.2119 5.70682L44.8818 11.5387L36.3166 20.1039L34.7928 21.6277H36.9478ZM30.6287 31.3092H36.5753L44.8764 39.6996L39.2 45.3759L30.6287 37.3404V31.3092ZM28.8434 35.5809L24.5469 31.3092H28.8434V35.5809Z" stroke="url(#paint0_diamond_64_4128)" stroke-width="1.78529"/>
<defs>
<radialGradient id="paint0_diamond_64_4128" cx="0" cy="0" r="1" gradientUnits="userSpaceOnUse" gradientTransform="translate(23.2088 -4.99997) rotate(89.6359) scale(70.2418 70.5205)">
<stop stop-color="#F70F68"/>
<stop offset="0.35" stop-color="#FFA92E"/>
<stop offset="0.666278" stop-color="#64E8F0"/>
<stop offset="1" stop-color="#1FD1A2"/>
</radialGradient>
</defs>
</svg>
